<svg width="350" height="260" viewBox="0 0 350 260" fill="none" xmlns="http://www.w3.org/2000/svg">
<path d="M349.468 228.484H0.53125V228.658H349.468V228.484Z" fill="#EBEBEB"/>
<path d="M94.8421 239.713H71.7285V239.887H94.8421V239.713Z" fill="#EBEBEB"/>
<path d="M150.355 234.43H119.963V234.604H150.355V234.43Z" fill="#EBEBEB"/>
<path d="M71.0313 233.236H37.1426V233.411H71.0313V233.236Z" fill="#EBEBEB"/>
<path d="M197.262 235.595H173.332V235.77H197.262V235.595Z" fill="#EBEBEB"/>
<path d="M314.505 235.595H309.312V235.77H314.505V235.595Z" fill="#EBEBEB"/>
<path d="M237.368 235.595H203.473V235.77H237.368V235.595Z" fill="#EBEBEB"/>
<path d="M293.848 238.54H228.471V238.715H293.848V238.54Z" fill="#EBEBEB"/>
<path d="M165.929 197.359H31.1761C30.1205 197.357 29.1087 196.936 28.3629 196.189C27.6171 195.442 27.1982 194.43 27.1982 193.374V3.94997C27.2074 2.90038 27.6304 1.89681 28.3752 1.15723C29.12 0.417649 30.1265 0.001798 31.1761 0H165.929C166.986 0 167.999 0.419833 168.746 1.16714C169.494 1.91445 169.914 2.92801 169.914 3.98486V193.374C169.914 194.431 169.494 195.444 168.746 196.192C167.999 196.939 166.986 197.359 165.929 197.359ZM31.1761 0.139575C30.1668 0.141424 29.1994 0.54369 28.4863 1.25808C27.7732 1.97246 27.3727 2.9406 27.3727 3.94997V193.374C27.3727 194.383 27.7732 195.352 28.4863 196.066C29.1994 196.78 30.1668 197.183 31.1761 197.184H165.929C166.939 197.183 167.907 196.781 168.621 196.066C169.335 195.352 169.737 194.384 169.739 193.374V3.94997C169.737 2.93996 169.335 1.97184 168.621 1.25765C167.907 0.543463 166.939 0.14142 165.929 0.139575H31.1761Z" fill="#EBEBEB"/>
<path d="M316.885 197.359H182.125C181.069 197.357 180.057 196.937 179.31 196.19C178.563 195.443 178.142 194.43 178.141 193.374V3.94997C178.152 2.89975 178.576 1.89618 179.322 1.15679C180.068 0.417405 181.075 0.00177839 182.125 0H316.885C317.933 0.00363208 318.938 0.420294 319.681 1.15968C320.425 1.89906 320.847 2.90159 320.856 3.94997V193.374C320.856 194.428 320.438 195.44 319.694 196.187C318.949 196.934 317.939 197.355 316.885 197.359ZM182.125 0.139575C181.115 0.14142 180.147 0.543463 179.433 1.25765C178.719 1.97184 178.317 2.93996 178.315 3.94997V193.374C178.317 194.384 178.719 195.352 179.433 196.066C180.147 196.781 181.115 197.183 182.125 197.184H316.885C317.895 197.183 318.863 196.781 319.577 196.066C320.291 195.352 320.694 194.384 320.695 193.374V3.94997C320.694 2.93996 320.291 1.97184 319.577 1.25765C318.863 0.543463 317.895 0.14142 316.885 0.139575H182.125Z" fill="#EBEBEB"/>
<path d="M79.8444 201.944C93.76 193.486 100.152 185.195 117.202 197.631C133.413 209.495 174.999 228.484 174.999 228.484H33.3311C33.3311 228.484 65.9218 210.409 79.8444 201.944Z" fill="#F0F0F0"/>
<path d="M79.8444 201.944C88.6515 196.584 94.4509 191.294 101.841 191.294C100.264 193.807 86.544 201.427 86.4463 206.648C86.3416 212.635 96.0839 220.605 90.7661 228.477H33.3311C33.3311 228.477 65.9218 210.409 79.8444 201.944Z" fill="#FAFAFA"/>
<path d="M243.037 189.822C216.838 177.49 204.807 165.396 172.726 183.541C142.201 200.799 63.9551 228.484 63.9551 228.484H330.543C330.543 228.484 269.214 202.153 243.037 189.822Z" fill="#F5F5F5"/>
<path d="M243.029 189.822C226.447 182.012 215.539 174.308 201.631 174.301C204.604 177.965 230.425 189.068 230.6 196.682C230.802 205.405 212.455 217.018 222.469 228.484H330.563C330.563 228.484 269.213 202.153 243.029 189.822Z" fill="#F0F0F0"/>
<path d="M111.876 168.885L112.218 169.165C113.384 164.942 116.594 163.819 118.318 166.506L118.387 166.206C118.387 166.073 118.527 165.989 118.625 166.024C118.681 166.046 118.726 166.089 118.751 166.144C118.775 166.198 118.778 166.261 118.757 166.317L118.604 167.015C119.155 168.247 119.442 169.581 119.448 170.93C119.557 174.553 120.405 178.115 121.94 181.398C121.981 179.926 122.03 178.467 122.072 177.03L121.807 176.332C121.786 176.274 121.784 176.211 121.801 176.152C121.819 176.092 121.855 176.041 121.905 176.004C121.933 175.981 121.969 175.968 122.006 175.968C122.043 175.968 122.078 175.981 122.107 176.004C122.17 174.057 122.233 172.145 122.289 170.295L121.856 169.514C121.826 169.459 121.814 169.396 121.823 169.334C121.832 169.273 121.86 169.215 121.905 169.172C121.923 169.152 121.946 169.137 121.972 169.128C121.998 169.12 122.025 169.117 122.052 169.121C122.078 169.125 122.104 169.136 122.126 169.152C122.147 169.168 122.165 169.189 122.177 169.213L122.316 169.472C122.421 166.261 122.526 163.191 122.623 160.399L121.974 159.701C121.937 159.652 121.916 159.592 121.916 159.53C121.916 159.469 121.937 159.408 121.974 159.359C121.986 159.335 122.004 159.314 122.026 159.298C122.047 159.282 122.073 159.271 122.1 159.267C122.126 159.263 122.154 159.266 122.179 159.274C122.205 159.283 122.228 159.298 122.247 159.318L122.658 159.75C122.721 158.034 122.784 156.394 122.84 154.865L122.295 154.035C122.259 153.985 122.239 153.925 122.239 153.864C122.239 153.802 122.259 153.742 122.295 153.693C122.311 153.671 122.331 153.654 122.355 153.641C122.379 153.629 122.405 153.623 122.432 153.623C122.458 153.623 122.484 153.629 122.508 153.641C122.532 153.654 122.552 153.671 122.568 153.693L122.84 154.104C123.035 148.982 123.217 144.92 123.377 142.324C123.392 140.045 124.165 137.835 125.575 136.043L125.178 135.583C125.14 135.534 125.119 135.474 125.119 135.412C125.119 135.35 125.14 135.29 125.178 135.241C125.193 135.219 125.214 135.202 125.237 135.19C125.261 135.177 125.287 135.171 125.314 135.171C125.34 135.171 125.367 135.177 125.39 135.19C125.414 135.202 125.434 135.219 125.45 135.241L125.876 135.736C126.243 135.332 126.687 135.005 127.181 134.773C127.676 134.542 128.212 134.412 128.758 134.39C129.38 134.347 130.005 134.434 130.591 134.647C131.178 134.86 131.713 135.193 132.163 135.625L132.254 135.436C132.263 135.411 132.277 135.387 132.296 135.368C132.315 135.348 132.338 135.333 132.363 135.324C132.389 135.315 132.416 135.311 132.443 135.314C132.47 135.316 132.496 135.325 132.519 135.339C132.565 135.38 132.596 135.435 132.608 135.495C132.619 135.556 132.61 135.619 132.582 135.674L132.443 135.953C133.392 137.146 134.062 139.184 134.257 142.604C134.362 144.418 134.313 148.187 134.152 153.316L134.369 153.009C134.384 152.986 134.405 152.967 134.429 152.954C134.453 152.941 134.481 152.934 134.508 152.934C134.536 152.934 134.563 152.941 134.587 152.954C134.612 152.967 134.633 152.986 134.648 153.009C134.684 153.059 134.703 153.118 134.703 153.18C134.703 153.241 134.684 153.301 134.648 153.351L134.124 154.097C134.062 156.031 133.985 158.145 133.894 160.413C134.48 159.806 135.115 159.094 135.764 158.285L135.806 157.266C135.802 157.206 135.821 157.147 135.858 157.101C135.896 157.054 135.95 157.023 136.009 157.015C136.12 157.015 136.197 157.126 136.197 157.266V157.761C137.391 156.206 138.433 154.54 139.31 152.785L138.912 152.178C138.881 152.125 138.868 152.063 138.874 152.002C138.88 151.94 138.906 151.882 138.947 151.836C138.961 151.813 138.981 151.794 139.005 151.781C139.029 151.768 139.056 151.761 139.083 151.761C139.11 151.761 139.137 151.768 139.161 151.781C139.184 151.794 139.204 151.813 139.219 151.836L139.533 152.311C140.94 149.398 141.882 146.283 142.324 143.078C142.48 141.655 142.917 140.277 143.609 139.023L143.267 137.781C143.251 137.721 143.255 137.658 143.277 137.6C143.3 137.543 143.34 137.494 143.392 137.46C143.417 137.45 143.444 137.447 143.471 137.449C143.498 137.451 143.524 137.459 143.548 137.472C143.571 137.485 143.591 137.504 143.606 137.526C143.622 137.548 143.632 137.573 143.636 137.6L143.902 138.577C144.99 137.041 146.414 136.56 147.677 137.007L147.859 136.518C147.907 136.392 148.019 136.33 148.117 136.385C148.167 136.42 148.204 136.471 148.221 136.529C148.238 136.588 148.233 136.651 148.208 136.706L148.033 137.16C149.813 138.074 151.139 140.929 150.434 145.388C150.434 145.535 150.385 145.681 150.357 145.821L150.406 145.786C150.425 145.767 150.449 145.753 150.475 145.745C150.502 145.738 150.529 145.737 150.556 145.744C150.582 145.75 150.607 145.763 150.627 145.781C150.647 145.8 150.662 145.823 150.671 145.849C150.698 145.905 150.707 145.968 150.696 146.03C150.685 146.091 150.654 146.148 150.608 146.191L150.245 146.484C149.663 149.961 148.728 153.371 147.454 156.659L147.524 156.61C147.547 156.596 147.573 156.588 147.6 156.586C147.627 156.583 147.654 156.588 147.679 156.598C147.704 156.608 147.726 156.624 147.744 156.644C147.762 156.664 147.775 156.688 147.782 156.715C147.804 156.773 147.806 156.838 147.788 156.898C147.771 156.958 147.734 157.012 147.684 157.05L147.147 157.384C145.053 162.27 141.941 166.701 137.3 168.878C137.314 168.926 137.314 168.977 137.3 169.025C137.292 169.074 137.269 169.118 137.234 169.152C137.199 169.186 137.153 169.208 137.104 169.213H137.056L136.762 169.123C135.729 169.56 134.65 169.878 133.545 170.072C133.461 172.047 133.364 174.092 133.266 176.192L133.315 176.15C133.335 176.133 133.36 176.121 133.386 176.115C133.412 176.109 133.44 176.109 133.466 176.116C133.492 176.123 133.516 176.136 133.536 176.154C133.555 176.172 133.571 176.195 133.58 176.22C133.605 176.277 133.611 176.341 133.599 176.402C133.586 176.463 133.555 176.519 133.51 176.562L133.238 176.778C133.057 180.603 132.861 184.609 132.659 188.719L132.903 188.377C132.916 188.353 132.934 188.333 132.956 188.317C132.978 188.302 133.003 188.292 133.03 188.289C133.057 188.285 133.084 188.288 133.109 188.298C133.135 188.307 133.157 188.322 133.175 188.342C133.213 188.393 133.233 188.454 133.233 188.517C133.233 188.579 133.213 188.641 133.175 188.691L132.617 189.494C132.191 198.057 131.724 207.052 131.277 215.852L131.528 215.441C131.541 215.416 131.559 215.395 131.58 215.378C131.602 215.362 131.628 215.351 131.654 215.345C131.681 215.34 131.709 215.341 131.736 215.347C131.762 215.354 131.787 215.367 131.808 215.385C131.844 215.436 131.863 215.497 131.863 215.559C131.863 215.622 131.844 215.683 131.808 215.734L131.214 216.69C131.005 220.703 130.803 224.674 130.607 228.554H120.565C120.614 226.928 120.662 225.281 120.711 223.669L120.425 223.382C120.387 223.334 120.367 223.273 120.367 223.211C120.367 223.15 120.387 223.089 120.425 223.041C120.436 223.016 120.453 222.994 120.475 222.977C120.496 222.96 120.522 222.949 120.548 222.944C120.575 222.939 120.603 222.941 120.629 222.95C120.655 222.958 120.678 222.972 120.697 222.992L120.76 223.047C120.99 215.21 121.228 207.178 121.458 199.32C121.5 197.805 121.542 196.291 121.591 194.798C116.203 191.929 113.509 185.544 112.428 179.395L111.869 178.935C111.826 178.89 111.799 178.833 111.791 178.771C111.784 178.709 111.796 178.647 111.827 178.593C111.837 178.568 111.853 178.546 111.872 178.528C111.892 178.51 111.916 178.497 111.941 178.489C111.967 178.482 111.994 178.481 112.02 178.485C112.046 178.49 112.071 178.5 112.093 178.516L112.309 178.698C112.012 176.79 111.851 174.864 111.827 172.933C111.814 171.866 111.921 170.801 112.148 169.758L111.709 169.395C111.664 169.353 111.635 169.297 111.626 169.236C111.617 169.175 111.629 169.113 111.66 169.06C111.659 169.033 111.665 169.006 111.676 168.982C111.687 168.957 111.704 168.936 111.725 168.919C111.746 168.902 111.77 168.89 111.797 168.884C111.823 168.879 111.85 168.879 111.876 168.885Z" fill="#EBEBEB"/>
<path d="M279.765 198.755C279.765 198.622 279.883 198.545 279.988 198.58L280.197 198.643C280.114 195.712 281.984 194.526 283.331 196.075L283.903 195.698C283.925 195.684 283.95 195.675 283.977 195.673C284.003 195.67 284.029 195.674 284.053 195.683C284.078 195.693 284.1 195.708 284.117 195.728C284.135 195.747 284.148 195.77 284.154 195.796C284.182 195.849 284.19 195.91 284.177 195.969C284.164 196.027 284.132 196.08 284.085 196.117L283.596 196.438C283.943 196.996 284.191 197.61 284.329 198.252C284.487 198.902 284.688 199.541 284.929 200.164L284.964 200.046C284.969 200.02 284.98 199.995 284.996 199.974C285.011 199.953 285.032 199.936 285.055 199.923C285.079 199.911 285.105 199.905 285.131 199.904C285.158 199.904 285.184 199.909 285.208 199.92C285.258 199.954 285.295 200.003 285.314 200.059C285.333 200.116 285.332 200.178 285.313 200.234L285.159 200.737C285.753 202.131 286.558 203.426 287.546 204.575V204.024C287.546 203.891 287.637 203.793 287.741 203.807C287.796 203.821 287.844 203.853 287.876 203.9C287.909 203.946 287.923 204.003 287.916 204.058L287.874 204.973C288.395 205.54 288.962 206.063 289.57 206.536C289.361 204.345 289.137 202.202 288.914 200.129L288.335 199.641C288.292 199.599 288.264 199.545 288.254 199.486C288.244 199.427 288.253 199.367 288.279 199.313C288.288 199.288 288.303 199.266 288.323 199.249C288.342 199.232 288.366 199.219 288.391 199.213C288.417 199.207 288.443 199.207 288.469 199.213C288.494 199.22 288.518 199.233 288.537 199.25L288.844 199.508C288.628 197.498 288.418 195.565 288.216 193.73L287.867 193.353C287.831 193.306 287.812 193.248 287.812 193.189C287.812 193.13 287.831 193.072 287.867 193.025C287.881 193.003 287.9 192.986 287.923 192.973C287.945 192.961 287.971 192.955 287.996 192.955C288.022 192.955 288.047 192.961 288.07 192.973C288.092 192.986 288.111 193.003 288.125 193.025L288.167 193.067C288.076 192.285 287.993 191.518 287.916 190.785C287.916 190.652 287.881 190.527 287.867 190.401C282.41 189.061 280.19 182.383 279.723 177.777C279.723 177.462 279.681 177.169 279.681 176.883C279.644 176.88 279.609 176.867 279.579 176.845C279.549 176.823 279.527 176.792 279.514 176.758C279.489 176.703 279.484 176.642 279.498 176.584C279.512 176.526 279.544 176.474 279.59 176.437L279.723 176.346C280.037 172.591 283.352 172.305 283.91 176.688C284.053 177.831 284.322 178.954 284.713 180.038C284.729 180.006 284.756 179.98 284.789 179.966C284.823 179.952 284.86 179.95 284.894 179.961C284.947 179.985 284.99 180.027 285.015 180.079C285.04 180.131 285.047 180.191 285.034 180.247L284.957 180.68C285.537 182.097 286.32 183.423 287.281 184.616C287.035 182.594 286.921 180.559 286.939 178.523L286.702 178.286C286.66 178.243 286.633 178.188 286.625 178.129C286.618 178.07 286.63 178.01 286.66 177.958C286.671 177.935 286.688 177.915 286.708 177.9C286.729 177.885 286.753 177.875 286.778 177.87C286.803 177.866 286.829 177.868 286.854 177.876C286.878 177.884 286.9 177.898 286.918 177.916L286.988 177.986C287.232 175.983 287.79 174.845 288.53 174.224C288.49 174.219 288.453 174.199 288.425 174.169L287.937 173.645C287.902 173.596 287.883 173.538 287.883 173.478C287.883 173.417 287.902 173.359 287.937 173.31C287.951 173.289 287.97 173.271 287.992 173.258C288.015 173.246 288.04 173.24 288.066 173.24C288.092 173.24 288.117 173.246 288.14 173.258C288.162 173.271 288.181 173.289 288.195 173.31L288.684 173.834C288.715 173.869 288.736 173.913 288.746 173.959C288.756 174.005 288.753 174.053 288.739 174.099C289.373 173.694 290.117 173.496 290.868 173.533C291.788 173.596 292.653 173.996 293.297 174.657L293.485 174.217C293.491 174.192 293.504 174.168 293.522 174.148C293.539 174.129 293.561 174.114 293.586 174.105C293.611 174.096 293.638 174.093 293.664 174.097C293.69 174.101 293.715 174.111 293.736 174.127C293.782 174.164 293.815 174.216 293.829 174.274C293.843 174.332 293.837 174.393 293.813 174.448L293.597 174.957C294.496 175.902 295.017 177.143 295.062 178.447C295.062 179.186 295.132 180.128 295.188 181.238C295.235 181.24 295.28 181.26 295.313 181.294C295.348 181.343 295.366 181.401 295.366 181.461C295.366 181.521 295.348 181.58 295.313 181.629L295.188 181.831C295.237 182.892 295.299 184.099 295.369 185.425C295.384 185.406 295.403 185.391 295.425 185.381C295.447 185.37 295.471 185.365 295.495 185.365C295.519 185.365 295.543 185.37 295.565 185.381C295.586 185.391 295.605 185.406 295.62 185.425C295.655 185.474 295.673 185.533 295.673 185.593C295.673 185.653 295.655 185.711 295.62 185.76L295.376 186.144C295.495 188.356 295.627 190.869 295.788 193.611C296.238 193.065 296.633 192.476 296.967 191.853L296.779 191.608C296.744 191.56 296.725 191.501 296.725 191.441C296.725 191.381 296.744 191.322 296.779 191.273C296.793 191.252 296.812 191.234 296.835 191.222C296.857 191.209 296.882 191.203 296.908 191.203C296.934 191.203 296.959 191.209 296.982 191.222C297.004 191.234 297.023 191.252 297.037 191.273L297.177 191.441C297.274 191.232 297.379 191.015 297.477 190.792C298.454 188.44 300.01 188.496 300.764 189.801L300.966 189.494C300.981 189.472 301.001 189.455 301.024 189.442C301.047 189.43 301.073 189.424 301.099 189.424C301.125 189.424 301.151 189.43 301.174 189.442C301.197 189.455 301.217 189.472 301.231 189.494C301.267 189.543 301.286 189.601 301.286 189.661C301.286 189.721 301.267 189.78 301.231 189.829L300.945 190.255C301.296 191.403 301.229 192.639 300.757 193.744C299.898 196.005 298.328 198.629 296.13 199.983C296.13 200.492 296.193 201.009 296.221 201.525C296.325 203.354 296.437 205.238 296.556 207.157C296.592 207.14 296.633 207.138 296.671 207.151C296.709 207.164 296.74 207.191 296.758 207.227C296.794 207.275 296.814 207.334 296.814 207.394C296.814 207.455 296.794 207.514 296.758 207.562L296.604 207.729C296.877 212.328 297.177 217.13 297.477 221.91L297.575 221.826C297.595 221.809 297.619 221.796 297.644 221.79C297.67 221.784 297.697 221.783 297.723 221.79C297.749 221.796 297.773 221.808 297.794 221.825C297.814 221.843 297.83 221.865 297.84 221.889C297.868 221.942 297.878 222.002 297.869 222.061C297.86 222.12 297.833 222.175 297.791 222.217L297.512 222.461C297.644 224.499 297.777 226.53 297.909 228.54H291.063C290.938 223.515 290.589 218.19 290.149 212.949C290.107 212.419 290.065 211.882 290.017 211.351C289.274 211.331 288.539 211.194 287.839 210.946L287.497 211.484C287.482 211.509 287.46 211.53 287.435 211.545C287.409 211.559 287.38 211.567 287.351 211.568C287.329 211.568 287.307 211.564 287.286 211.556C287.266 211.547 287.247 211.535 287.232 211.519C287.198 211.47 287.179 211.411 287.179 211.351C287.179 211.291 287.198 211.233 287.232 211.184L287.476 210.8C284.273 209.467 282.2 205.964 281.07 202.649C281.042 202.673 281.008 202.687 280.972 202.691C280.933 202.689 280.896 202.674 280.867 202.649C280.825 202.607 280.797 202.553 280.787 202.494C280.777 202.435 280.786 202.374 280.812 202.321L280.902 202.132C280.686 201.434 280.511 200.771 280.379 200.136C280.312 199.823 280.263 199.506 280.232 199.187L279.911 199.097C279.878 199.085 279.848 199.067 279.822 199.043C279.797 199.019 279.776 198.99 279.762 198.958C279.749 198.926 279.742 198.891 279.742 198.856C279.742 198.821 279.75 198.786 279.765 198.755Z" fill="#EBEBEB"/>
<path d="M86.8005 49.3122C88.5119 42.0611 84.0211 34.7956 76.7701 33.0842C69.519 31.3728 62.2535 35.8636 60.5421 43.1147C58.8307 50.3657 63.3215 57.6312 70.5725 59.3426C77.8236 61.054 85.0891 56.5632 86.8005 49.3122Z" fill="#F0F0F0"/>
<path d="M175 260C249.73 260 310.311 256.463 310.311 252.1C310.311 247.737 249.73 244.2 175 244.2C100.27 244.2 39.6895 247.737 39.6895 252.1C39.6895 256.463 100.27 260 175 260Z" fill="#F5F5F5"/>
<path d="M275.864 127.425C274.468 139.435 267.35 147.558 262.151 152.004C262.067 139.582 261.837 130.405 261.362 126.762C260.078 116.845 255.737 115.107 250.789 115.107C245.716 115.107 241.633 120.188 241.717 126.378C241.522 135.311 241.801 156.498 242.241 181.873C239.294 177.416 237.463 172.315 236.902 167.001C235.611 154.439 222.344 156.715 223.223 169.723C223.921 180.324 229.002 195.209 242.582 200.771C242.876 216.529 243.197 233.055 243.483 248.729H261.627C261.837 221.24 262.172 189.961 262.179 165.738C282.243 162.947 288.789 143.762 290.666 130.712C292.69 116.698 277.469 113.795 275.864 127.425Z" fill="#008ECC"/>
<path opacity="0.2" d="M275.864 127.425C274.468 139.435 267.35 147.558 262.151 152.004C262.067 139.582 261.837 130.405 261.362 126.762C260.078 116.845 255.737 115.107 250.789 115.107C245.716 115.107 241.633 120.188 241.717 126.378C241.522 135.311 241.801 156.498 242.241 181.873C239.294 177.416 237.463 172.315 236.902 167.001C235.611 154.439 222.344 156.715 223.223 169.723C223.921 180.324 229.002 195.209 242.582 200.771C242.876 216.529 243.197 233.055 243.483 248.729H261.627C261.837 221.24 262.172 189.961 262.179 165.738C282.243 162.947 288.789 143.762 290.666 130.712C292.69 116.698 277.469 113.795 275.864 127.425Z" fill="white"/>
<path d="M257.572 165.64C258.521 167.629 261.062 169.36 262.178 170.072C262.178 168.597 262.178 167.152 262.178 165.738C260.643 165.833 259.102 165.8 257.572 165.64Z" fill="#008ECC"/>
<path d="M242.582 200.771C242.624 202.897 242.666 205.04 242.708 207.199C243.552 206.375 246.895 203.207 247.963 200.918C246.183 201.296 244.339 201.246 242.582 200.771Z" fill="#008ECC"/>
<path d="M244.033 126.72C243.954 126.719 243.878 126.692 243.816 126.643L242.232 125.38C242.161 125.32 242.116 125.235 242.106 125.143C242.095 125.051 242.121 124.959 242.176 124.884C242.236 124.813 242.322 124.768 242.414 124.759C242.507 124.75 242.599 124.777 242.672 124.836L244.249 126.099C244.286 126.127 244.316 126.162 244.339 126.202C244.361 126.242 244.375 126.286 244.381 126.331C244.386 126.377 244.382 126.423 244.369 126.467C244.356 126.511 244.334 126.552 244.305 126.587C244.272 126.628 244.23 126.66 244.183 126.683C244.136 126.706 244.085 126.719 244.033 126.72Z" fill="#008ECC"/>
<path d="M256.653 118.548C256.595 118.547 256.538 118.533 256.486 118.506C256.405 118.46 256.346 118.385 256.321 118.296C256.297 118.207 256.308 118.112 256.353 118.031L257.163 116.587C257.184 116.544 257.213 116.506 257.249 116.476C257.285 116.445 257.327 116.422 257.373 116.408C257.418 116.394 257.466 116.389 257.513 116.394C257.56 116.399 257.606 116.414 257.647 116.437C257.688 116.46 257.724 116.492 257.753 116.529C257.782 116.567 257.803 116.61 257.814 116.656C257.826 116.702 257.828 116.75 257.82 116.797C257.813 116.844 257.795 116.889 257.77 116.929L256.96 118.373C256.929 118.427 256.885 118.472 256.831 118.502C256.777 118.533 256.715 118.549 256.653 118.548Z" fill="#008ECC"/>
<path d="M249.986 125.045C249.927 125.053 249.867 125.046 249.812 125.024C249.757 125.002 249.709 124.966 249.672 124.919L248.974 123.879C248.948 123.842 248.93 123.799 248.921 123.754C248.912 123.709 248.912 123.663 248.921 123.618C248.93 123.573 248.948 123.53 248.974 123.493C249 123.455 249.033 123.423 249.072 123.398C249.149 123.347 249.242 123.329 249.333 123.348C249.423 123.366 249.502 123.419 249.553 123.496L250.251 124.535C250.302 124.612 250.32 124.706 250.301 124.796C250.283 124.886 250.23 124.966 250.153 125.017C250.101 125.04 250.043 125.05 249.986 125.045Z" fill="#008ECC"/>
<path d="M245.703 117.829C245.617 117.829 245.535 117.797 245.472 117.738L244.439 116.838C244.382 116.775 244.35 116.693 244.35 116.608C244.349 116.523 244.379 116.44 244.435 116.376C244.491 116.311 244.568 116.27 244.652 116.259C244.737 116.247 244.822 116.267 244.893 116.315L245.933 117.215C246.002 117.277 246.045 117.363 246.051 117.456C246.058 117.548 246.028 117.64 245.968 117.71C245.934 117.747 245.893 117.777 245.848 117.797C245.802 117.818 245.753 117.829 245.703 117.829Z" fill="#008ECC"/>
<path d="M258.878 131.773C258.796 131.771 258.717 131.742 258.655 131.689C258.619 131.66 258.59 131.624 258.569 131.584C258.547 131.543 258.534 131.499 258.531 131.453C258.527 131.408 258.532 131.362 258.546 131.319C258.56 131.275 258.583 131.235 258.613 131.2L259.562 130.07C259.624 130.011 259.706 129.977 259.792 129.975C259.877 129.972 259.961 130.001 260.026 130.056C260.092 130.112 260.135 130.189 260.147 130.274C260.159 130.359 260.14 130.445 260.092 130.516L259.15 131.647C259.117 131.687 259.075 131.719 259.028 131.741C258.981 131.762 258.93 131.773 258.878 131.773Z" fill="#008ECC"/>
<path d="M250.37 140.028C250.298 140.029 250.227 140.007 250.168 139.966L249.219 139.268C249.181 139.241 249.149 139.208 249.124 139.169C249.1 139.13 249.083 139.086 249.075 139.041C249.068 138.996 249.069 138.949 249.079 138.904C249.089 138.859 249.108 138.817 249.135 138.779C249.191 138.706 249.273 138.657 249.364 138.642C249.455 138.628 249.548 138.65 249.624 138.703L250.573 139.4C250.646 139.455 250.695 139.536 250.709 139.626C250.724 139.715 250.702 139.808 250.65 139.882C250.619 139.927 250.577 139.965 250.528 139.99C250.48 140.016 250.425 140.029 250.37 140.028Z" fill="#008ECC"/>
<path d="M248.904 133.294C248.828 133.294 248.755 133.27 248.694 133.224L247.341 132.184C247.301 132.158 247.268 132.123 247.242 132.083C247.216 132.043 247.199 131.998 247.192 131.951C247.184 131.904 247.187 131.855 247.198 131.809C247.21 131.763 247.231 131.72 247.26 131.682C247.289 131.644 247.326 131.613 247.368 131.59C247.409 131.567 247.455 131.553 247.503 131.548C247.55 131.544 247.598 131.549 247.643 131.563C247.689 131.578 247.73 131.602 247.766 131.633L249.12 132.673C249.176 132.718 249.217 132.779 249.237 132.849C249.257 132.918 249.255 132.992 249.231 133.06C249.208 133.128 249.163 133.187 249.105 133.229C249.046 133.271 248.976 133.293 248.904 133.294Z" fill="#008ECC"/>
<path d="M242.406 144.767C242.358 144.768 242.309 144.758 242.265 144.739C242.22 144.719 242.181 144.691 242.148 144.655L240.654 142.98C240.59 142.915 240.555 142.827 240.555 142.736C240.555 142.645 240.59 142.557 240.654 142.492C240.687 142.459 240.725 142.433 240.768 142.415C240.811 142.398 240.856 142.388 240.902 142.388C240.948 142.388 240.994 142.398 241.036 142.415C241.079 142.433 241.117 142.459 241.15 142.492L242.636 144.16C242.684 144.209 242.715 144.271 242.727 144.338C242.739 144.405 242.73 144.474 242.703 144.536C242.675 144.599 242.629 144.651 242.571 144.687C242.514 144.723 242.446 144.741 242.378 144.739L242.406 144.767Z" fill="#008ECC"/>
<path d="M261.137 143.936C261.055 143.937 260.975 143.908 260.914 143.853C260.843 143.794 260.798 143.71 260.789 143.618C260.78 143.527 260.807 143.436 260.865 143.364L262.4 141.536C262.43 141.5 262.465 141.471 262.506 141.45C262.547 141.429 262.591 141.415 262.637 141.411C262.682 141.407 262.729 141.412 262.772 141.425C262.816 141.439 262.857 141.461 262.892 141.49C262.927 141.52 262.957 141.556 262.978 141.596C262.999 141.637 263.013 141.681 263.017 141.727C263.021 141.773 263.016 141.819 263.003 141.863C262.989 141.906 262.967 141.947 262.938 141.982L261.402 143.811C261.37 143.85 261.33 143.882 261.284 143.903C261.238 143.925 261.188 143.936 261.137 143.936Z" fill="#008ECC"/>
<path d="M257.524 125.617C257.444 125.62 257.367 125.592 257.307 125.54C257.271 125.512 257.242 125.477 257.22 125.436C257.198 125.396 257.184 125.352 257.179 125.306C257.175 125.261 257.18 125.215 257.193 125.171C257.207 125.127 257.229 125.087 257.258 125.052L258.159 123.942C258.217 123.871 258.301 123.827 258.393 123.817C258.484 123.808 258.576 123.836 258.647 123.893C258.683 123.923 258.713 123.958 258.735 123.999C258.757 124.04 258.771 124.085 258.776 124.131C258.78 124.177 258.775 124.224 258.762 124.268C258.748 124.312 258.726 124.353 258.696 124.389L257.796 125.492C257.763 125.531 257.721 125.563 257.674 125.585C257.627 125.607 257.575 125.618 257.524 125.617Z" fill="#008ECC"/>
<path d="M265.724 149.415C265.631 149.415 265.543 149.378 265.477 149.312C265.412 149.247 265.375 149.158 265.375 149.066V147.53C265.375 147.438 265.412 147.349 265.477 147.284C265.543 147.218 265.631 147.181 265.724 147.181C265.816 147.183 265.904 147.221 265.969 147.286C266.034 147.351 266.071 147.438 266.073 147.53V149.066C266.073 149.158 266.036 149.247 265.971 149.312C265.905 149.378 265.816 149.415 265.724 149.415Z" fill="#008ECC"/>
<path d="M272.235 142.108C272.186 142.107 272.138 142.096 272.093 142.075C272.049 142.055 272.009 142.026 271.976 141.989L270.49 140.321C270.457 140.289 270.431 140.25 270.414 140.208C270.396 140.165 270.387 140.12 270.387 140.074C270.387 140.027 270.396 139.982 270.414 139.939C270.431 139.897 270.457 139.858 270.49 139.826C270.555 139.762 270.643 139.726 270.734 139.726C270.826 139.726 270.913 139.762 270.978 139.826L272.472 141.494C272.536 141.56 272.572 141.649 272.572 141.741C272.572 141.834 272.536 141.923 272.472 141.989C272.412 142.058 272.326 142.101 272.235 142.108Z" fill="#008ECC"/>
<path d="M287.447 125.617C287.386 125.618 287.325 125.601 287.273 125.568C287.193 125.523 287.133 125.447 287.109 125.359C287.084 125.27 287.095 125.174 287.14 125.094L288.055 123.524C288.1 123.443 288.175 123.384 288.264 123.359C288.353 123.334 288.449 123.346 288.529 123.391C288.608 123.438 288.666 123.514 288.689 123.602C288.713 123.691 288.701 123.786 288.655 123.866L287.754 125.45C287.723 125.502 287.677 125.545 287.623 125.575C287.57 125.604 287.509 125.619 287.447 125.617Z" fill="#008ECC"/>
<path d="M278.418 122.477C278.349 122.476 278.282 122.455 278.225 122.416C278.168 122.378 278.124 122.324 278.097 122.26L277.148 119.909C277.114 119.823 277.115 119.726 277.152 119.641C277.188 119.556 277.257 119.489 277.343 119.455C277.429 119.421 277.525 119.422 277.61 119.459C277.696 119.495 277.763 119.564 277.797 119.65L278.746 121.995C278.763 122.038 278.771 122.083 278.771 122.129C278.77 122.175 278.76 122.221 278.742 122.263C278.724 122.305 278.698 122.343 278.665 122.375C278.632 122.407 278.593 122.432 278.551 122.449C278.509 122.469 278.464 122.478 278.418 122.477Z" fill="#008ECC"/>
<path d="M284.963 120.216C284.919 120.222 284.874 120.222 284.83 120.216C284.787 120.198 284.748 120.172 284.715 120.139C284.683 120.107 284.657 120.068 284.639 120.025C284.622 119.982 284.613 119.936 284.613 119.89C284.614 119.843 284.623 119.798 284.642 119.755L285.339 118.129C285.357 118.087 285.383 118.049 285.415 118.017C285.447 117.985 285.486 117.96 285.528 117.943C285.57 117.926 285.616 117.918 285.661 117.919C285.707 117.919 285.751 117.929 285.793 117.948C285.836 117.964 285.875 117.99 285.907 118.022C285.94 118.054 285.966 118.092 285.983 118.134C286.001 118.177 286.01 118.222 286.01 118.268C286.009 118.314 286 118.359 285.982 118.401L285.263 120.034C285.234 120.089 285.191 120.134 285.138 120.166C285.085 120.198 285.024 120.215 284.963 120.216Z" fill="#008ECC"/>
<path d="M281.984 138.542C281.928 138.541 281.873 138.527 281.823 138.502C281.774 138.477 281.731 138.44 281.697 138.395C281.671 138.357 281.652 138.315 281.643 138.269C281.633 138.224 281.632 138.178 281.641 138.132C281.649 138.087 281.666 138.043 281.692 138.005C281.717 137.966 281.75 137.933 281.788 137.907L283.275 136.867C283.312 136.838 283.355 136.817 283.401 136.805C283.447 136.793 283.494 136.791 283.541 136.798C283.588 136.805 283.633 136.822 283.673 136.847C283.713 136.872 283.748 136.905 283.775 136.944C283.802 136.983 283.821 137.027 283.83 137.073C283.84 137.119 283.84 137.167 283.83 137.213C283.821 137.26 283.802 137.304 283.774 137.343C283.747 137.381 283.713 137.414 283.672 137.439L282.186 138.479C282.126 138.52 282.056 138.542 281.984 138.542Z" fill="#008ECC"/>
<path d="M278.6 131.458C278.53 131.459 278.461 131.437 278.404 131.397C278.347 131.357 278.303 131.301 278.278 131.235L277.825 130.112C277.79 130.026 277.79 129.929 277.826 129.843C277.862 129.758 277.931 129.69 278.017 129.654C278.103 129.619 278.199 129.62 278.285 129.656C278.371 129.692 278.439 129.76 278.474 129.846L278.928 130.977C278.96 131.063 278.958 131.159 278.921 131.243C278.885 131.328 278.817 131.395 278.732 131.431C278.691 131.45 278.645 131.459 278.6 131.458Z" fill="#008ECC"/>
<path d="M285.305 147.88C285.24 147.882 285.176 147.866 285.12 147.832C285.064 147.799 285.019 147.75 284.991 147.691C284.969 147.651 284.956 147.606 284.952 147.56C284.949 147.515 284.954 147.468 284.968 147.425C284.983 147.381 285.006 147.341 285.036 147.306C285.066 147.272 285.103 147.244 285.144 147.224L286.296 146.637C286.336 146.616 286.381 146.603 286.427 146.599C286.472 146.595 286.519 146.601 286.562 146.615C286.606 146.629 286.646 146.652 286.681 146.682C286.715 146.713 286.743 146.75 286.763 146.791C286.805 146.873 286.812 146.969 286.783 147.056C286.754 147.144 286.692 147.217 286.61 147.259L285.458 147.845C285.411 147.87 285.358 147.882 285.305 147.88Z" fill="#008ECC"/>
<path d="M273.952 154.879C273.859 154.89 273.766 154.864 273.693 154.807C273.62 154.749 273.572 154.665 273.561 154.572C273.55 154.48 273.576 154.387 273.634 154.313C273.691 154.24 273.776 154.193 273.868 154.181L275.082 153.867C275.128 153.856 275.176 153.854 275.223 153.861C275.269 153.867 275.314 153.884 275.355 153.908C275.395 153.932 275.431 153.964 275.459 154.002C275.487 154.04 275.507 154.083 275.519 154.129C275.53 154.175 275.532 154.223 275.525 154.269C275.518 154.316 275.502 154.361 275.478 154.401C275.454 154.442 275.422 154.477 275.384 154.505C275.346 154.533 275.303 154.554 275.257 154.565L274.043 154.879H273.952Z" fill="#008ECC"/>
<path d="M274.132 149.596C274.04 149.602 273.949 149.57 273.879 149.509C273.81 149.447 273.768 149.361 273.762 149.268C273.757 149.176 273.788 149.085 273.85 149.015C273.911 148.946 273.998 148.904 274.09 148.898L275.577 148.717C275.623 148.711 275.669 148.715 275.714 148.727C275.758 148.74 275.8 148.761 275.836 148.789C275.872 148.818 275.902 148.853 275.925 148.894C275.948 148.934 275.962 148.978 275.968 149.024C275.973 149.07 275.97 149.116 275.957 149.161C275.945 149.205 275.924 149.247 275.895 149.283C275.867 149.319 275.831 149.35 275.791 149.372C275.751 149.395 275.706 149.409 275.661 149.415L274.174 149.596H274.132Z" fill="#008ECC"/>
<path d="M268.515 164.524H268.431L266.589 164.084C266.499 164.059 266.423 164.002 266.375 163.922C266.327 163.843 266.311 163.749 266.33 163.658C266.353 163.568 266.411 163.491 266.49 163.442C266.57 163.394 266.665 163.379 266.756 163.4L268.598 163.847C268.688 163.868 268.765 163.924 268.814 164.003C268.862 164.081 268.878 164.176 268.857 164.265C268.836 164.34 268.792 164.407 268.73 164.453C268.668 164.5 268.592 164.525 268.515 164.524Z" fill="#008ECC"/>
<path d="M266.052 159.074C265.994 159.074 265.937 159.06 265.885 159.033C265.834 159.006 265.791 158.965 265.759 158.917C265.728 158.868 265.71 158.812 265.706 158.754C265.702 158.696 265.713 158.638 265.738 158.585L266.548 156.778C266.587 156.695 266.657 156.63 266.743 156.598C266.829 156.565 266.924 156.567 267.008 156.603C267.05 156.621 267.089 156.648 267.121 156.681C267.153 156.714 267.178 156.753 267.195 156.796C267.212 156.838 267.22 156.884 267.219 156.93C267.218 156.976 267.208 157.022 267.19 157.064L266.373 158.871C266.345 158.932 266.3 158.984 266.243 159.02C266.186 159.056 266.119 159.074 266.052 159.074Z" fill="#008ECC"/>
<path d="M289.612 132.743C289.556 132.743 289.5 132.729 289.45 132.702C289.4 132.675 289.358 132.636 289.326 132.589C289.3 132.551 289.281 132.508 289.272 132.463C289.262 132.418 289.261 132.371 289.27 132.326C289.278 132.28 289.295 132.237 289.321 132.198C289.346 132.16 289.379 132.126 289.417 132.1L290.659 131.27C290.736 131.218 290.83 131.199 290.921 131.217C291.012 131.234 291.092 131.287 291.144 131.364C291.196 131.441 291.215 131.535 291.198 131.626C291.18 131.717 291.127 131.797 291.05 131.849L289.808 132.68C289.751 132.72 289.683 132.742 289.612 132.743Z" fill="#008ECC"/>
<path d="M278.983 144.544C278.892 144.542 278.805 144.506 278.74 144.442C278.676 144.379 278.637 144.293 278.634 144.202L278.592 141.948C278.59 141.902 278.598 141.856 278.614 141.812C278.63 141.769 278.655 141.73 278.687 141.697C278.719 141.664 278.757 141.637 278.8 141.619C278.842 141.601 278.888 141.592 278.934 141.592C278.98 141.591 279.025 141.599 279.068 141.616C279.111 141.632 279.15 141.657 279.183 141.689C279.216 141.721 279.242 141.759 279.261 141.801C279.279 141.843 279.289 141.888 279.29 141.934L279.332 144.188C279.333 144.234 279.325 144.279 279.308 144.322C279.291 144.365 279.266 144.404 279.235 144.437C279.203 144.47 279.165 144.496 279.123 144.515C279.081 144.533 279.036 144.543 278.99 144.544H278.983Z" fill="#008ECC"/>
<path d="M242.046 152.136C241.968 152.137 241.893 152.112 241.83 152.067L240.602 151.055C240.53 150.997 240.483 150.913 240.473 150.822C240.463 150.73 240.489 150.639 240.546 150.566C240.574 150.53 240.609 150.499 240.649 150.477C240.688 150.454 240.733 150.44 240.778 150.435C240.824 150.429 240.87 150.434 240.914 150.447C240.958 150.46 240.999 150.481 241.034 150.51L242.297 151.501C242.354 151.546 242.394 151.608 242.414 151.677C242.434 151.746 242.432 151.82 242.409 151.888C242.385 151.956 242.341 152.015 242.282 152.057C242.223 152.099 242.153 152.122 242.081 152.122L242.046 152.136Z" fill="#008ECC"/>
<path d="M249.671 155.912C249.623 155.913 249.575 155.903 249.53 155.884C249.486 155.865 249.446 155.836 249.413 155.8L248.017 154.223C247.985 154.191 247.959 154.152 247.941 154.11C247.923 154.067 247.914 154.021 247.914 153.975C247.914 153.929 247.923 153.884 247.941 153.841C247.959 153.799 247.985 153.76 248.017 153.728C248.049 153.695 248.087 153.669 248.129 153.652C248.171 153.634 248.216 153.625 248.262 153.625C248.307 153.625 248.352 153.634 248.394 153.652C248.436 153.669 248.474 153.695 248.506 153.728L249.902 155.305C249.949 155.354 249.98 155.416 249.992 155.483C250.004 155.55 249.996 155.619 249.968 155.682C249.94 155.744 249.894 155.796 249.837 155.832C249.779 155.868 249.711 155.886 249.643 155.884L249.671 155.912Z" fill="#008ECC"/>
<path d="M254.866 149.505C254.807 149.506 254.75 149.491 254.698 149.464C254.658 149.442 254.622 149.412 254.593 149.376C254.564 149.341 254.543 149.299 254.53 149.255C254.517 149.211 254.513 149.165 254.518 149.119C254.523 149.074 254.537 149.029 254.559 148.989L255.459 147.363C255.504 147.282 255.58 147.221 255.67 147.196C255.759 147.17 255.855 147.182 255.937 147.227C256.018 147.272 256.078 147.348 256.104 147.438C256.129 147.527 256.118 147.623 256.073 147.705L255.173 149.345C255.139 149.395 255.093 149.436 255.04 149.464C254.986 149.492 254.926 149.506 254.866 149.505Z" fill="#008ECC"/>
<path d="M242.903 167.064C242.849 167.064 242.795 167.051 242.747 167.027C242.699 167.002 242.657 166.967 242.624 166.924L241.137 164.984C241.106 164.949 241.082 164.907 241.068 164.861C241.053 164.816 241.048 164.768 241.052 164.721C241.057 164.673 241.071 164.627 241.094 164.586C241.117 164.544 241.149 164.507 241.186 164.478C241.224 164.449 241.267 164.428 241.314 164.416C241.36 164.405 241.408 164.402 241.455 164.41C241.502 164.417 241.547 164.435 241.587 164.46C241.627 164.486 241.662 164.519 241.689 164.559L243.182 166.499C243.211 166.535 243.232 166.576 243.244 166.62C243.257 166.664 243.26 166.711 243.254 166.756C243.249 166.802 243.234 166.846 243.21 166.886C243.187 166.925 243.156 166.96 243.119 166.987C243.057 167.036 242.981 167.063 242.903 167.064Z" fill="#008ECC"/>
<path d="M246.184 164.308C246.105 164.307 246.029 164.28 245.967 164.231C245.894 164.174 245.847 164.091 245.835 163.999C245.823 163.908 245.848 163.815 245.904 163.742L246.672 162.751C246.73 162.679 246.813 162.633 246.905 162.623C246.996 162.612 247.088 162.638 247.161 162.695C247.197 162.723 247.228 162.757 247.252 162.797C247.275 162.837 247.29 162.881 247.296 162.926C247.302 162.972 247.298 163.018 247.286 163.063C247.273 163.107 247.252 163.148 247.223 163.184L246.456 164.168C246.424 164.211 246.383 164.246 246.336 164.27C246.289 164.294 246.237 164.307 246.184 164.308Z" fill="#008ECC"/>
<path d="M259.877 164.308C259.82 164.306 259.765 164.291 259.716 164.265C259.666 164.238 259.623 164.2 259.591 164.154C259.539 164.078 259.52 163.985 259.537 163.895C259.554 163.804 259.606 163.725 259.681 163.672L260.847 162.863C260.923 162.811 261.017 162.79 261.108 162.806C261.199 162.821 261.281 162.872 261.335 162.947C261.362 162.985 261.38 163.027 261.39 163.073C261.4 163.118 261.401 163.164 261.392 163.21C261.384 163.255 261.366 163.299 261.341 163.337C261.316 163.376 261.283 163.409 261.245 163.435L260.079 164.245C260.019 164.285 259.949 164.307 259.877 164.308Z" fill="#008ECC"/>
<path d="M260.46 176.311C260.403 176.31 260.346 176.296 260.295 176.269C260.244 176.243 260.2 176.204 260.167 176.157C260.142 176.119 260.124 176.076 260.115 176.031C260.107 175.986 260.107 175.939 260.117 175.894C260.127 175.849 260.146 175.807 260.172 175.769C260.199 175.732 260.233 175.7 260.272 175.676L262.254 174.364C262.331 174.313 262.425 174.295 262.515 174.313C262.605 174.332 262.684 174.385 262.735 174.461C262.786 174.539 262.805 174.634 262.786 174.726C262.768 174.817 262.715 174.897 262.638 174.95L260.656 176.255C260.598 176.293 260.53 176.313 260.46 176.311Z" fill="#008ECC"/>
<path d="M242.539 176.046C242.476 176.045 242.414 176.027 242.359 175.994C242.305 175.961 242.261 175.913 242.232 175.857L241.604 174.636C241.576 174.595 241.557 174.549 241.548 174.5C241.54 174.452 241.541 174.402 241.553 174.354C241.565 174.306 241.587 174.262 241.618 174.223C241.648 174.184 241.687 174.152 241.73 174.129C241.774 174.107 241.822 174.093 241.871 174.09C241.92 174.087 241.97 174.095 242.016 174.113C242.062 174.13 242.104 174.157 242.139 174.192C242.174 174.227 242.201 174.269 242.218 174.315L242.853 175.536C242.875 175.577 242.888 175.621 242.892 175.667C242.895 175.713 242.89 175.759 242.876 175.802C242.861 175.846 242.838 175.886 242.808 175.921C242.778 175.956 242.741 175.984 242.7 176.004C242.651 176.031 242.595 176.046 242.539 176.046Z" fill="#008ECC"/>
<path d="M248.722 177.4C248.675 177.4 248.628 177.39 248.585 177.371C248.541 177.351 248.503 177.323 248.471 177.288L247.075 175.843C247.043 175.811 247.017 175.773 246.999 175.732C246.982 175.69 246.973 175.645 246.973 175.599C246.973 175.554 246.982 175.509 246.999 175.467C247.017 175.425 247.043 175.387 247.075 175.355C247.108 175.322 247.146 175.296 247.189 175.278C247.231 175.261 247.277 175.252 247.323 175.252C247.369 175.252 247.415 175.261 247.457 175.278C247.5 175.296 247.538 175.322 247.571 175.355L248.967 176.799C248.999 176.832 249.025 176.87 249.043 176.913C249.061 176.955 249.07 177.001 249.07 177.047C249.07 177.093 249.061 177.139 249.043 177.181C249.025 177.224 248.999 177.262 248.967 177.295C248.901 177.359 248.814 177.397 248.722 177.4Z" fill="#008ECC"/>
<path d="M253.858 173.512C253.804 173.515 253.751 173.503 253.704 173.477C253.663 173.459 253.625 173.432 253.594 173.398C253.563 173.364 253.54 173.325 253.525 173.282C253.509 173.239 253.503 173.193 253.507 173.147C253.51 173.102 253.523 173.057 253.544 173.017L254.486 171.07C254.528 170.988 254.6 170.925 254.687 170.895C254.774 170.865 254.87 170.87 254.953 170.909C255.036 170.951 255.098 171.023 255.128 171.111C255.158 171.198 255.153 171.293 255.114 171.377L254.165 173.317C254.138 173.376 254.095 173.425 254.04 173.46C253.986 173.495 253.922 173.513 253.858 173.512Z" fill="#008ECC"/>
<path d="M234.417 163.044H234.32C234.275 163.034 234.232 163.016 234.195 162.989C234.157 162.963 234.126 162.929 234.102 162.89C234.078 162.851 234.062 162.807 234.055 162.762C234.048 162.716 234.05 162.67 234.061 162.626L234.599 160.323C234.609 160.277 234.629 160.233 234.656 160.195C234.683 160.157 234.718 160.124 234.758 160.099C234.798 160.074 234.842 160.057 234.888 160.05C234.935 160.042 234.982 160.043 235.028 160.054C235.074 160.064 235.117 160.084 235.155 160.111C235.194 160.138 235.226 160.173 235.251 160.213C235.276 160.253 235.293 160.297 235.301 160.343C235.309 160.39 235.307 160.437 235.297 160.483L234.752 162.786C234.734 162.86 234.69 162.926 234.63 162.973C234.569 163.02 234.494 163.045 234.417 163.044Z" fill="#008ECC"/>
<path d="M225.03 166.094C224.966 166.092 224.903 166.073 224.849 166.038L222.755 164.705C222.71 164.684 222.671 164.653 222.639 164.616C222.607 164.578 222.584 164.534 222.57 164.487C222.557 164.44 222.553 164.39 222.56 164.341C222.567 164.293 222.584 164.246 222.61 164.204C222.637 164.163 222.672 164.127 222.713 164.1C222.754 164.072 222.8 164.054 222.848 164.046C222.897 164.038 222.947 164.04 222.994 164.053C223.042 164.065 223.086 164.088 223.125 164.119L225.218 165.445C225.296 165.495 225.351 165.573 225.371 165.663C225.392 165.753 225.377 165.847 225.33 165.926C225.298 165.977 225.253 166.019 225.201 166.048C225.149 166.077 225.09 166.093 225.03 166.094Z" fill="#008ECC"/>
<path d="M225.847 179.472C225.78 179.473 225.715 179.454 225.659 179.416L223.789 178.244C223.749 178.22 223.714 178.189 223.687 178.152C223.66 178.114 223.64 178.072 223.63 178.027C223.619 177.982 223.618 177.935 223.626 177.89C223.634 177.844 223.652 177.801 223.677 177.762C223.727 177.685 223.806 177.63 223.896 177.611C223.986 177.591 224.081 177.608 224.159 177.658L226.029 178.83C226.092 178.871 226.14 178.93 226.166 179C226.192 179.07 226.196 179.146 226.175 179.218C226.155 179.29 226.112 179.354 226.053 179.399C225.994 179.445 225.922 179.471 225.847 179.472Z" fill="#008ECC"/>
<path d="M231.08 178.572C230.988 178.565 230.903 178.522 230.842 178.453C230.78 178.384 230.748 178.294 230.752 178.202L230.843 176.625C230.848 176.532 230.889 176.445 230.958 176.383C231.026 176.321 231.117 176.289 231.209 176.293C231.302 176.298 231.389 176.339 231.451 176.408C231.513 176.477 231.545 176.567 231.541 176.66L231.45 178.244C231.443 178.336 231.4 178.421 231.331 178.483C231.262 178.544 231.172 178.576 231.08 178.572Z" fill="#008ECC"/>
<path d="M237.667 184.434C237.575 184.434 237.486 184.397 237.421 184.332C237.355 184.267 237.318 184.178 237.318 184.085V182.508C237.318 182.416 237.355 182.327 237.421 182.261C237.486 182.196 237.575 182.159 237.667 182.159C237.76 182.159 237.849 182.196 237.914 182.261C237.979 182.327 238.016 182.416 238.016 182.508V184.085C238.016 184.178 237.979 184.267 237.914 184.332C237.849 184.397 237.76 184.434 237.667 184.434Z" fill="#008ECC"/>
<path d="M235.275 191.566H235.212L233.314 191.21C233.268 191.202 233.225 191.184 233.186 191.158C233.147 191.133 233.113 191.1 233.087 191.061C233.061 191.023 233.042 190.979 233.033 190.934C233.023 190.888 233.023 190.841 233.032 190.795C233.04 190.749 233.058 190.706 233.084 190.667C233.109 190.628 233.142 190.594 233.181 190.568C233.219 190.542 233.263 190.523 233.308 190.514C233.354 190.504 233.401 190.504 233.447 190.513L235.345 190.875C235.39 190.883 235.433 190.899 235.472 190.924C235.51 190.949 235.543 190.981 235.569 191.019C235.594 191.057 235.612 191.1 235.62 191.145C235.628 191.19 235.627 191.236 235.617 191.28C235.604 191.361 235.562 191.434 235.499 191.487C235.437 191.539 235.357 191.567 235.275 191.566Z" fill="#008ECC"/>
<path d="M234.062 171.168H233.999C233.909 171.152 233.828 171.102 233.775 171.027C233.721 170.953 233.699 170.86 233.713 170.77L233.985 169.235C233.993 169.189 234.009 169.146 234.034 169.107C234.058 169.068 234.09 169.034 234.128 169.007C234.166 168.981 234.208 168.962 234.253 168.952C234.298 168.941 234.345 168.94 234.39 168.948C234.481 168.965 234.562 169.017 234.615 169.093C234.669 169.168 234.691 169.262 234.676 169.353L234.404 170.889C234.389 170.968 234.347 171.04 234.284 171.091C234.222 171.142 234.143 171.169 234.062 171.168Z" fill="#008ECC"/>
<path d="M256.128 187.1C256.064 187.094 256.004 187.07 255.954 187.03C255.916 187.005 255.883 186.972 255.858 186.934C255.832 186.896 255.815 186.853 255.807 186.809C255.798 186.764 255.799 186.718 255.809 186.673C255.818 186.628 255.837 186.586 255.863 186.549L257.035 184.832C257.058 184.788 257.09 184.75 257.129 184.719C257.167 184.689 257.212 184.667 257.26 184.655C257.308 184.643 257.358 184.641 257.406 184.65C257.455 184.658 257.501 184.677 257.542 184.705C257.582 184.733 257.617 184.769 257.642 184.811C257.668 184.853 257.685 184.9 257.691 184.949C257.697 184.998 257.693 185.048 257.679 185.095C257.664 185.142 257.64 185.186 257.608 185.223L256.435 186.939C256.402 186.991 256.357 187.032 256.303 187.06C256.249 187.089 256.189 187.102 256.128 187.1Z" fill="#008ECC"/>
<path d="M261.18 194.183C261.1 194.182 261.021 194.155 260.957 194.107C260.887 194.046 260.843 193.96 260.835 193.867C260.827 193.775 260.856 193.683 260.915 193.611L262.492 191.72C262.521 191.684 262.556 191.654 262.596 191.632C262.637 191.61 262.681 191.597 262.726 191.592C262.772 191.587 262.818 191.592 262.862 191.606C262.905 191.619 262.946 191.641 262.981 191.671C263.017 191.7 263.047 191.736 263.069 191.777C263.091 191.818 263.105 191.862 263.109 191.908C263.114 191.955 263.109 192.001 263.095 192.045C263.082 192.09 263.059 192.131 263.03 192.166L261.453 194.058C261.419 194.097 261.377 194.129 261.33 194.151C261.283 194.172 261.232 194.183 261.18 194.183Z" fill="#008ECC"/>
<path d="M254.557 198.894C254.476 198.895 254.397 198.868 254.334 198.817C254.264 198.756 254.22 198.671 254.212 198.578C254.204 198.485 254.233 198.393 254.292 198.322L255.869 196.431C255.93 196.361 256.015 196.317 256.107 196.308C256.2 196.299 256.292 196.325 256.365 196.382C256.435 196.442 256.479 196.528 256.487 196.621C256.494 196.713 256.466 196.805 256.407 196.877L254.83 198.768C254.796 198.808 254.755 198.84 254.708 198.862C254.661 198.884 254.609 198.895 254.557 198.894Z" fill="#008ECC"/>
<path d="M245.339 192.153C245.271 192.153 245.205 192.133 245.148 192.096C245.091 192.059 245.046 192.006 245.018 191.943L244.258 190.185C244.233 190.142 244.218 190.095 244.213 190.046C244.208 189.998 244.213 189.948 244.228 189.902C244.244 189.855 244.268 189.812 244.301 189.776C244.334 189.74 244.375 189.711 244.419 189.691C244.464 189.671 244.513 189.661 244.562 189.661C244.611 189.662 244.659 189.672 244.704 189.693C244.749 189.713 244.789 189.742 244.821 189.779C244.854 189.816 244.878 189.859 244.893 189.906L245.66 191.664C245.679 191.706 245.689 191.752 245.69 191.798C245.691 191.844 245.682 191.89 245.665 191.932C245.649 191.975 245.623 192.014 245.591 192.047C245.559 192.08 245.521 192.107 245.479 192.125C245.435 192.143 245.387 192.153 245.339 192.153Z" fill="#008ECC"/>
<path d="M247.279 211.56C247.187 211.559 247.1 211.522 247.035 211.456L246.184 210.597C246.12 210.532 246.084 210.445 246.084 210.353C246.084 210.262 246.12 210.174 246.184 210.109C246.216 210.076 246.255 210.05 246.297 210.033C246.34 210.015 246.385 210.006 246.431 210.006C246.478 210.006 246.523 210.015 246.566 210.033C246.608 210.05 246.647 210.076 246.679 210.109L247.538 210.96C247.602 211.027 247.638 211.116 247.638 211.208C247.638 211.301 247.602 211.389 247.538 211.456C247.504 211.49 247.464 211.516 247.419 211.534C247.375 211.552 247.327 211.561 247.279 211.56Z" fill="#008ECC"/>
<path d="M256.4 210.793C256.347 210.792 256.294 210.78 256.246 210.758C256.163 210.719 256.099 210.648 256.068 210.562C256.037 210.476 256.04 210.381 256.079 210.297L256.895 208.581C256.914 208.539 256.941 208.501 256.974 208.47C257.008 208.439 257.047 208.415 257.09 208.4C257.133 208.384 257.179 208.377 257.224 208.379C257.27 208.382 257.315 208.393 257.356 208.413C257.398 208.433 257.435 208.46 257.466 208.494C257.498 208.528 257.522 208.568 257.537 208.612C257.553 208.655 257.56 208.701 257.557 208.748C257.555 208.794 257.543 208.839 257.523 208.881L256.714 210.59C256.685 210.65 256.641 210.7 256.585 210.736C256.53 210.772 256.466 210.791 256.4 210.793Z" fill="#008ECC"/>
<path d="M246.881 220.13C246.833 220.132 246.784 220.123 246.74 220.104C246.695 220.084 246.655 220.055 246.623 220.019L245.737 219.021C245.706 218.987 245.683 218.947 245.669 218.904C245.654 218.86 245.648 218.815 245.651 218.769C245.655 218.724 245.667 218.679 245.688 218.638C245.708 218.598 245.737 218.562 245.772 218.532C245.803 218.499 245.841 218.472 245.883 218.454C245.925 218.436 245.97 218.426 246.016 218.426C246.062 218.426 246.107 218.436 246.149 218.454C246.191 218.472 246.229 218.499 246.26 218.532L247.14 219.523C247.187 219.572 247.218 219.634 247.23 219.701C247.242 219.769 247.234 219.838 247.206 219.9C247.178 219.962 247.132 220.015 247.075 220.051C247.017 220.087 246.949 220.105 246.881 220.102V220.13Z" fill="#008ECC"/>
<path d="M258.746 221.442C258.688 221.443 258.63 221.428 258.579 221.401C258.498 221.355 258.439 221.28 258.413 221.191C258.387 221.103 258.396 221.008 258.439 220.926L259.444 219.132C259.488 219.051 259.563 218.991 259.652 218.964C259.741 218.938 259.837 218.948 259.919 218.993C260 219.037 260.06 219.112 260.087 219.201C260.113 219.29 260.103 219.386 260.058 219.467L259.067 221.275C259.035 221.33 258.987 221.375 258.931 221.405C258.874 221.434 258.81 221.447 258.746 221.442Z" fill="#008ECC"/>
<path d="M252.066 229.433C252.012 229.432 251.958 229.42 251.91 229.395C251.862 229.371 251.819 229.336 251.787 229.293L250.886 228.121C250.836 228.047 250.817 227.958 250.831 227.87C250.845 227.782 250.892 227.703 250.962 227.649C251.032 227.595 251.121 227.569 251.209 227.578C251.297 227.586 251.379 227.628 251.438 227.695L252.345 228.868C252.399 228.942 252.421 229.035 252.408 229.126C252.395 229.217 252.348 229.3 252.275 229.356C252.216 229.405 252.142 229.432 252.066 229.433Z" fill="#008ECC"/>
<path d="M261.363 232.225C261.288 232.224 261.215 232.203 261.153 232.162C261.079 232.106 261.03 232.024 261.017 231.932C261.004 231.84 261.028 231.747 261.083 231.673L262.207 230.138C262.263 230.064 262.345 230.015 262.436 230.001C262.527 229.987 262.62 230.008 262.696 230.061C262.733 230.088 262.764 230.122 262.788 230.161C262.812 230.201 262.828 230.244 262.835 230.29C262.843 230.335 262.841 230.381 262.83 230.426C262.819 230.471 262.799 230.513 262.772 230.55L261.642 232.085C261.609 232.128 261.567 232.163 261.518 232.187C261.47 232.211 261.417 232.224 261.363 232.225Z" fill="#008ECC"/>
<path d="M246.966 233.313C246.877 233.312 246.792 233.277 246.729 233.215L245.012 231.638C244.975 231.608 244.944 231.571 244.922 231.528C244.9 231.486 244.887 231.439 244.884 231.391C244.88 231.344 244.887 231.296 244.903 231.251C244.919 231.206 244.944 231.164 244.976 231.129C245.009 231.094 245.048 231.066 245.092 231.047C245.136 231.028 245.184 231.018 245.231 231.018C245.279 231.018 245.327 231.028 245.37 231.047C245.414 231.066 245.454 231.094 245.487 231.129L247.203 232.706C247.256 232.753 247.292 232.816 247.308 232.884C247.324 232.953 247.319 233.025 247.294 233.091C247.268 233.157 247.223 233.213 247.164 233.253C247.106 233.293 247.037 233.314 246.966 233.313Z" fill="#008ECC"/>
<path d="M252.575 237.061C252.536 237.07 252.495 237.07 252.456 237.061C252.413 237.045 252.374 237.021 252.34 236.99C252.307 236.959 252.28 236.922 252.261 236.88C252.242 236.839 252.232 236.794 252.231 236.748C252.229 236.702 252.237 236.657 252.254 236.614L252.757 235.218C252.79 235.134 252.855 235.066 252.938 235.028C253.02 234.991 253.114 234.987 253.2 235.018C253.285 235.049 253.355 235.112 253.395 235.194C253.435 235.276 253.441 235.369 253.413 235.456L252.903 236.851C252.876 236.916 252.83 236.97 252.772 237.007C252.713 237.045 252.645 237.063 252.575 237.061Z" fill="#008ECC"/>
<path d="M244.556 242.539C244.484 242.536 244.413 242.512 244.354 242.469L242.812 241.346C242.775 241.319 242.743 241.285 242.719 241.246C242.695 241.206 242.679 241.163 242.672 241.117C242.665 241.072 242.667 241.026 242.678 240.981C242.688 240.936 242.708 240.894 242.735 240.857C242.762 240.82 242.796 240.789 242.835 240.765C242.874 240.741 242.918 240.725 242.963 240.718C243.009 240.711 243.055 240.712 243.1 240.723C243.144 240.734 243.186 240.753 243.224 240.781L244.766 241.904C244.839 241.96 244.889 242.042 244.903 242.133C244.917 242.224 244.896 242.317 244.843 242.393C244.809 242.437 244.766 242.474 244.717 242.499C244.667 242.525 244.612 242.538 244.556 242.539Z" fill="#008ECC"/>
<path d="M258.611 239.224C258.552 239.224 258.495 239.21 258.443 239.182C258.362 239.135 258.303 239.059 258.278 238.969C258.254 238.879 258.265 238.782 258.311 238.701L259.469 236.677C259.515 236.596 259.592 236.538 259.681 236.513C259.771 236.489 259.867 236.502 259.947 236.548C260.028 236.594 260.087 236.67 260.111 236.76C260.135 236.85 260.123 236.945 260.076 237.026L258.918 239.05C258.887 239.103 258.842 239.148 258.788 239.179C258.734 239.209 258.673 239.225 258.611 239.224Z" fill="#008ECC"/>
<path d="M98.9294 193.102C98.0716 194.655 96.966 196.057 95.6564 197.254C95.1888 187.065 94.8678 178.99 94.7701 174.922C94.8398 171.16 90.6805 167.671 87.0934 167.671C83.5064 167.671 80.5334 168.718 79.6122 174.74C79.375 176.311 79.5564 179.57 79.9891 184.036C76.7725 180.907 74.6672 176.812 73.9943 172.375C73.0103 165.159 65.4314 166.512 66.1293 173.959C66.8272 180.742 70.7283 190.582 80.9033 192.557C81.6849 199.431 82.6759 207.673 83.5413 216.39C80.4357 214.45 75.7949 210.604 73.9804 204.17C71.9984 197.114 64.7196 199.529 66.5131 206.864C68.1811 213.661 73.5686 223.145 84.1903 223.396C84.8882 231.882 85.4674 240.578 85.5232 248.729H98.3292C97.5127 234.527 96.7241 219.558 96.096 206.654C100.283 204.616 103.305 200.792 104.994 197.463C108.106 191.392 102.14 187.33 98.9294 193.102Z" fill="#008ECC"/>
<path opacity="0.2" d="M98.9294 193.102C98.0716 194.655 96.966 196.057 95.6564 197.254C95.1888 187.065 94.8678 178.99 94.7701 174.922C94.8398 171.16 90.6805 167.671 87.0934 167.671C83.5064 167.671 80.5334 168.718 79.6122 174.74C79.375 176.311 79.5564 179.57 79.9891 184.036C76.7725 180.907 74.6672 176.812 73.9943 172.375C73.0103 165.159 65.4314 166.512 66.1293 173.959C66.8272 180.742 70.7283 190.582 80.9033 192.557C81.6849 199.431 82.6759 207.673 83.5413 216.39C80.4357 214.45 75.7949 210.604 73.9804 204.17C71.9984 197.114 64.7196 199.529 66.5131 206.864C68.1811 213.661 73.5686 223.145 84.1903 223.396C84.8882 231.882 85.4674 240.578 85.5232 248.729H98.3292C97.5127 234.527 96.7241 219.558 96.096 206.654C100.283 204.616 103.305 200.792 104.994 197.463C108.106 191.392 102.14 187.33 98.9294 193.102Z" fill="white"/>
<path d="M80.9258 192.557C81.0095 193.255 81.0863 193.953 81.177 194.651C82.4752 193.976 83.6946 193.159 84.8129 192.215C83.5583 192.614 82.2309 192.731 80.9258 192.557Z" fill="#008ECC"/>
<path d="M96.1402 206.655C94.9015 206.986 93.6043 207.036 92.3438 206.801C92.3438 206.801 94.8491 208.581 96.2518 208.895C96.203 208.162 96.1402 207.401 96.1402 206.655Z" fill="#008ECC"/>
<path d="M84.4075 225.755C85.5938 225.329 87.7642 222.726 87.8968 222.559C86.734 223.08 85.479 223.365 84.2051 223.396C84.2749 224.178 84.3447 224.966 84.4075 225.755Z" fill="#008ECC"/>
<path d="M80.7377 175.864C80.6591 175.863 80.583 175.836 80.5214 175.788L79.1675 174.699C79.1273 174.672 79.093 174.637 79.0669 174.597C79.0408 174.556 79.0235 174.51 79.016 174.463C79.0085 174.415 79.0109 174.366 79.0232 174.319C79.0356 174.273 79.0574 174.229 79.0875 174.191C79.1176 174.153 79.1552 174.122 79.1979 174.1C79.2406 174.077 79.2876 174.064 79.3358 174.06C79.384 174.057 79.4324 174.063 79.4779 174.08C79.5234 174.096 79.565 174.121 79.6002 174.154L80.9959 175.243C81.0526 175.289 81.0937 175.351 81.1134 175.421C81.1332 175.491 81.1306 175.565 81.106 175.633C81.0814 175.702 81.036 175.761 80.9763 175.802C80.9165 175.844 80.8453 175.865 80.7726 175.864H80.7377Z" fill="#008ECC"/>
<path d="M91.5954 170.442C91.5348 170.441 91.4751 170.427 91.4209 170.4C91.3419 170.353 91.2839 170.278 91.2592 170.189C91.2345 170.101 91.2449 170.006 91.2883 169.925L91.9862 168.683C92.0315 168.602 92.1074 168.542 92.197 168.516C92.2867 168.491 92.3828 168.502 92.4642 168.547C92.5457 168.592 92.6058 168.668 92.6313 168.758C92.6568 168.848 92.6457 168.944 92.6003 169.025L91.9024 170.267C91.8704 170.32 91.8253 170.364 91.7716 170.395C91.7178 170.425 91.6572 170.441 91.5954 170.442Z" fill="#008ECC"/>
<path d="M86.4756 174.936C86.4179 174.937 86.3609 174.923 86.3097 174.896C86.2586 174.869 86.2149 174.83 86.1825 174.782L85.5963 173.889C85.5711 173.851 85.5537 173.808 85.5452 173.762C85.5366 173.717 85.537 173.671 85.5464 173.626C85.5558 173.581 85.574 173.538 85.5999 173.5C85.6259 173.462 85.659 173.429 85.6975 173.404C85.736 173.379 85.7791 173.362 85.8243 173.353C85.8695 173.344 85.9159 173.345 85.961 173.354C86.006 173.364 86.0487 173.382 86.0868 173.408C86.1248 173.434 86.1573 173.467 86.1825 173.505L86.7618 174.399C86.8123 174.475 86.8303 174.569 86.812 174.659C86.7937 174.75 86.7405 174.829 86.664 174.88C86.6084 174.918 86.5427 174.937 86.4756 174.936Z" fill="#008ECC"/>
<path d="M82.7888 168.732C82.7044 168.733 82.6226 168.703 82.5585 168.648L81.6652 167.873C81.6285 167.844 81.5982 167.807 81.5761 167.766C81.5539 167.724 81.5405 167.678 81.5364 167.631C81.5324 167.584 81.5379 167.537 81.5527 167.493C81.5674 167.448 81.591 167.406 81.6221 167.371C81.6533 167.336 81.6912 167.307 81.7337 167.287C81.7762 167.266 81.8224 167.255 81.8695 167.253C81.9165 167.251 81.9635 167.259 82.0076 167.275C82.0516 167.292 82.0918 167.317 82.1258 167.35L83.0191 168.125C83.0516 168.156 83.0774 168.194 83.095 168.236C83.1126 168.278 83.1217 168.323 83.1217 168.369C83.1217 168.414 83.1126 168.459 83.095 168.501C83.0774 168.543 83.0516 168.581 83.0191 168.613C82.9913 168.648 82.9565 168.677 82.9167 168.697C82.877 168.718 82.8334 168.73 82.7888 168.732Z" fill="#008ECC"/>
<path d="M94.1097 180.749C94.0436 180.749 93.9791 180.73 93.9236 180.694C93.868 180.658 93.8238 180.607 93.796 180.547C93.7682 180.487 93.758 180.421 93.7666 180.355C93.7752 180.29 93.8022 180.228 93.8445 180.177L94.654 179.207C94.7148 179.137 94.8007 179.093 94.8933 179.085C94.9858 179.078 95.0778 179.106 95.1495 179.165C95.1849 179.194 95.2141 179.23 95.2354 179.27C95.2567 179.311 95.2697 179.355 95.2736 179.401C95.2775 179.446 95.2723 179.492 95.2582 179.536C95.244 179.579 95.2213 179.619 95.1914 179.654L94.3749 180.624C94.3428 180.663 94.3023 180.695 94.2565 180.717C94.2106 180.738 94.1605 180.75 94.1097 180.749Z" fill="#008ECC"/>
<path d="M86.8169 187.812C86.7434 187.813 86.672 187.788 86.6145 187.742L85.8049 187.163C85.7672 187.137 85.7351 187.103 85.7104 187.064C85.6858 187.025 85.6691 186.982 85.6613 186.936C85.6535 186.891 85.6548 186.844 85.6651 186.799C85.6753 186.754 85.6944 186.712 85.7212 186.674C85.7768 186.601 85.8588 186.552 85.9499 186.537C86.0411 186.523 86.1342 186.545 86.2097 186.598L87.0262 187.177C87.0998 187.233 87.149 187.315 87.1633 187.406C87.1776 187.497 87.156 187.59 87.103 187.665C87.0698 187.71 87.0267 187.747 86.977 187.772C86.9274 187.798 86.8726 187.811 86.8169 187.812Z" fill="#008ECC"/>
<path d="M85.5377 181.991C85.4621 181.992 85.3885 181.967 85.3283 181.922L84.1629 181.028C84.1234 181.002 84.0899 180.967 84.0643 180.927C84.0388 180.887 84.0217 180.842 84.0142 180.795C84.0066 180.748 84.0088 180.7 84.0206 180.653C84.0323 180.607 84.0534 180.564 84.0825 180.526C84.1116 180.489 84.1482 180.457 84.1898 180.434C84.2315 180.411 84.2775 180.397 84.3249 180.392C84.3723 180.388 84.4202 180.393 84.4655 180.407C84.5109 180.422 84.5527 180.446 84.5886 180.477L85.754 181.37C85.8103 181.416 85.8511 181.477 85.871 181.546C85.891 181.615 85.8889 181.689 85.8652 181.757C85.8415 181.825 85.7973 181.884 85.7386 181.926C85.68 181.968 85.6098 181.991 85.5377 181.991Z" fill="#008ECC"/>
<path d="M71.6372 202C71.5737 201.999 71.5116 201.981 71.4574 201.948C71.4033 201.915 71.3593 201.868 71.3301 201.811C71.3084 201.771 71.295 201.727 71.2906 201.681C71.2863 201.636 71.2911 201.59 71.3047 201.547C71.3184 201.503 71.3406 201.463 71.3702 201.428C71.3997 201.393 71.4359 201.364 71.4767 201.344L73.3051 200.409C73.3867 200.367 73.4814 200.358 73.5689 200.386C73.6564 200.413 73.7296 200.474 73.7727 200.555C73.7943 200.596 73.8074 200.641 73.8114 200.688C73.8153 200.734 73.81 200.78 73.7957 200.825C73.7814 200.869 73.7584 200.91 73.7281 200.945C73.6978 200.98 73.6607 201.009 73.6191 201.03L71.7977 201.965C71.7471 201.987 71.6925 201.999 71.6372 202Z" fill="#008ECC"/>
<path d="M92.9435 175.445C92.8636 175.445 92.7867 175.415 92.7271 175.362C92.6913 175.333 92.6615 175.298 92.6395 175.258C92.6176 175.218 92.6039 175.173 92.5994 175.128C92.5948 175.082 92.5994 175.036 92.613 174.993C92.6266 174.949 92.6488 174.908 92.6783 174.873L93.4529 173.924C93.4814 173.888 93.5167 173.858 93.5569 173.836C93.5971 173.815 93.6413 173.801 93.6869 173.796C93.7324 173.792 93.7784 173.796 93.8222 173.81C93.8659 173.824 93.9065 173.846 93.9415 173.875C93.9773 173.904 94.0071 173.939 94.0291 173.979C94.051 174.019 94.0647 174.064 94.0692 174.109C94.0738 174.155 94.0692 174.201 94.0556 174.244C94.042 174.288 94.0198 174.329 93.9903 174.364L93.2157 175.313C93.1828 175.354 93.1414 175.387 93.0944 175.41C93.0473 175.432 92.9958 175.445 92.9435 175.445Z" fill="#008ECC"/>
<path d="M74.9399 208.518C74.8939 208.528 74.8464 208.528 74.8003 208.518C74.7583 208.5 74.7203 208.475 74.6883 208.442C74.6564 208.41 74.6312 208.371 74.6143 208.329C74.5974 208.287 74.5891 208.242 74.5899 208.196C74.5907 208.151 74.6005 208.106 74.6189 208.064L75.1283 206.85C75.145 206.806 75.1703 206.766 75.2028 206.732C75.2353 206.698 75.2744 206.671 75.3175 206.653C75.3607 206.634 75.4072 206.625 75.4541 206.625C75.5011 206.624 75.5476 206.634 75.5908 206.652C75.6341 206.671 75.6732 206.697 75.7058 206.731C75.7384 206.765 75.7638 206.805 75.7806 206.849C75.7974 206.893 75.8051 206.94 75.8033 206.986C75.8016 207.033 75.7904 207.079 75.7704 207.122L75.2609 208.336C75.2297 208.393 75.1831 208.441 75.1264 208.473C75.0696 208.505 75.005 208.52 74.9399 208.518Z" fill="#008ECC"/>
<path d="M70.0747 179.458C70.0131 179.459 69.9524 179.442 69.9003 179.409L68.2254 178.425C68.1855 178.403 68.1504 178.373 68.1224 178.336C68.0944 178.3 68.0739 178.259 68.0622 178.215C68.0505 178.17 68.0477 178.124 68.0542 178.079C68.0607 178.033 68.0762 177.99 68.0998 177.951C68.1477 177.871 68.2249 177.813 68.3149 177.79C68.4049 177.766 68.5005 177.779 68.5813 177.825L70.2353 178.809C70.3138 178.858 70.3701 178.936 70.3922 179.026C70.4144 179.116 70.4006 179.211 70.3539 179.291C70.325 179.34 70.2843 179.38 70.2355 179.41C70.1868 179.439 70.1315 179.456 70.0747 179.458Z" fill="#008ECC"/>
<path d="M95.2541 234.046C95.1924 234.047 95.1317 234.03 95.0796 233.997C94.9992 233.952 94.9401 233.876 94.9152 233.787C94.8904 233.698 94.9018 233.603 94.947 233.523L95.7286 232.169C95.774 232.089 95.8491 232.031 95.9374 232.007C96.0258 231.982 96.1201 231.994 96.1997 232.04C96.2793 232.085 96.3376 232.16 96.3618 232.248C96.386 232.337 96.3741 232.431 96.3288 232.511L95.5542 233.872C95.5237 233.924 95.48 233.968 95.4273 233.999C95.3747 234.029 95.315 234.046 95.2541 234.046Z" fill="#008ECC"/>
<path d="M87.5013 231.373C87.4307 231.373 87.3617 231.351 87.3033 231.312C87.2449 231.272 87.1997 231.215 87.1733 231.15L86.3708 229.14C86.348 229.097 86.3344 229.05 86.331 229.001C86.3275 228.953 86.3342 228.904 86.3507 228.858C86.3672 228.812 86.3931 228.771 86.4267 228.736C86.4603 228.7 86.5008 228.673 86.5458 228.654C86.5908 228.635 86.6391 228.626 86.6877 228.628C86.7364 228.629 86.7842 228.64 86.8282 228.661C86.8722 228.682 86.9113 228.712 86.9431 228.748C86.9749 228.785 86.9986 228.828 87.0128 228.875L87.8293 230.892C87.8463 230.934 87.8548 230.98 87.8541 231.026C87.8535 231.072 87.8438 231.117 87.8257 231.159C87.8075 231.201 87.7813 231.239 87.7484 231.271C87.7154 231.303 87.6766 231.328 87.6339 231.345C87.5916 231.362 87.5468 231.371 87.5013 231.373Z" fill="#008ECC"/>
<path d="M93.1183 229.433C93.0746 229.443 93.0293 229.443 92.9857 229.433C92.902 229.396 92.8357 229.328 92.8007 229.244C92.7656 229.159 92.7644 229.065 92.7972 228.979L93.3765 227.584C93.394 227.541 93.4199 227.502 93.4527 227.469C93.4855 227.436 93.5244 227.41 93.5673 227.393C93.6102 227.375 93.6561 227.367 93.7024 227.367C93.7487 227.367 93.7945 227.377 93.8371 227.395C93.9207 227.432 93.987 227.5 94.0221 227.584C94.0572 227.669 94.0584 227.764 94.0255 227.849L93.4393 229.245C93.409 229.303 93.3628 229.352 93.306 229.385C93.2492 229.419 93.1841 229.435 93.1183 229.433Z" fill="#008ECC"/>
<path d="M90.5562 245.17C90.5 245.172 90.4444 245.159 90.3944 245.133C90.3444 245.108 90.3016 245.07 90.27 245.024C90.2432 244.986 90.2242 244.944 90.2139 244.899C90.2036 244.854 90.2023 244.807 90.2101 244.762C90.2179 244.716 90.2346 244.673 90.2592 244.634C90.2839 244.595 90.316 244.561 90.3538 244.535L91.6309 243.649C91.6684 243.622 91.7108 243.603 91.7557 243.593C91.8007 243.582 91.8472 243.581 91.8926 243.589C91.938 243.597 91.9814 243.613 92.0204 243.638C92.0593 243.663 92.093 243.695 92.1194 243.732C92.1717 243.809 92.1922 243.902 92.1765 243.994C92.1609 244.085 92.1104 244.166 92.0356 244.221L90.7516 245.107C90.6964 245.152 90.6268 245.174 90.5562 245.17Z" fill="#008ECC"/>
<path d="M87.6526 239.085C87.5835 239.086 87.5158 239.065 87.4585 239.027C87.4012 238.988 87.3569 238.933 87.3316 238.869L86.9408 237.899C86.9065 237.812 86.9079 237.716 86.9445 237.631C86.9812 237.546 87.0501 237.479 87.1362 237.445C87.2222 237.411 87.3184 237.412 87.4034 237.449C87.4885 237.485 87.5555 237.554 87.5898 237.64L87.9736 238.61C88.0083 238.696 88.008 238.791 87.9727 238.876C87.9374 238.961 87.87 239.028 87.7852 239.064L87.6526 239.085Z" fill="#008ECC"/>
<path d="M66.0752 172.647C66.0117 172.646 65.9495 172.629 65.8954 172.595C65.8413 172.562 65.7973 172.515 65.7681 172.458C65.7467 172.418 65.7336 172.373 65.7297 172.328C65.7259 172.282 65.7313 172.236 65.7456 172.192C65.7599 172.148 65.7829 172.108 65.8131 172.074C65.8434 172.039 65.8803 172.011 65.9216 171.991L66.9056 171.488C66.9882 171.446 67.0841 171.438 67.1727 171.465C67.2613 171.493 67.3358 171.553 67.3802 171.635C67.4201 171.719 67.4264 171.815 67.3979 171.903C67.3693 171.991 67.3081 172.065 67.2267 172.109L66.2357 172.612C66.1861 172.637 66.1308 172.649 66.0752 172.647Z" fill="#008ECC"/>
<path d="M76.1393 188.629C76.0806 188.63 76.0227 188.616 75.9713 188.587C75.9198 188.559 75.8767 188.518 75.8462 188.468C75.7963 188.39 75.7794 188.296 75.799 188.206C75.8186 188.115 75.8732 188.037 75.9509 187.986L76.872 187.414C76.9107 187.389 76.9541 187.372 76.9995 187.364C77.045 187.355 77.0917 187.357 77.1367 187.367C77.1817 187.378 77.2241 187.397 77.2614 187.424C77.2987 187.452 77.33 187.486 77.3536 187.526C77.401 187.605 77.4158 187.699 77.395 187.789C77.3742 187.879 77.3193 187.957 77.2419 188.007L76.3207 188.58C76.2661 188.613 76.2032 188.63 76.1393 188.629Z" fill="#008ECC"/>
<path d="M73.5656 185.104C73.4991 185.105 73.4337 185.087 73.3778 185.051C73.3219 185.015 73.2779 184.963 73.2516 184.902C73.2319 184.86 73.2209 184.815 73.219 184.769C73.2172 184.723 73.2246 184.677 73.2409 184.634C73.2572 184.591 73.282 184.552 73.3138 184.519C73.3456 184.486 73.3838 184.459 73.4261 184.441L74.5985 183.911C74.6396 183.891 74.6843 183.879 74.73 183.877C74.7756 183.875 74.8212 183.882 74.8642 183.897C74.9071 183.913 74.9465 183.937 74.9799 183.968C75.0134 183.999 75.0403 184.036 75.0591 184.078C75.0953 184.164 75.0975 184.26 75.065 184.347C75.0325 184.434 74.968 184.505 74.8846 184.546L73.7122 185.076C73.6658 185.095 73.6159 185.105 73.5656 185.104Z" fill="#008ECC"/>
<path d="M67.3669 205.719H67.2832L65.699 205.335C65.6094 205.314 65.532 205.258 65.4836 205.179C65.4352 205.101 65.4198 205.006 65.4408 204.917C65.4639 204.828 65.5204 204.752 65.5984 204.704C65.6764 204.655 65.7699 204.639 65.8595 204.658L67.4437 205.042C67.5362 205.052 67.621 205.099 67.6792 205.172C67.7374 205.244 67.7644 205.337 67.7543 205.43C67.7441 205.522 67.6976 205.607 67.6249 205.665C67.5523 205.723 67.4595 205.75 67.3669 205.74V205.719Z" fill="#008ECC"/>
<path d="M74.388 214.764L72.9574 214.631C72.9114 214.629 72.8664 214.617 72.8253 214.596C72.7842 214.575 72.7477 214.546 72.7183 214.511C72.6888 214.476 72.6669 214.435 72.654 214.39C72.6411 214.346 72.6375 214.3 72.6433 214.254C72.6468 214.209 72.6594 214.164 72.6804 214.123C72.7013 214.083 72.7302 214.047 72.7654 214.017C72.8005 213.988 72.8412 213.966 72.8849 213.953C72.9287 213.94 72.9747 213.935 73.0202 213.94L74.4159 214.066C74.5085 214.066 74.5972 214.103 74.6627 214.168C74.7281 214.233 74.7649 214.322 74.7649 214.415C74.7649 214.507 74.7281 214.596 74.6627 214.661C74.5972 214.727 74.5085 214.764 74.4159 214.764H74.388Z" fill="#008ECC"/>
<path d="M97.1176 240.194C97.0645 240.196 97.0117 240.186 96.9632 240.164C96.9148 240.142 96.8721 240.11 96.8385 240.068C96.788 239.992 96.7699 239.898 96.7882 239.808C96.8065 239.717 96.8597 239.638 96.9362 239.587L98.0039 238.889C98.0809 238.839 98.1746 238.821 98.2648 238.839C98.355 238.857 98.4343 238.91 98.4855 238.987C98.5114 239.025 98.5295 239.067 98.5386 239.112C98.5477 239.157 98.5477 239.203 98.5386 239.248C98.5295 239.293 98.5115 239.336 98.4855 239.374C98.4596 239.411 98.4264 239.444 98.3878 239.468L97.32 240.166C97.2574 240.197 97.1863 240.207 97.1176 240.194Z" fill="#008ECC"/>
<path d="M75.2039 179.647H75.1202C75.0318 179.624 74.9561 179.567 74.9091 179.489C74.8621 179.41 74.8477 179.317 74.8689 179.228L75.3086 177.448C75.3183 177.404 75.3371 177.361 75.3637 177.324C75.3904 177.287 75.4244 177.256 75.4636 177.232C75.5028 177.209 75.5465 177.193 75.5918 177.187C75.6372 177.181 75.6833 177.185 75.7273 177.197C75.8169 177.219 75.8944 177.275 75.9428 177.353C75.9911 177.432 76.0065 177.526 75.9855 177.616L75.5459 179.395C75.5234 179.468 75.478 179.532 75.4164 179.578C75.3548 179.623 75.2803 179.647 75.2039 179.647Z" fill="#008ECC"/>
<path d="M67.5261 210.632C67.4561 210.632 67.3879 210.61 67.3307 210.569C67.2542 210.518 67.201 210.439 67.1828 210.349C67.1645 210.258 67.1825 210.165 67.233 210.088L67.9309 209.076C67.9821 208.999 68.0614 208.946 68.1515 208.928C68.2417 208.91 68.3355 208.928 68.4124 208.978C68.4894 209.031 68.5427 209.111 68.561 209.202C68.5793 209.294 68.561 209.389 68.5101 209.467L67.8123 210.479C67.7798 210.525 67.737 210.562 67.6873 210.589C67.6377 210.616 67.5825 210.63 67.5261 210.632Z" fill="#008ECC"/>
<path d="M75.2023 218.707C75.1565 218.71 75.1105 218.704 75.067 218.689C75.0234 218.675 74.9831 218.652 74.9485 218.622C74.9138 218.592 74.8854 218.555 74.8649 218.514C74.8444 218.473 74.8322 218.428 74.829 218.382C74.8258 218.336 74.8316 218.29 74.8462 218.247C74.8608 218.203 74.8838 218.163 74.9139 218.128C74.944 218.094 74.9807 218.065 75.0218 218.045C75.0629 218.024 75.1077 218.012 75.1535 218.009L77.2471 217.688C77.3397 217.674 77.4339 217.697 77.5092 217.753C77.5844 217.808 77.6345 217.892 77.6484 217.984C77.6623 218.077 77.6388 218.171 77.5832 218.246C77.5276 218.322 77.4443 218.372 77.3518 218.386L75.2582 218.707H75.2023Z" fill="#008ECC"/>
<path d="M99.0644 195.649C98.9701 195.649 98.8797 195.611 98.8132 195.544L97.6128 194.302C97.5481 194.235 97.5124 194.146 97.5137 194.053C97.515 193.96 97.5532 193.871 97.6198 193.807C97.6864 193.742 97.7761 193.706 97.869 193.707C97.9619 193.709 98.0505 193.747 98.1153 193.814L99.3157 195.056C99.3484 195.088 99.3743 195.127 99.392 195.169C99.4097 195.212 99.4189 195.257 99.4189 195.304C99.4189 195.35 99.4097 195.395 99.392 195.438C99.3743 195.48 99.3484 195.519 99.3157 195.551C99.2476 195.615 99.1576 195.65 99.0644 195.649Z" fill="#008ECC"/>
<path d="M80.0898 214.903C80.0439 214.9 79.9992 214.887 79.9582 214.866C79.9172 214.845 79.8807 214.817 79.8509 214.782C79.8211 214.746 79.7984 214.706 79.7843 214.662C79.7703 214.618 79.765 214.572 79.7688 214.526L79.9153 212.677C79.9259 212.586 79.9709 212.503 80.041 212.445C80.1112 212.386 80.2011 212.357 80.2922 212.363C80.3378 212.366 80.3823 212.377 80.4233 212.397C80.4643 212.418 80.5008 212.446 80.5307 212.48C80.5606 212.515 80.5833 212.555 80.5975 212.598C80.6117 212.642 80.617 212.687 80.6132 212.733L80.4667 214.582C80.4641 214.628 80.4521 214.674 80.4316 214.715C80.411 214.756 80.3822 214.793 80.347 214.823C80.3117 214.853 80.2708 214.876 80.2266 214.89C80.1824 214.903 80.1358 214.908 80.0898 214.903Z" fill="#008ECC"/>
<path d="M104.446 193.311C104.378 193.312 104.312 193.293 104.255 193.257C104.199 193.221 104.153 193.169 104.125 193.108C104.097 193.046 104.088 192.978 104.097 192.912C104.107 192.845 104.136 192.783 104.181 192.732L105.534 191.211C105.596 191.141 105.683 191.099 105.776 191.094C105.869 191.089 105.961 191.121 106.03 191.183C106.099 191.245 106.141 191.332 106.146 191.425C106.152 191.518 106.12 191.609 106.058 191.678L104.704 193.193C104.672 193.229 104.632 193.259 104.587 193.279C104.543 193.3 104.495 193.311 104.446 193.311Z" fill="#008ECC"/>
<path d="M95.5616 203.64C95.4955 203.641 95.4304 203.624 95.3732 203.591C95.2958 203.541 95.241 203.462 95.2201 203.373C95.1993 203.283 95.2142 203.188 95.2615 203.109L95.9594 201.951C96.0083 201.874 96.0853 201.819 96.174 201.798C96.2626 201.777 96.3559 201.792 96.434 201.839C96.4735 201.863 96.508 201.894 96.5355 201.931C96.5629 201.968 96.5827 202.01 96.5937 202.055C96.6047 202.1 96.6068 202.146 96.5997 202.192C96.5927 202.238 96.5767 202.281 96.5526 202.321L95.8547 203.479C95.8237 203.529 95.7804 203.57 95.7291 203.598C95.6778 203.626 95.6201 203.64 95.5616 203.64Z" fill="#008ECC"/>
<path d="M100.837 199.271C100.791 199.274 100.745 199.268 100.702 199.254C100.658 199.239 100.618 199.216 100.583 199.186C100.549 199.156 100.52 199.119 100.5 199.078C100.479 199.037 100.467 198.992 100.464 198.946C100.461 198.901 100.466 198.855 100.481 198.811C100.496 198.768 100.519 198.727 100.549 198.693C100.579 198.658 100.615 198.63 100.657 198.609C100.698 198.589 100.742 198.576 100.788 198.573L102.449 198.308C102.541 198.296 102.633 198.32 102.707 198.374C102.781 198.429 102.832 198.51 102.847 198.601C102.861 198.692 102.839 198.784 102.785 198.859C102.732 198.933 102.651 198.983 102.561 198.999L100.893 199.264L100.837 199.271Z" fill="#008ECC"/>
<path d="M94.2581 187.184C94.1758 187.185 94.0961 187.155 94.0348 187.1C93.964 187.041 93.9191 186.957 93.9099 186.866C93.9008 186.774 93.9281 186.683 93.986 186.612L95.1305 185.216C95.1594 185.18 95.1952 185.151 95.2356 185.13C95.276 185.109 95.3203 185.096 95.3659 185.092C95.4114 185.088 95.4573 185.093 95.5008 185.107C95.5442 185.121 95.5844 185.144 95.619 185.174C95.6898 185.233 95.7347 185.317 95.7438 185.408C95.753 185.5 95.7257 185.591 95.6678 185.662L94.5233 187.058C94.4912 187.098 94.4507 187.129 94.4049 187.151C94.359 187.173 94.3089 187.184 94.2581 187.184Z" fill="#008ECC"/>
<path d="M79.223 223.724C79.1407 223.726 79.0609 223.696 78.9997 223.641C78.9288 223.582 78.8839 223.498 78.8748 223.406C78.8656 223.315 78.893 223.224 78.9508 223.152L80.3117 221.519C80.3406 221.484 80.3764 221.455 80.4168 221.433C80.4572 221.412 80.5015 221.399 80.5471 221.395C80.5926 221.391 80.6385 221.396 80.6819 221.411C80.7254 221.425 80.7656 221.447 80.8002 221.477C80.871 221.536 80.9159 221.62 80.925 221.712C80.9342 221.803 80.9069 221.894 80.849 221.966L79.4533 223.599C79.425 223.634 79.3902 223.663 79.3506 223.685C79.3111 223.706 79.2677 223.72 79.223 223.724Z" fill="#008ECC"/>
<path d="M91.9532 197.129C91.9069 197.13 91.8609 197.122 91.8177 197.105C91.7746 197.088 91.7352 197.063 91.7019 197.031C91.6376 196.964 91.6016 196.876 91.6016 196.783C91.6016 196.691 91.6376 196.602 91.7019 196.535L93.2093 195.042C93.2765 194.985 93.3626 194.956 93.4504 194.96C93.5382 194.964 93.6213 195.001 93.683 195.064C93.7447 195.126 93.7805 195.21 93.7833 195.298C93.786 195.385 93.7555 195.471 93.6979 195.537L92.1974 197.031C92.1652 197.063 92.127 197.087 92.0851 197.104C92.0431 197.121 91.9983 197.129 91.9532 197.129Z" fill="#008ECC"/>
<path d="M87.7663 195.014C87.721 195.016 87.6758 195.008 87.6337 194.991C87.5916 194.974 87.5536 194.949 87.5221 194.916L86.7823 194.176C86.7166 194.111 86.6797 194.022 86.6797 193.929C86.6797 193.836 86.7166 193.747 86.7823 193.681C86.848 193.615 86.9371 193.578 87.0301 193.578C87.123 193.578 87.2121 193.615 87.2778 193.681L87.9757 194.421C88.0084 194.453 88.0343 194.492 88.0521 194.534C88.0698 194.577 88.0789 194.622 88.0789 194.668C88.0789 194.715 88.0698 194.76 88.0521 194.803C88.0343 194.845 88.0084 194.884 87.9757 194.916C87.9204 194.974 87.8458 195.008 87.7663 195.014Z" fill="#008ECC"/>
<path d="M82.3148 198.105C82.2327 198.105 82.1535 198.076 82.0915 198.022L80.8562 196.961C80.7919 196.895 80.7559 196.806 80.7559 196.713C80.7559 196.621 80.7919 196.532 80.8562 196.465C80.8881 196.433 80.9261 196.407 80.968 196.39C81.01 196.372 81.055 196.363 81.1005 196.363C81.146 196.363 81.191 196.372 81.233 196.39C81.2749 196.407 81.3129 196.433 81.3448 196.465L82.58 197.533C82.6125 197.565 82.6383 197.603 82.6559 197.645C82.6735 197.687 82.6826 197.732 82.6826 197.777C82.6826 197.823 82.6735 197.868 82.6559 197.91C82.6383 197.952 82.6125 197.99 82.58 198.022C82.5446 198.054 82.5025 198.079 82.4567 198.093C82.4109 198.108 82.3624 198.112 82.3148 198.105Z" fill="#008ECC"/>
<path d="M87.3679 202.384C87.3189 202.383 87.2706 202.372 87.2261 202.352C87.1817 202.331 87.142 202.302 87.1097 202.265L86.3699 201.414C86.3055 201.347 86.2695 201.258 86.2695 201.166C86.2695 201.073 86.3055 200.984 86.3699 200.918C86.404 200.888 86.4439 200.865 86.4871 200.85C86.5303 200.835 86.576 200.829 86.6215 200.832C86.6671 200.836 86.7115 200.848 86.7522 200.869C86.7928 200.889 86.829 200.918 86.8584 200.953L87.6191 201.804C87.6516 201.836 87.6774 201.874 87.695 201.916C87.7127 201.958 87.7217 202.003 87.7217 202.049C87.7217 202.094 87.7127 202.139 87.695 202.181C87.6774 202.223 87.6516 202.261 87.6191 202.293C87.5862 202.325 87.5467 202.35 87.5034 202.366C87.46 202.381 87.4138 202.387 87.3679 202.384Z" fill="#008ECC"/>
<path d="M83.5003 207.499C83.4311 207.5 83.3631 207.481 83.3049 207.443L81.4835 206.222C81.4452 206.196 81.4124 206.163 81.3871 206.124C81.3618 206.085 81.3444 206.042 81.3359 205.997C81.3275 205.951 81.3282 205.905 81.3379 205.859C81.3477 205.814 81.3663 205.771 81.3927 205.733C81.418 205.695 81.4506 205.663 81.4887 205.637C81.5267 205.612 81.5695 205.595 81.6144 205.586C81.6593 205.578 81.7054 205.579 81.75 205.588C81.7947 205.598 81.8369 205.616 81.8743 205.643L83.6818 206.864C83.7557 206.917 83.8063 206.997 83.8232 207.087C83.8401 207.176 83.8219 207.269 83.7725 207.345C83.743 207.391 83.7028 207.429 83.6554 207.456C83.608 207.483 83.5548 207.497 83.5003 207.499Z" fill="#008ECC"/>
<path d="M91.8468 210.367C91.7933 210.368 91.7402 210.357 91.6918 210.334C91.6434 210.311 91.6009 210.277 91.5677 210.235L90.793 209.223C90.7368 209.15 90.7118 209.057 90.7236 208.966C90.7353 208.874 90.7829 208.791 90.8559 208.734C90.9297 208.68 91.0217 208.656 91.1127 208.668C91.2038 208.679 91.2868 208.726 91.3444 208.797L92.126 209.809C92.1798 209.884 92.2025 209.976 92.1895 210.067C92.1765 210.158 92.1287 210.241 92.0562 210.297C91.9966 210.344 91.9226 210.369 91.8468 210.367Z" fill="#008ECC"/>
<path d="M95.5115 218.944C95.4405 218.943 95.3713 218.921 95.3134 218.88C95.2554 218.839 95.2113 218.781 95.187 218.714C95.1627 218.648 95.1594 218.575 95.1775 218.506C95.1956 218.438 95.2342 218.376 95.2882 218.33L96.5444 217.276C96.6157 217.229 96.7021 217.209 96.7869 217.221C96.8718 217.234 96.9492 217.277 97.0044 217.342C97.0596 217.408 97.0887 217.491 97.0863 217.577C97.0838 217.663 97.0499 217.744 96.991 217.807L95.7348 218.86C95.6735 218.915 95.5938 218.945 95.5115 218.944Z" fill="#008ECC"/>
<path d="M87.4659 213.703C87.378 213.705 87.2927 213.673 87.2286 213.612L85.7561 212.258C85.6938 212.195 85.6581 212.11 85.6563 212.021C85.6545 211.932 85.6868 211.846 85.7465 211.78C85.8062 211.714 85.8889 211.673 85.9776 211.666C86.0663 211.659 86.1543 211.686 86.2237 211.742L87.7032 213.096C87.7359 213.128 87.7618 213.167 87.7795 213.209C87.7973 213.252 87.8064 213.298 87.8064 213.344C87.8064 213.39 87.7973 213.435 87.7795 213.478C87.7618 213.52 87.7359 213.559 87.7032 213.591C87.6737 213.626 87.6373 213.653 87.5964 213.673C87.5556 213.692 87.5111 213.702 87.4659 213.703Z" fill="#008ECC"/>
<path d="M92.2882 216.927C92.2489 216.934 92.2088 216.934 92.1696 216.927C92.0826 216.896 92.0117 216.831 91.9724 216.747C91.9332 216.663 91.9288 216.567 91.9602 216.48L92.3999 215.287C92.4314 215.2 92.4961 215.129 92.5799 215.09C92.6636 215.051 92.7595 215.046 92.8465 215.078C92.8895 215.093 92.929 215.117 92.9626 215.148C92.9962 215.179 93.0232 215.217 93.0421 215.258C93.0609 215.3 93.0712 215.345 93.0724 215.391C93.0736 215.436 93.0656 215.482 93.0489 215.524L92.6162 216.718C92.5901 216.782 92.5445 216.837 92.4857 216.875C92.4269 216.912 92.3579 216.931 92.2882 216.927Z" fill="#008ECC"/>
<path d="M91.7994 224.227C91.7319 224.226 91.6661 224.206 91.61 224.168C91.5539 224.131 91.5099 224.078 91.4833 224.016C91.4567 223.954 91.4487 223.885 91.4602 223.819C91.4717 223.752 91.5023 223.69 91.5482 223.641L92.9439 222.182C93.0078 222.115 93.0959 222.075 93.1888 222.073C93.2817 222.07 93.3719 222.105 93.4394 222.168C93.507 222.232 93.5464 222.32 93.549 222.413C93.5517 222.506 93.5172 222.596 93.4534 222.664L92.0576 224.115C92.0253 224.152 91.9854 224.18 91.9408 224.2C91.8962 224.219 91.848 224.228 91.7994 224.227Z" fill="#008ECC"/>
<path d="M187.638 222.806C187.021 216.563 182.703 210.337 175.144 210.337C167.585 210.337 163.275 216.563 162.65 222.806C161.696 232.454 168.202 241.197 175.144 249.167C182.094 241.197 188.6 232.454 187.638 222.806ZM175.144 229.748C173.791 229.746 172.469 229.344 171.344 228.591C170.22 227.838 169.344 226.768 168.828 225.518C168.311 224.267 168.176 222.892 168.441 221.565C168.706 220.238 169.359 219.019 170.316 218.063C171.274 217.107 172.493 216.456 173.82 216.192C175.147 215.929 176.523 216.065 177.773 216.583C179.023 217.101 180.091 217.979 180.843 219.104C181.594 220.229 181.995 221.552 181.995 222.905C181.997 223.804 181.82 224.695 181.476 225.527C181.132 226.358 180.627 227.113 179.991 227.749C179.354 228.385 178.598 228.889 177.767 229.232C176.935 229.575 176.044 229.75 175.144 229.748Z" fill="#737373"/>
</svg>
