<svg width="320" height="260" viewBox="0 0 320 260" fill="none" xmlns="http://www.w3.org/2000/svg">
<path d="M319.813 209.292H0.186523V209.451H319.813V209.292Z" fill="#E0E0E0"/>
<path d="M259.41 216.247H246.279V216.406H259.41V216.247Z" fill="#E0E0E0"/>
<path d="M272.208 216.164H264.096V216.323H272.208V216.164Z" fill="#E0E0E0"/>
<path d="M201.999 216.164H177.189V216.323H201.999V216.164Z" fill="#E0E0E0"/>
<path d="M129.105 218.97H98.7656V219.13H129.105V218.97Z" fill="#E0E0E0"/>
<path d="M65.7168 213.914H61.1973V214.073H65.7168V213.914Z" fill="#E0E0E0"/>
<path d="M104.104 213.914H69.2715V214.073H104.104V213.914Z" fill="#E0E0E0"/>
<path d="M63.46 217.774H45.1582V217.934H63.46V217.774Z" fill="#E0E0E0"/>
<path d="M151.691 180.781H28.257C27.2901 180.779 26.3633 180.394 25.6801 179.71C24.997 179.025 24.6133 178.098 24.6133 177.131V3.61818C24.6217 2.65675 25.0091 1.73748 25.6913 1.06002C26.3736 0.382567 27.2956 0.00164697 28.257 0H151.691C152.659 0 153.587 0.384567 154.272 1.0691C154.956 1.75364 155.341 2.68206 155.341 3.65014V177.131C155.341 178.099 154.956 179.027 154.272 179.712C153.587 180.396 152.659 180.781 151.691 180.781ZM28.257 0.127851C27.3324 0.129545 26.4463 0.49802 25.7931 1.1524C25.1399 1.80678 24.7731 2.69359 24.7731 3.61818V177.131C24.7731 178.055 25.1399 178.942 25.7931 179.597C26.4463 180.251 27.3324 180.619 28.257 180.621H151.691C152.616 180.619 153.503 180.251 154.157 179.597C154.811 178.943 155.179 178.056 155.181 177.131V3.61818C155.179 2.693 154.811 1.80621 154.157 1.15201C153.503 0.497813 152.616 0.129541 151.691 0.127851H28.257Z" fill="#E0E0E0"/>
<path d="M289.967 180.781H166.527C165.56 180.779 164.632 180.394 163.948 179.71C163.264 179.026 162.879 178.098 162.877 177.131V3.61818C162.887 2.65617 163.276 1.7369 163.959 1.05962C164.642 0.382343 165.565 0.001629 166.527 0H289.967C290.927 0.00332699 291.848 0.38499 292.529 1.06227C293.209 1.73954 293.596 2.65786 293.604 3.61818V177.131C293.604 178.097 293.222 179.023 292.54 179.707C291.858 180.392 290.933 180.778 289.967 180.781ZM166.527 0.127851C165.602 0.129541 164.715 0.497813 164.061 1.15201C163.407 1.80621 163.038 2.693 163.037 3.61818V177.131C163.038 178.056 163.407 178.943 164.061 179.597C164.715 180.251 165.602 180.619 166.527 180.621H289.967C290.892 180.619 291.779 180.251 292.433 179.597C293.087 178.943 293.456 178.056 293.457 177.131V3.61818C293.456 2.693 293.087 1.80621 292.433 1.15201C291.779 0.497813 290.892 0.129541 289.967 0.127851H166.527Z" fill="#E0E0E0"/>
<path d="M49.5558 209.291H36.4191C36.4191 209.291 28.3134 202.106 25.6988 192.466C24.4779 188.023 30.4549 184.961 34.0667 188.132C42.5176 195.56 49.5558 209.291 49.5558 209.291Z" fill="#EBEBEB"/>
<path d="M55.0863 209.292H41.9497C41.9497 209.292 34.4384 193.86 37.3406 182.628C37.5657 181.748 38.0253 180.945 38.6705 180.305C39.3157 179.665 40.1223 179.212 41.0046 178.995C41.8868 178.777 42.8116 178.802 43.6805 179.069C44.5493 179.335 45.3297 179.832 45.9386 180.506C55.8726 191.437 55.0863 209.292 55.0863 209.292Z" fill="#EBEBEB"/>
<path d="M55.0996 209.292H63.5825C63.5825 209.292 68.9011 199.914 73.8937 188.388C78.5538 177.642 70.6143 173.155 65.6281 183.715C59.2867 197.152 55.0996 209.292 55.0996 209.292Z" fill="#EBEBEB"/>
<path d="M57.4199 209.292H70.5566C70.5566 209.292 83.7828 203.033 83.0476 191.188C82.8494 188.087 79.308 186.074 76.1692 187.276C62.0673 192.684 57.4199 209.292 57.4199 209.292Z" fill="#EBEBEB"/>
<path d="M50.0482 209.292H63.1785C63.1785 209.292 67.1483 187.378 62.4433 173.577C61.037 169.453 56.0508 168.731 53.7367 172.298C45.1771 185.646 50.0482 209.292 50.0482 209.292Z" fill="#EBEBEB"/>
<path d="M137.057 92.6917L174.063 63.3052L281.937 98.0167H137.057V92.6917Z" fill="#E0E0E0"/>
<path d="M215.762 209.292H277.412V103.348L215.762 103.348V209.292Z" fill="#EBEBEB"/>
<path d="M261.532 209.292H249.674C249.674 209.292 242.368 203.538 239.99 195.765C238.896 192.192 244.285 189.724 247.546 192.275C255.178 198.252 261.532 209.292 261.532 209.292Z" fill="#F5F5F5"/>
<path d="M266.533 209.292H254.668C254.668 209.292 247.886 196.884 250.507 187.851C251.414 184.719 255.825 183.754 258.267 186.145C267.242 194.934 266.533 209.292 266.533 209.292Z" fill="#F5F5F5"/>
<path d="M266.545 209.292H274.216C277.605 203.851 280.716 198.242 283.536 192.486C287.743 183.843 280.57 180.231 276.07 188.727C272.536 195.41 269.356 202.274 266.545 209.292Z" fill="#F5F5F5"/>
<path d="M268.635 209.291H280.499C280.499 209.291 292.447 204.261 291.776 194.736C291.603 192.243 288.4 190.625 285.569 191.591C272.835 195.937 268.635 209.291 268.635 209.291Z" fill="#F5F5F5"/>
<path d="M261.981 209.292H273.839C273.839 209.292 277.425 191.674 273.2 180.57C272.902 179.817 272.408 179.157 271.769 178.66C271.13 178.163 270.37 177.846 269.566 177.743C268.763 177.64 267.947 177.754 267.203 178.074C266.459 178.393 265.815 178.907 265.337 179.56C257.583 190.274 261.981 209.292 261.981 209.292Z" fill="#F5F5F5"/>
<path d="M215.756 103.348H277.412L281.938 98.0166H215.756V103.348Z" fill="#E0E0E0"/>
<path d="M250.174 112.164H188.633V163.662H250.174V112.164Z" fill="#E0E0E0"/>
<path d="M247.283 160.408V115.411H191.527V160.408H247.283Z" fill="#F5F5F5"/>
<path d="M248.984 135.727H189.834V140.086H248.984V135.727Z" fill="#E0E0E0"/>
<path d="M215.756 84.9248H58.3594V209.285H215.756V84.9248Z" fill="#F5F5F5"/>
<path d="M144.186 107.107H70.5566V168.718H144.186V107.107Z" fill="#EBEBEB"/>
<path d="M140.721 164.832V110.994H74.0145V164.832H140.721Z" fill="#FAFAFA"/>
<path d="M140.727 153.709V110.987H74.0204V153.709H140.727Z" fill="#F5F5F5"/>
<path d="M142.754 151.101H71.9883V156.317H142.754V151.101Z" fill="#EBEBEB"/>
<path d="M161.048 194.045H203.117V104.595H161.048V194.045Z" fill="#E0E0E0"/>
<path d="M200.9 194.045V106.627H163.261V194.045H200.9Z" fill="#EBEBEB"/>
<path d="M197.568 144.478V110.131H166.577V144.478H197.568Z" fill="#E0E0E0"/>
<path d="M197.576 184.08V149.732H166.585V184.08H197.576Z" fill="#E0E0E0"/>
<path d="M218.314 93.5933H55.8027V82.368L137.058 40.0366L218.314 82.368V93.5933Z" fill="#EBEBEB"/>
<path d="M225.498 88.2747L137.057 42.2037L48.6164 88.2747L46.8457 84.8739L137.057 37.876L227.269 84.8739L225.498 88.2747Z" fill="#E0E0E0"/>
<path d="M137.058 86.1266C133.596 86.1279 130.211 85.1025 127.332 83.18C124.453 81.2575 122.209 78.5244 120.883 75.3263C119.557 72.1282 119.21 68.6088 119.884 65.2132C120.559 61.8175 122.225 58.6983 124.673 56.2498C127.121 53.8014 130.239 52.1337 133.635 51.4579C137.03 50.782 140.55 51.1283 143.748 52.4528C146.947 53.7774 149.681 56.0207 151.604 58.8992C153.528 61.7776 154.554 65.1619 154.554 68.6239C154.549 73.2632 152.705 77.7112 149.425 80.9923C146.145 84.2735 141.697 86.1199 137.058 86.1266ZM137.058 54.963C134.354 54.9618 131.711 55.7624 129.462 57.2637C127.214 58.765 125.461 60.8995 124.426 63.3971C123.391 65.8947 123.12 68.6433 123.647 71.295C124.174 73.9468 125.476 76.3827 127.387 78.2945C129.299 80.2062 131.735 81.5081 134.387 82.0352C137.039 82.5624 139.787 82.2912 142.285 81.2559C144.782 80.2207 146.917 78.4679 148.418 76.2194C149.919 73.9708 150.72 71.3275 150.719 68.6239C150.71 65.0046 149.268 61.5361 146.708 58.9781C144.147 56.42 140.677 54.9809 137.058 54.9758V54.963Z" fill="#E0E0E0"/>
<path d="M137.057 81.3644C144.093 81.3644 149.797 75.6604 149.797 68.6241C149.797 61.5878 144.093 55.8838 137.057 55.8838C130.02 55.8838 124.316 61.5878 124.316 68.6241C124.316 75.6604 130.02 81.3644 137.057 81.3644Z" fill="#F5F5F5"/>
<path d="M208.513 192.556H155.646V195.299H208.513V192.556Z" fill="#EBEBEB"/>
<path d="M207.305 195.305H156.855V200.924H207.305V195.305Z" fill="#E0E0E0"/>
<path d="M212.528 200.924H151.633V203.666H212.528V200.924Z" fill="#EBEBEB"/>
<path d="M211.134 203.667H153.025V209.286H211.134V203.667Z" fill="#E0E0E0"/>
<path d="M198.834 144.989C198.834 145.448 198.698 145.897 198.443 146.278C198.188 146.66 197.826 146.957 197.402 147.133C196.978 147.308 196.511 147.354 196.061 147.265C195.611 147.175 195.198 146.954 194.873 146.63C194.548 146.305 194.327 145.892 194.238 145.442C194.148 144.992 194.194 144.525 194.37 144.101C194.546 143.677 194.843 143.315 195.225 143.06C195.606 142.805 196.055 142.668 196.514 142.668C197.129 142.668 197.72 142.913 198.155 143.348C198.59 143.783 198.834 144.374 198.834 144.989Z" fill="#FAFAFA"/>
<path d="M47.2487 22.6295C43.541 14.6197 46.488 8.91113 55.559 8.91113C61.2419 8.91113 68.2865 11.1613 75.1521 14.8114C75.9256 12.7275 78.1118 11.4809 81.6277 11.4809C87.8093 11.4809 96.3306 15.3165 103.017 20.7821C104.634 19.5739 106.974 18.826 109.985 18.7109C115.892 18.4616 123.064 20.6798 129.316 24.2916C130.057 23.5969 131.043 23.2245 132.058 23.256C135.472 23.1154 140.088 25.3527 142.376 28.2486C142.523 28.4339 142.651 28.6065 142.772 28.7855H42.646C39.4817 25.9345 42.9785 22.7702 47.2487 22.6295Z" fill="#F5F5F5"/>
<path d="M178.13 36.2008C178.414 36.1698 178.7 36.1548 178.986 36.156C178.724 33.1835 180.265 31.2849 183.551 31.2849C185.929 31.2849 188.837 32.2758 191.804 33.9506C190.96 28.1973 193.677 24.4321 199.833 24.4321C204.8 24.4321 211.09 26.8741 217.303 30.8247C217.847 28.5617 219.681 27.2065 222.756 27.2065C228.158 27.2065 235.835 31.3936 241.991 37.3067C243.321 35.9898 245.315 35.178 247.943 35.0437C253.089 34.7816 259.449 37.1852 265.139 41.1103C265.407 40.7461 265.761 40.4533 266.169 40.2572C266.577 40.0611 267.026 39.9677 267.478 39.9852C270.291 39.8381 274.165 42.0052 276.428 44.901H173.604C171.188 40.5349 173.112 36.693 178.13 36.2008Z" fill="#F5F5F5"/>
<path d="M160.002 238.16C228.454 238.16 283.947 234.92 283.947 230.924C283.947 226.927 228.454 223.688 160.002 223.688C91.5487 223.688 36.0566 226.927 36.0566 230.924C36.0566 234.92 91.5487 238.16 160.002 238.16Z" fill="#F5F5F5"/>
<path d="M214.353 81.732L130.93 116.887L178.585 229.973L262.008 194.819L214.353 81.732Z" fill="#EBEBEB"/>
<path d="M131.022 115.183L174.762 229.841L259.344 197.575L215.605 82.9167L131.022 115.183Z" fill="#DBDBDB"/>
<path d="M214.005 82.4905L130.141 116.58L176.351 230.264L260.215 196.175L214.005 82.4905Z" fill="white"/>
<path d="M260.216 196.175C260.153 196.227 176.36 230.34 176.3 230.386C176.24 230.433 130.03 116.673 129.998 116.638L129.941 116.498L130.077 116.443C130.154 116.385 213.983 82.4029 214.055 82.3519C214.13 82.4399 260.139 196.083 260.208 196.178L260.216 196.175ZM260.216 196.175L213.904 82.5319C214.672 82.4437 130.006 116.766 130.199 116.723L130.281 116.523L176.438 230.229C175.806 230.35 260.363 196.115 260.216 196.175Z" fill="#DBDBDB"/>
<path d="M209.054 115.729C210.782 114.724 212.643 113.967 214.582 113.482C212.853 114.486 210.993 115.242 209.054 115.729Z" fill="#C7C7C7"/>
<path d="M196.504 120.83C199.977 119.12 203.569 117.66 207.251 116.462C203.777 118.173 200.186 119.633 196.504 120.83Z" fill="#C7C7C7"/>
<path d="M174.056 129.955C180.503 127.04 187.102 124.358 193.758 121.946C187.307 124.863 180.708 127.545 174.056 129.955Z" fill="#C7C7C7"/>
<path d="M151.673 139.054C158.327 136.054 165.145 133.283 171.998 130.792C165.339 133.793 158.525 136.563 151.673 139.054Z" fill="#C7C7C7"/>
<path d="M208.144 121.759C210.836 120.361 213.653 119.216 216.557 118.339C213.863 119.735 211.047 120.879 208.144 121.759Z" fill="#C7C7C7"/>
<path d="M183.09 131.943C190.362 128.688 197.786 125.67 205.266 122.929C197.993 126.179 190.568 129.197 183.09 131.943Z" fill="#C7C7C7"/>
<path d="M169.212 137.583C172.926 135.771 176.758 134.213 180.683 132.921C176.968 134.73 173.136 136.287 169.212 137.583Z" fill="#C7C7C7"/>
<path d="M153.646 143.91C157.998 141.838 162.468 140.021 167.032 138.469C162.678 140.538 158.208 142.355 153.646 143.91Z" fill="#C7C7C7"/>
<path d="M207.664 127.608C211.177 125.882 214.807 124.406 218.528 123.192C215.015 124.919 211.385 126.395 207.664 127.608Z" fill="#C7C7C7"/>
<path d="M192.486 133.778C196.641 131.79 200.911 130.055 205.273 128.58C201.119 130.568 196.849 132.303 192.486 133.778Z" fill="#C7C7C7"/>
<path d="M167.856 143.79C175.167 140.523 182.634 137.489 190.154 134.726C182.839 137.994 175.373 141.029 167.856 143.79Z" fill="#C7C7C7"/>
<path d="M155.619 148.764C158.7 147.213 161.9 145.912 165.19 144.873C162.109 146.424 158.908 147.725 155.619 148.764Z" fill="#C7C7C7"/>
<path d="M213.878 130.742C215.973 129.587 218.197 128.683 220.504 128.049C218.408 129.202 216.184 130.106 213.878 130.742Z" fill="#C7C7C7"/>
<path d="M202.123 135.52C205.185 133.977 208.367 132.683 211.637 131.653C208.575 133.196 205.393 134.489 202.123 135.52Z" fill="#C7C7C7"/>
<path d="M184.918 142.514C189.731 140.259 194.659 138.256 199.681 136.513C194.868 138.769 189.94 140.772 184.918 142.514Z" fill="#C7C7C7"/>
<path d="M174.796 146.628C177.148 145.369 179.627 144.361 182.191 143.622C179.838 144.88 177.359 145.887 174.796 146.628Z" fill="#C7C7C7"/>
<path d="M157.594 153.621C162.231 151.437 166.983 149.505 171.829 147.834C167.192 150.018 162.44 151.95 157.594 153.621Z" fill="#C7C7C7"/>
<path d="M211.613 137.322C215.123 135.592 218.754 134.116 222.476 132.906C218.964 134.633 215.334 136.108 211.613 137.322Z" fill="#C7C7C7"/>
<path d="M200.101 142.002C203.14 140.463 206.3 139.179 209.551 138.161C206.51 139.695 203.35 140.98 200.101 142.002Z" fill="#C7C7C7"/>
<path d="M189.968 146.12C192.526 144.777 195.208 143.687 197.977 142.864C195.419 144.205 192.737 145.296 189.968 146.12Z" fill="#C7C7C7"/>
<path d="M171.245 153.73C176.683 151.217 182.267 148.947 187.92 146.952C182.477 149.463 176.893 151.734 171.245 153.73Z" fill="#C7C7C7"/>
<path d="M159.568 158.477C162.484 156.989 165.523 155.753 168.652 154.785C165.734 156.272 162.695 157.507 159.568 158.477Z" fill="#C7C7C7"/>
<path d="M200.504 147.51C204.145 145.731 207.903 144.204 211.752 142.938C208.112 144.718 204.354 146.246 200.504 147.51Z" fill="#C7C7C7"/>
<path d="M187.535 152.782C191.053 151.053 194.688 149.575 198.414 148.36C194.899 150.09 191.265 151.567 187.539 152.78L187.535 152.782Z" fill="#C7C7C7"/>
<path d="M178.749 156.353C180.858 155.194 183.096 154.285 185.416 153.643C183.307 154.803 181.069 155.713 178.749 156.353Z" fill="#C7C7C7"/>
<path d="M161.547 163.345C166.342 161.098 171.25 159.103 176.253 157.367C171.459 159.617 166.55 161.612 161.547 163.345Z" fill="#C7C7C7"/>
<path d="M221.47 150.288C223.666 149.093 225.99 148.148 228.397 147.473C226.2 148.667 223.877 149.611 221.47 150.288Z" fill="#C7C7C7"/>
<path d="M213.909 153.362C215.82 152.282 217.862 151.452 219.984 150.893C218.072 151.971 216.031 152.801 213.909 153.362Z" fill="#C7C7C7"/>
<path d="M199.114 159.376C203.266 157.386 207.535 155.65 211.898 154.18C207.745 156.167 203.476 157.902 199.114 159.376Z" fill="#C7C7C7"/>
<path d="M189.599 163.243C191.881 162.013 194.289 161.034 196.782 160.324C194.5 161.552 192.091 162.531 189.599 163.243Z" fill="#C7C7C7"/>
<path d="M176.269 168.662C179.814 166.918 183.478 165.428 187.234 164.205C183.688 165.945 180.024 167.434 176.269 168.662Z" fill="#C7C7C7"/>
<path d="M165.488 173.044C168.121 171.671 170.878 170.55 173.723 169.697C171.089 171.068 168.332 172.189 165.488 173.044Z" fill="#C7C7C7"/>
<path d="M218.412 157.186C222.29 155.312 226.284 153.688 230.37 152.326C226.494 154.205 222.499 155.828 218.412 157.186Z" fill="#C7C7C7"/>
<path d="M204.33 162.911C208.252 161.018 212.29 159.377 216.42 157.997C212.5 159.893 208.462 161.535 204.33 162.911Z" fill="#C7C7C7"/>
<path d="M195.508 166.496C197.614 165.339 199.848 164.432 202.164 163.791C200.059 164.95 197.825 165.858 195.508 166.496Z" fill="#C7C7C7"/>
<path d="M183.027 171.57C186.393 169.904 189.876 168.487 193.45 167.334C190.087 169.004 186.603 170.42 183.027 171.57Z" fill="#C7C7C7"/>
<path d="M167.461 177.897C171.815 175.829 176.285 174.012 180.848 172.456C176.495 174.528 172.025 176.345 167.461 177.897Z" fill="#C7C7C7"/>
<path d="M198.879 170.786C202.184 169.144 205.607 167.752 209.121 166.623C205.816 168.265 202.392 169.657 198.879 170.786Z" fill="#C7C7C7"/>
<path d="M191.819 173.656C193.477 172.681 195.268 171.953 197.136 171.494C195.479 172.471 193.688 173.199 191.819 173.656Z" fill="#C7C7C7"/>
<path d="M180.583 178.224C183.44 176.761 186.419 175.55 189.486 174.605C186.629 176.067 183.65 177.278 180.583 178.224Z" fill="#C7C7C7"/>
<path d="M169.436 182.754C172.253 181.308 175.192 180.114 178.219 179.184C175.402 180.63 172.463 181.825 169.436 182.754Z" fill="#C7C7C7"/>
<path d="M179.27 206.95C187.347 203.372 195.582 200.025 203.868 196.951C195.788 200.53 187.552 203.878 179.27 206.95Z" fill="#C7C7C7"/>
<path d="M212.25 193.544C221.952 189.306 232.278 185.113 242.18 181.378C232.477 185.612 222.146 189.816 212.25 193.544Z" fill="#C7C7C7"/>
<path d="M213.788 190.366C214.247 189.67 214.731 188.99 215.249 188.331C215.748 187.653 216.33 187.041 216.983 186.51C217.07 186.446 217.161 186.387 217.254 186.334C217.306 186.295 217.369 186.271 217.434 186.266C217.499 186.262 217.564 186.276 217.622 186.308C217.797 186.451 217.929 186.641 218.003 186.856C218.154 187.251 218.273 187.659 218.357 188.074C218.526 188.894 218.655 189.721 218.741 190.554C218.933 192.216 219.013 193.89 218.98 195.563C218.973 195.988 218.931 196.413 218.854 196.831C218.83 196.944 218.794 197.053 218.745 197.157C218.711 197.232 218.652 197.293 218.578 197.33C218.527 197.35 218.471 197.353 218.418 197.338L218.318 197.295C218.13 197.152 217.986 196.959 217.903 196.739C217.601 195.945 217.422 195.11 217.37 194.262C217.296 193.423 217.295 192.58 217.365 191.742C217.418 190.9 217.62 190.074 217.96 189.303C218.154 188.913 218.453 188.584 218.823 188.355C219.014 188.241 219.229 188.174 219.451 188.161C219.677 188.178 219.89 188.271 220.055 188.425C220.214 188.554 220.385 188.665 220.568 188.757C220.651 188.802 220.744 188.823 220.838 188.817C220.932 188.811 221.023 188.778 221.098 188.722C221.403 188.449 221.655 188.122 221.84 187.757C221.947 187.577 222.05 187.399 222.166 187.22C222.223 187.129 222.286 187.043 222.356 186.962C222.424 186.891 222.521 186.772 222.677 186.832C222.904 186.959 222.943 187.163 223.094 187.317C223.15 187.394 223.233 187.446 223.327 187.463C223.42 187.48 223.517 187.46 223.596 187.407C223.837 187.073 224.021 186.701 224.142 186.307C224.287 185.918 224.425 185.524 224.545 185.137C224.813 184.347 225.07 183.553 225.339 182.766C225.483 182.374 225.63 181.98 225.8 181.599C225.888 181.408 225.985 181.222 226.092 181.041C226.15 180.947 226.217 180.859 226.293 180.779C226.336 180.733 226.389 180.696 226.448 180.673C226.483 180.659 226.522 180.654 226.56 180.657C226.598 180.661 226.634 180.673 226.667 180.693C226.835 180.85 226.951 181.055 226.997 181.279C227.057 181.483 227.104 181.69 227.139 181.899C227.346 183.147 227.38 184.419 227.238 185.677C227.206 185.896 227.145 186.11 227.057 186.313C227.034 186.377 226.997 186.436 226.948 186.484C226.899 186.532 226.84 186.568 226.775 186.59C226.661 186.621 226.543 186.634 226.425 186.627C226.197 186.614 225.974 186.551 225.773 186.442C225.572 186.333 225.398 186.18 225.263 185.996C225.179 185.883 225.14 185.741 225.155 185.601C225.166 185.526 225.196 185.456 225.244 185.397C225.293 185.341 225.355 185.297 225.426 185.271C225.639 185.207 225.86 185.173 226.083 185.171C226.514 185.149 226.928 185.161 227.345 185.172C227.762 185.182 228.181 185.197 228.594 185.196C228.8 185.195 229.009 185.19 229.207 185.171C229.302 185.164 229.395 185.148 229.487 185.123C229.562 185.099 229.629 185.053 229.68 184.992C229.91 184.727 229.959 184.285 230.135 183.884C230.221 183.651 230.388 183.457 230.606 183.337C230.647 183.315 230.693 183.302 230.739 183.299C230.786 183.296 230.832 183.303 230.876 183.319C230.918 183.339 230.955 183.368 230.985 183.403C231.015 183.439 231.038 183.48 231.052 183.525C231.088 183.633 231.112 183.746 231.122 183.861C231.142 184.059 231.208 184.287 231.26 184.275C231.312 184.262 231.539 184.161 231.69 184.069C232.002 183.818 232.263 183.511 232.46 183.163C232.574 182.989 232.68 182.806 232.819 182.63C232.959 182.428 233.165 182.281 233.401 182.214C233.85 182.204 234.293 182.314 234.686 182.531C234.866 182.613 235.053 182.676 235.246 182.72C235.331 182.734 235.401 182.723 235.41 182.702C235.473 182.631 235.528 182.554 235.576 182.472C235.791 182.122 235.984 181.759 236.153 181.385C236.51 180.639 236.781 179.855 236.961 179.049C237.059 178.668 237.048 178.267 236.931 177.892C236.79 177.545 236.367 177.532 235.974 177.626C235.173 177.804 234.411 178.126 233.724 178.576C233.378 178.796 233.054 179.05 232.758 179.333C232.612 179.472 232.483 179.627 232.375 179.797C232.274 179.961 232.208 180.163 232.298 180.267C232.44 180.393 232.624 180.459 232.813 180.453C233.013 180.469 233.221 180.45 233.431 180.448C233.845 180.429 234.258 180.387 234.667 180.324C236.32 180.065 237.879 179.458 239.447 178.895L239.458 178.921C237.897 179.503 236.354 180.183 234.689 180.464C234.273 180.538 233.853 180.587 233.431 180.611C233.219 180.626 233.006 180.629 232.793 180.62C232.677 180.624 232.561 180.604 232.452 180.562C232.344 180.52 232.245 180.457 232.162 180.375C232.1 180.269 232.072 180.146 232.081 180.024C232.09 179.901 232.136 179.784 232.212 179.687C232.324 179.503 232.459 179.333 232.613 179.182C232.916 178.883 233.249 178.616 233.607 178.386C234.312 177.908 235.098 177.563 235.927 177.369C236.145 177.313 236.373 177.299 236.596 177.329C236.719 177.35 236.835 177.4 236.933 177.476C237.032 177.551 237.111 177.65 237.163 177.762C237.321 178.18 237.353 178.634 237.255 179.07C237.087 179.901 236.818 180.708 236.453 181.474C236.277 181.859 236.079 182.233 235.858 182.594C235.799 182.692 235.73 182.783 235.653 182.867C235.596 182.918 235.528 182.954 235.455 182.973C235.381 182.991 235.304 182.991 235.23 182.973C235.015 182.926 234.806 182.857 234.605 182.765C234.263 182.579 233.881 182.477 233.491 182.467C233.191 182.541 232.968 182.943 232.752 183.286C232.534 183.666 232.247 184.001 231.906 184.276C231.814 184.363 231.704 184.431 231.584 184.475C231.464 184.518 231.337 184.536 231.209 184.528C231.139 184.502 231.076 184.458 231.026 184.402C230.977 184.346 230.941 184.278 230.924 184.205C230.895 184.096 230.874 183.986 230.86 183.875C230.851 183.782 230.834 183.691 230.81 183.601C230.796 183.567 230.79 183.552 230.796 183.567C230.803 183.582 230.796 183.567 230.762 183.581C230.614 183.67 230.501 183.807 230.442 183.97C230.278 184.323 230.248 184.769 229.93 185.154C229.844 185.253 229.732 185.325 229.607 185.364C229.497 185.395 229.384 185.414 229.27 185.422C229.055 185.444 228.841 185.447 228.634 185.447C228.196 185.45 227.792 185.429 227.377 185.414C226.962 185.398 226.541 185.389 226.135 185.405C225.939 185.407 225.745 185.434 225.557 185.486C225.432 185.536 225.406 185.666 225.507 185.818C225.62 185.97 225.764 186.097 225.931 186.189C226.097 186.28 226.281 186.335 226.47 186.349C226.562 186.353 226.655 186.343 226.744 186.321C226.793 186.301 226.841 186.256 226.886 186.171C226.962 185.988 227.014 185.796 227.04 185.599C227.153 184.779 227.18 183.949 227.123 183.122C227.102 182.709 227.057 182.297 226.99 181.889C226.961 181.685 226.917 181.484 226.86 181.287C226.824 181.1 226.737 180.927 226.608 180.787C226.511 180.708 226.344 180.926 226.246 181.084C226.14 181.262 226.047 181.447 225.965 181.637C225.794 182.015 225.643 182.401 225.499 182.794C225.21 183.574 224.944 184.368 224.671 185.156C224.533 185.55 224.394 185.945 224.24 186.333C224.107 186.736 223.908 187.115 223.649 187.452C223.551 187.515 223.433 187.54 223.318 187.521C223.203 187.502 223.1 187.44 223.027 187.349C222.878 187.198 222.792 186.965 222.645 186.893C222.577 186.868 222.501 186.952 222.434 187.014C222.368 187.092 222.308 187.176 222.254 187.263C222.144 187.435 222.042 187.617 221.937 187.801C221.747 188.183 221.487 188.526 221.17 188.811C221.076 188.879 220.966 188.919 220.85 188.929C220.735 188.939 220.62 188.917 220.516 188.866C220.325 188.77 220.144 188.655 219.976 188.523C219.81 188.406 219.639 188.278 219.446 188.299C219.25 188.316 219.06 188.378 218.891 188.481C218.549 188.698 218.274 189.008 218.099 189.374C217.775 190.133 217.59 190.943 217.551 191.767C217.492 192.595 217.503 193.427 217.586 194.253C217.643 195.074 217.823 195.883 218.121 196.65C218.186 196.822 218.296 196.973 218.44 197.087L218.487 197.107C218.504 197.092 218.517 197.073 218.526 197.052C218.564 196.966 218.592 196.877 218.611 196.785C218.685 196.382 218.727 195.974 218.739 195.564C218.789 193.899 218.725 192.232 218.548 190.576C218.472 189.747 218.353 188.923 218.19 188.107C218.114 187.703 218.004 187.307 217.862 186.922C217.802 186.739 217.694 186.575 217.55 186.446C217.478 186.41 217.429 186.408 217.333 186.473C217.244 186.52 217.158 186.574 217.078 186.634C216.43 187.153 215.843 187.744 215.328 188.395C214.798 189.036 214.295 189.7 213.819 190.389L213.788 190.366Z" fill="#262626"/>
<path d="M195.306 192.707C195.191 192.768 195.056 192.783 194.931 192.749C194.805 192.714 194.697 192.633 194.629 192.521C194.571 192.424 194.547 192.311 194.559 192.198C194.57 192.104 194.555 192.008 194.514 191.921C194.474 191.835 194.41 191.762 194.33 191.71C194.249 191.658 194.156 191.63 194.061 191.629C193.966 191.627 193.872 191.653 193.79 191.702L193.722 191.73C193.666 191.776 193.6 191.81 193.529 191.829C193.459 191.848 193.385 191.851 193.312 191.839C193.24 191.827 193.171 191.799 193.111 191.757C193.051 191.716 193 191.662 192.962 191.599C192.916 191.536 192.887 191.462 192.875 191.384C192.867 191.299 192.838 191.216 192.789 191.145C192.741 191.073 192.675 191.015 192.598 190.976C192.521 190.937 192.436 190.918 192.349 190.922C192.263 190.925 192.179 190.95 192.105 190.994C192.054 191.027 192.008 191.067 191.97 191.115C191.919 191.179 191.853 191.23 191.778 191.264C191.703 191.298 191.622 191.313 191.54 191.308C191.458 191.304 191.378 191.279 191.307 191.238C191.237 191.196 191.177 191.138 191.134 191.068C191.114 191.031 191.098 190.992 191.086 190.951C191.055 190.855 190.996 190.769 190.917 190.706C190.837 190.643 190.741 190.605 190.639 190.596C190.538 190.588 190.437 190.61 190.348 190.66C190.259 190.709 190.187 190.784 190.141 190.874C190.101 190.955 190.04 191.024 189.964 191.074C189.888 191.124 189.801 191.152 189.71 191.157C189.62 191.161 189.53 191.142 189.45 191.1C189.369 191.058 189.302 190.995 189.254 190.919L189.246 190.9C189.197 190.81 189.121 190.738 189.03 190.692C188.939 190.646 188.836 190.628 188.735 190.641C188.634 190.655 188.539 190.698 188.462 190.766C188.386 190.834 188.332 190.923 188.307 191.022C188.292 191.085 188.264 191.145 188.226 191.197C188.188 191.25 188.14 191.294 188.084 191.328C187.981 191.393 187.859 191.418 187.739 191.4C187.618 191.382 187.509 191.322 187.429 191.23C187.35 191.139 187.241 191.08 187.122 191.063C187.003 191.046 186.882 191.072 186.781 191.137C186.709 191.18 186.649 191.239 186.607 191.311C186.565 191.383 186.541 191.464 186.539 191.548C186.535 191.64 186.507 191.73 186.456 191.808C186.405 191.885 186.333 191.947 186.25 191.987C186.166 192.027 186.073 192.044 185.98 192.034C185.888 192.025 185.8 191.991 185.726 191.935C185.644 191.873 185.546 191.837 185.443 191.832C185.341 191.827 185.239 191.854 185.152 191.909C185.066 191.964 184.998 192.044 184.958 192.139C184.918 192.234 184.907 192.339 184.929 192.439C184.949 192.54 184.939 192.645 184.899 192.739C184.859 192.834 184.791 192.914 184.705 192.97C184.633 193.014 184.551 193.04 184.467 193.044C184.383 193.048 184.299 193.031 184.223 192.994C184.147 192.959 184.064 192.943 183.981 192.948C183.898 192.954 183.818 192.98 183.747 193.025C183.644 193.086 183.566 193.182 183.527 193.297C183.489 193.411 183.493 193.535 183.538 193.646C183.584 193.758 183.587 193.883 183.548 193.998C183.51 194.113 183.431 194.21 183.327 194.272C183.272 194.307 183.21 194.33 183.145 194.339C183.08 194.349 183.014 194.346 182.95 194.329C182.852 194.308 182.75 194.316 182.657 194.353C182.563 194.389 182.483 194.453 182.425 194.535C182.367 194.617 182.334 194.714 182.331 194.814C182.328 194.914 182.354 195.014 182.407 195.099C182.458 195.176 182.487 195.266 182.491 195.358C182.495 195.451 182.474 195.542 182.43 195.624C182.385 195.705 182.32 195.773 182.24 195.819C182.16 195.866 182.069 195.89 181.976 195.889C181.886 195.888 181.797 195.911 181.719 195.956C181.64 196.001 181.575 196.065 181.53 196.144C181.485 196.222 181.461 196.311 181.462 196.401C181.462 196.492 181.487 196.58 181.533 196.658C181.555 196.696 181.583 196.731 181.615 196.761C181.671 196.815 181.713 196.881 181.74 196.954C181.766 197.027 181.776 197.105 181.767 197.183C181.759 197.26 181.733 197.334 181.691 197.4C181.649 197.466 181.593 197.521 181.527 197.561C181.476 197.593 181.42 197.616 181.361 197.629C181.28 197.645 181.204 197.68 181.14 197.732C181.076 197.784 181.025 197.85 180.992 197.926C180.959 198.001 180.944 198.084 180.95 198.166C180.955 198.248 180.981 198.328 181.024 198.399C181.064 198.465 181.12 198.521 181.186 198.561C181.263 198.605 181.327 198.669 181.371 198.746C181.415 198.823 181.439 198.909 181.439 198.998C181.44 199.087 181.417 199.174 181.374 199.251C181.33 199.328 181.267 199.392 181.191 199.438L181.12 199.467C181.053 199.496 180.993 199.54 180.944 199.594C180.895 199.648 180.858 199.712 180.836 199.782C180.814 199.852 180.808 199.925 180.816 199.998C180.825 200.071 180.849 200.14 180.887 200.203C180.946 200.302 181.039 200.377 181.148 200.413C181.254 200.453 181.343 200.526 181.404 200.621C181.472 200.735 181.494 200.87 181.465 200.999C181.435 201.128 181.357 201.241 181.246 201.314C181.139 201.389 181.066 201.502 181.041 201.63C181.016 201.758 181.042 201.891 181.113 202.001C181.15 202.064 181.202 202.117 181.263 202.158C181.325 202.198 181.394 202.224 181.467 202.235L182.289 201.729C181.861 200.087 181.972 198.352 182.607 196.779C183.242 195.206 184.366 193.879 185.814 192.994C187.262 192.11 188.956 191.716 190.645 191.869C192.334 192.023 193.929 192.716 195.194 193.847L196.016 193.341C196.041 193.272 196.049 193.199 196.041 193.126C196.033 193.053 196.008 192.983 195.969 192.921C195.906 192.808 195.803 192.723 195.68 192.683C195.557 192.643 195.423 192.652 195.306 192.707ZM197.574 197.704C198.005 199.346 197.894 201.083 197.26 202.658C196.625 204.232 195.5 205.56 194.051 206.445C192.603 207.33 190.907 207.724 189.217 207.57C187.526 207.415 185.931 206.72 184.666 205.587L183.844 206.093C183.818 206.162 183.809 206.236 183.817 206.309C183.824 206.382 183.849 206.452 183.888 206.514C183.954 206.627 184.061 206.709 184.187 206.744C184.312 206.779 184.447 206.764 184.561 206.702C184.677 206.642 184.81 206.628 184.935 206.663C185.06 206.698 185.167 206.779 185.235 206.889C185.294 206.988 185.319 207.102 185.307 207.216C185.295 207.31 185.31 207.406 185.35 207.492C185.39 207.578 185.453 207.651 185.533 207.703C185.613 207.754 185.705 207.782 185.8 207.784C185.895 207.785 185.989 207.76 186.07 207.71L186.141 207.681C186.198 207.635 186.264 207.602 186.335 207.583C186.406 207.564 186.48 207.561 186.552 207.573C186.625 207.585 186.694 207.613 186.754 207.654C186.815 207.694 186.867 207.748 186.906 207.81C186.945 207.877 186.968 207.951 186.972 208.029C186.98 208.115 187.01 208.197 187.058 208.269C187.106 208.34 187.172 208.398 187.249 208.437C187.326 208.476 187.412 208.495 187.498 208.492C187.584 208.489 187.668 208.463 187.742 208.419C187.796 208.388 187.843 208.346 187.881 208.296C187.932 208.232 187.998 208.181 188.073 208.148C188.148 208.114 188.229 208.099 188.311 208.103C188.393 208.108 188.473 208.132 188.543 208.174C188.614 208.216 188.674 208.274 188.717 208.343C188.739 208.38 188.755 208.419 188.765 208.46C188.787 208.535 188.827 208.603 188.88 208.66C188.933 208.718 188.999 208.762 189.071 208.79C189.144 208.818 189.223 208.829 189.3 208.822C189.378 208.815 189.453 208.791 189.52 208.751C189.6 208.698 189.665 208.625 189.706 208.539C189.746 208.456 189.807 208.386 189.883 208.336C189.959 208.286 190.047 208.257 190.139 208.253C190.23 208.248 190.32 208.269 190.401 208.312C190.481 208.356 190.548 208.42 190.595 208.498L190.603 208.517C190.652 208.607 190.728 208.68 190.82 208.727C190.912 208.773 191.015 208.79 191.117 208.776C191.219 208.763 191.314 208.718 191.391 208.649C191.467 208.58 191.52 208.49 191.544 208.389C191.576 208.263 191.657 208.155 191.768 208.087C191.871 208.023 191.993 207.997 192.112 208.014C192.232 208.032 192.342 208.091 192.422 208.182C192.488 208.259 192.577 208.314 192.675 208.34C192.773 208.366 192.877 208.361 192.973 208.327C193.069 208.293 193.152 208.231 193.212 208.148C193.272 208.066 193.305 207.967 193.308 207.866C193.313 207.773 193.343 207.683 193.394 207.606C193.446 207.529 193.518 207.467 193.602 207.427C193.686 207.388 193.779 207.372 193.872 207.381C193.964 207.39 194.052 207.425 194.127 207.48C194.208 207.54 194.306 207.575 194.407 207.579C194.508 207.583 194.608 207.557 194.695 207.504C194.783 207.45 194.852 207.37 194.892 207.275C194.932 207.18 194.942 207.074 194.919 206.974C194.897 206.873 194.907 206.768 194.947 206.673C194.987 206.578 195.055 206.498 195.142 206.443C195.212 206.399 195.292 206.374 195.374 206.369C195.457 206.364 195.539 206.379 195.614 206.414C195.69 206.449 195.773 206.466 195.856 206.462C195.939 206.458 196.02 206.433 196.092 206.391C196.197 206.329 196.275 206.231 196.314 206.115C196.352 206 196.348 205.874 196.302 205.761C196.26 205.649 196.259 205.526 196.298 205.412C196.336 205.299 196.413 205.202 196.515 205.139C196.57 205.103 196.631 205.08 196.696 205.069C196.761 205.059 196.827 205.062 196.89 205.078C196.99 205.107 197.096 205.105 197.194 205.071C197.292 205.038 197.378 204.975 197.44 204.892C197.501 204.809 197.536 204.708 197.539 204.605C197.542 204.501 197.514 204.399 197.457 204.312C197.419 204.255 197.393 204.192 197.38 204.125C197.368 204.058 197.368 203.99 197.382 203.923C197.396 203.857 197.423 203.793 197.461 203.737C197.499 203.681 197.549 203.634 197.606 203.597C197.687 203.549 197.78 203.524 197.874 203.523C197.965 203.524 198.055 203.501 198.134 203.457C198.214 203.412 198.28 203.347 198.326 203.268C198.371 203.19 198.396 203.1 198.396 203.009C198.395 202.918 198.371 202.829 198.325 202.751C198.301 202.713 198.273 202.679 198.24 202.649C198.185 202.595 198.143 202.529 198.117 202.456C198.091 202.383 198.082 202.305 198.09 202.228C198.098 202.151 198.124 202.077 198.165 202.011C198.207 201.945 198.262 201.89 198.328 201.849C198.379 201.817 198.435 201.794 198.494 201.781C198.575 201.766 198.651 201.732 198.715 201.68C198.78 201.629 198.831 201.563 198.864 201.488C198.897 201.412 198.911 201.33 198.905 201.248C198.899 201.166 198.873 201.087 198.829 201.017C198.786 200.951 198.73 200.894 198.665 200.851C198.589 200.805 198.526 200.74 198.483 200.663C198.439 200.586 198.416 200.499 198.417 200.41C198.417 200.321 198.44 200.234 198.484 200.157C198.528 200.08 198.591 200.016 198.667 199.971L198.735 199.943C198.803 199.915 198.863 199.872 198.913 199.818C198.962 199.764 199 199.701 199.022 199.631C199.045 199.561 199.052 199.487 199.044 199.415C199.035 199.342 199.011 199.272 198.973 199.209C198.913 199.111 198.821 199.037 198.712 198.999C198.624 198.968 198.546 198.912 198.488 198.84C198.429 198.767 198.392 198.68 198.379 198.587C198.367 198.494 198.381 198.4 198.418 198.315C198.456 198.229 198.517 198.156 198.593 198.103C198.677 198.044 198.741 197.962 198.778 197.866C198.814 197.771 198.821 197.666 198.797 197.567C198.773 197.468 198.72 197.378 198.644 197.309C198.569 197.24 198.474 197.196 198.373 197.182L197.574 197.704Z" fill="#008ECC"/>
<path d="M182.972 201.355L182.775 201.4C182.422 199.892 182.552 198.312 183.149 196.883C183.745 195.455 184.777 194.251 186.098 193.442C187.418 192.634 188.96 192.263 190.503 192.381C192.047 192.5 193.514 193.102 194.696 194.102L194.561 194.258C193.413 193.283 191.986 192.696 190.484 192.58C188.982 192.463 187.482 192.824 186.197 193.611C184.913 194.398 183.909 195.57 183.33 196.96C182.751 198.351 182.626 199.889 182.972 201.355Z" fill="#008ECC"/>
<path d="M192.698 206.536C191.455 207.044 190.096 207.2 188.769 206.988C187.443 206.775 186.201 206.202 185.178 205.331L185.309 205.177C186.457 206.148 187.883 206.733 189.383 206.847C190.882 206.962 192.38 206.601 193.663 205.815C194.945 205.029 195.948 203.859 196.527 202.471C197.107 201.083 197.234 199.548 196.89 198.083L197.087 198.038C197.442 199.544 197.312 201.122 196.715 202.549C196.118 203.975 195.085 205.176 193.764 205.98C193.425 206.195 193.069 206.381 192.698 206.536Z" fill="#008ECC"/>
<path d="M182.857 205.158L182.8 205.085C182.64 204.873 182.484 204.642 182.32 204.379C182.171 204.137 182.035 203.887 181.911 203.631L181.877 203.548L181.964 203.513L197.032 194.286L197.085 194.361C197.254 194.582 197.412 194.811 197.557 195.048C197.718 195.313 197.854 195.56 197.972 195.798L198.007 195.885L197.924 195.918L182.857 205.158ZM182.134 203.629C182.238 203.832 182.355 204.044 182.495 204.268C182.634 204.493 182.768 204.702 182.905 204.888L197.739 195.809C197.652 195.594 197.515 195.386 197.377 195.156C197.238 194.932 197.104 194.732 196.967 194.546L182.134 203.629Z" fill="#008ECC"/>
<path d="M138.054 106.676C131.818 106.769 125.842 109.189 121.299 113.462C116.756 117.735 113.974 123.552 113.499 129.77C113.025 135.989 114.892 142.161 118.734 147.073C122.576 151.986 128.116 155.285 134.265 156.324L134.352 161.302L132.426 162.921L132.587 173.527L135.382 175.725L132.122 178.442L132.439 199.252L137.849 203.482L137.897 207.249L134.035 210.479L134.249 224.273L139.907 228.705L145.527 223.283L144.492 156.015C150.453 154.537 155.661 150.916 159.123 145.844C162.585 140.771 164.059 134.602 163.264 128.512C162.468 122.422 159.459 116.838 154.81 112.825C150.16 108.812 144.197 106.651 138.056 106.754L138.054 106.676ZM138.32 123.885C137.061 123.907 135.824 123.555 134.766 122.874C133.707 122.192 132.874 121.212 132.373 120.058C131.871 118.903 131.724 117.625 131.949 116.387C132.173 115.148 132.761 114.004 133.636 113.099C134.511 112.194 135.635 111.569 136.865 111.303C138.096 111.037 139.377 111.142 140.548 111.605C141.719 112.068 142.726 112.867 143.443 113.902C144.159 114.938 144.552 116.162 144.572 117.421C144.599 119.107 143.956 120.735 142.784 121.947C141.611 123.159 140.006 123.856 138.32 123.885Z" fill="#008ECC"/>
</svg>
