<svg width="15" height="15" viewBox="0 0 15 15" fill="none" xmlns="http://www.w3.org/2000/svg">
<g clip-path="url(#clip0_135_806)">
<path d="M12.6583 2.78984H11.0882V3.96738C11.0882 4.08078 11.0659 4.19307 11.0225 4.29783C10.9791 4.4026 10.9155 4.4978 10.8353 4.57798C10.7551 4.65817 10.6599 4.72177 10.5551 4.76517C10.4504 4.80857 10.3381 4.8309 10.2247 4.8309C10.1113 4.8309 9.99899 4.80857 9.89422 4.76517C9.78945 4.72177 9.69426 4.65817 9.61407 4.57798C9.53389 4.4978 9.47028 4.4026 9.42689 4.29783C9.38349 4.19307 9.36115 4.08078 9.36115 3.96738V2.78984H4.78839V3.96738C4.78839 4.1964 4.69741 4.41604 4.53547 4.57798C4.37353 4.73992 4.15389 4.8309 3.92486 4.8309C3.69584 4.8309 3.4762 4.73992 3.31426 4.57798C3.15232 4.41604 3.06134 4.1964 3.06134 3.96738V2.78984H1.49129C1.39788 2.78878 1.30521 2.80646 1.21875 2.84183C1.13229 2.87721 1.05381 2.92956 0.987938 2.9958C0.922067 3.06204 0.870148 3.14081 0.835251 3.22746C0.800354 3.31412 0.783188 3.40689 0.784769 3.50029V12.2847C0.783209 12.3765 0.799741 12.4676 0.833419 12.553C0.867097 12.6383 0.917262 12.7162 0.981049 12.7822C1.04484 12.8482 1.12099 12.9009 1.20518 12.9375C1.28936 12.974 1.37991 12.9936 1.47166 12.9951H12.6583C12.75 12.9936 12.8406 12.974 12.9247 12.9375C13.0089 12.9009 13.0851 12.8482 13.1489 12.7822C13.2127 12.7162 13.2628 12.6383 13.2965 12.553C13.3302 12.4676 13.3467 12.3765 13.3451 12.2847V3.50029C13.3467 3.40853 13.3302 3.31737 13.2965 3.23201C13.2628 3.14664 13.2127 3.06875 13.1489 3.00277C13.0851 2.9368 13.0089 2.88404 12.9247 2.8475C12.8406 2.81097 12.75 2.79137 12.6583 2.78984ZM3.92486 10.6401H3.13984V9.85505H3.92486V10.6401ZM3.92486 8.67752H3.13984V7.89249H3.92486V8.67752ZM3.92486 6.71496H3.13984V5.92994H3.92486V6.71496ZM6.27994 10.6401H5.49491V9.85505H6.27994V10.6401ZM6.27994 8.67752H5.49491V7.89249H6.27994V8.67752ZM6.27994 6.71496H5.49491V5.92994H6.27994V6.71496ZM8.63501 10.6401H7.84998V9.85505H8.63501V10.6401ZM8.63501 8.67752H7.84998V7.89249H8.63501V8.67752ZM8.63501 6.71496H7.84998V5.92994H8.63501V6.71496ZM10.9901 10.6401H10.2051V9.85505H10.9901V10.6401ZM10.9901 8.67752H10.2051V7.89249H10.9901V8.67752ZM10.9901 6.71496H10.2051V5.92994H10.9901V6.71496Z" fill="#111827"/>
<path d="M3.92425 4.35994C4.02835 4.35994 4.12819 4.31859 4.2018 4.24498C4.27541 4.17137 4.31676 4.07153 4.31676 3.96743V1.61236C4.31676 1.50826 4.27541 1.40842 4.2018 1.33481C4.12819 1.2612 4.02835 1.21985 3.92425 1.21985C3.82015 1.21985 3.72031 1.2612 3.6467 1.33481C3.57309 1.40842 3.53174 1.50826 3.53174 1.61236V3.96743C3.53174 4.07153 3.57309 4.17137 3.6467 4.24498C3.72031 4.31859 3.82015 4.35994 3.92425 4.35994Z" fill="#111827"/>
<path d="M10.204 4.35994C10.3081 4.35994 10.408 4.31859 10.4816 4.24498C10.5552 4.17137 10.5965 4.07153 10.5965 3.96743V1.61236C10.5965 1.50826 10.5552 1.40842 10.4816 1.33481C10.408 1.2612 10.3081 1.21985 10.204 1.21985C10.0999 1.21985 10.0001 1.2612 9.92649 1.33481C9.85288 1.40842 9.81152 1.50826 9.81152 1.61236V3.96743C9.81152 4.07153 9.85288 4.17137 9.92649 4.24498C10.0001 4.31859 10.0999 4.35994 10.204 4.35994Z" fill="#111827"/>
</g>
<defs>
<clipPath id="clip0_135_806">
<rect width="14.1304" height="14.1304" fill="white" transform="translate(0 0.434814)"/>
</clipPath>
</defs>
</svg>
