<svg width="24" height="24" viewBox="0 0 24 24" fill="none" xmlns="http://www.w3.org/2000/svg">
<path d="M14.8946 2.22552H11.0884C9.3642 2.22552 7.99773 2.22552 6.92939 2.37019C5.82878 2.51876 4.93833 2.83154 4.23653 3.53628C3.53375 4.24101 3.22194 5.13537 3.07435 6.23989C2.93066 7.31312 2.93066 8.68447 2.93066 10.4155V16.1218C2.93066 17.5958 3.82991 18.8587 5.10743 19.3885C5.04194 18.499 5.04194 17.2527 5.04194 16.2147V11.3177C5.04194 10.0656 5.04194 8.98552 5.15728 8.12146C5.28142 7.19485 5.56097 6.30733 6.27841 5.58695C6.99585 4.86658 7.88044 4.58605 8.80315 4.46094C9.6633 4.3456 10.7385 4.3456 11.9867 4.3456H14.9874C16.2346 4.3456 17.3079 4.3456 18.169 4.46094C17.9111 3.80243 17.4607 3.23692 16.8766 2.83817C16.2925 2.43942 15.6018 2.22592 14.8946 2.22552Z" fill="#030712"/>
<path d="M6.45117 11.4106C6.45117 8.74604 6.45117 7.41379 7.27613 6.58589C8.10012 5.758 9.42651 5.758 12.0812 5.758H14.8963C17.55 5.758 18.8774 5.758 19.7024 6.58589C20.5273 7.41379 20.5264 8.74604 20.5264 11.4106V16.1218C20.5264 18.7863 20.5264 20.1186 19.7024 20.9465C18.8774 21.7744 17.55 21.7744 14.8963 21.7744H12.0812C9.42749 21.7744 8.10012 21.7744 7.27613 20.9465C6.45117 20.1186 6.45117 18.7863 6.45117 16.1218V11.4106Z" fill="#030712"/>
</svg>
