<svg width="20" height="20" viewBox="0 0 20 20" fill="none" xmlns="http://www.w3.org/2000/svg">
<path d="M16.8557 9.13166C17.172 9.51644 17.3302 9.70801 17.3302 10.0007C17.3302 10.2933 17.172 10.4849 16.8557 10.8697C15.6981 12.2751 13.1448 14.892 10.1807 14.892C7.21657 14.892 4.66331 12.2751 3.50571 10.8697C3.1894 10.4849 3.03125 10.2933 3.03125 10.0007C3.03125 9.70801 3.1894 9.51644 3.50571 9.13166C4.66331 7.72622 7.21657 5.10938 10.1807 5.10938C13.1448 5.10938 15.6981 7.72622 16.8557 9.13166Z" fill="#111827" fill-opacity="0.25"/>
<path d="M10.181 12.446C11.5317 12.446 12.6267 11.351 12.6267 10.0003C12.6267 8.64964 11.5317 7.55469 10.181 7.55469C8.83031 7.55469 7.73535 8.64964 7.73535 10.0003C7.73535 11.351 8.83031 12.446 10.181 12.446Z" fill="#111827"/>
</svg>
