<svg width="50" height="50" viewBox="0 0 50 50" fill="none" xmlns="http://www.w3.org/2000/svg">
<rect width="50" height="50" rx="25" fill="#F5F5F5"/>
<path fill-rule="evenodd" clip-rule="evenodd" d="M21.25 26.25C21.913 26.25 22.5489 26.5134 23.0178 26.9822C23.4866 27.4511 23.75 28.087 23.75 28.75V33.75C23.75 34.413 23.4866 35.0489 23.0178 35.5178C22.5489 35.9866 21.913 36.25 21.25 36.25H16.25C15.587 36.25 14.9511 35.9866 14.4822 35.5178C14.0134 35.0489 13.75 34.413 13.75 33.75V28.75C13.75 28.087 14.0134 27.4511 14.4822 26.9822C14.9511 26.5134 15.587 26.25 16.25 26.25H21.25ZM33.75 26.25C34.3807 26.2498 34.9882 26.488 35.4507 26.9169C35.9132 27.3457 36.1964 27.9336 36.2438 28.5625L36.25 28.75V33.75C36.2502 34.3807 36.012 34.9882 35.5831 35.4507C35.1543 35.9132 34.5664 36.1964 33.9375 36.2438L33.75 36.25H28.75C28.1193 36.2502 27.5118 36.012 27.0493 35.5831C26.5868 35.1543 26.3036 34.5664 26.2563 33.9375L26.25 33.75V28.75C26.2498 28.1193 26.488 27.5118 26.9169 27.0493C27.3457 26.5868 27.9336 26.3036 28.5625 26.2563L28.75 26.25H33.75ZM21.25 28.75H16.25V33.75H21.25V28.75ZM33.75 28.75H28.75V33.75H33.75V28.75ZM33.75 13.75C34.3807 13.7498 34.9882 13.988 35.4507 14.4169C35.9132 14.8457 36.1964 15.4336 36.2438 16.0625L36.25 16.25V21.25C36.2502 21.8807 36.012 22.4882 35.5831 22.9507C35.1543 23.4132 34.5664 23.6964 33.9375 23.7437L33.75 23.75H28.75C28.1193 23.7502 27.5118 23.512 27.0493 23.0831C26.5868 22.6543 26.3036 22.0664 26.2563 21.4375L26.25 21.25V16.25C26.2498 15.6193 26.488 15.0118 26.9169 14.5493C27.3457 14.0868 27.9336 13.8036 28.5625 13.7563L28.75 13.75H33.75ZM21.25 13.75C21.8807 13.7498 22.4882 13.988 22.9507 14.4169C23.4132 14.8457 23.6964 15.4336 23.7437 16.0625L23.75 16.25V21.25C23.7502 21.8807 23.512 22.4882 23.0831 22.9507C22.6543 23.4132 22.0664 23.6964 21.4375 23.7437L21.25 23.75H16.25C15.6193 23.7502 15.0118 23.512 14.5493 23.0831C14.0868 22.6543 13.8036 22.0664 13.7563 21.4375L13.75 21.25V16.25C13.7498 15.6193 13.988 15.0118 14.4169 14.5493C14.8457 14.0868 15.4336 13.8036 16.0625 13.7563L16.25 13.75H21.25ZM33.75 16.25H28.75V21.25H33.75V16.25ZM21.25 16.25H16.25V21.25H21.25V16.25Z" fill="#525252"/>
</svg>
