<svg width="50" height="50" viewBox="0 0 50 50" fill="none" xmlns="http://www.w3.org/2000/svg">
<rect width="50" height="50" rx="25" fill="#F5F5F5"/>
<path d="M12.5 24.25C12.5 22.8025 12.8025 22.5 14.25 22.5H35.75C37.1975 22.5 37.5 22.8025 37.5 24.25V25.75C37.5 27.1975 37.1975 27.5 35.75 27.5H14.25C12.8025 27.5 12.5 27.1975 12.5 25.75V24.25ZM12.5 14.25C12.5 12.8025 12.8025 12.5 14.25 12.5H35.75C37.1975 12.5 37.5 12.8025 37.5 14.25V15.75C37.5 17.1975 37.1975 17.5 35.75 17.5H14.25C12.8025 17.5 12.5 17.1975 12.5 15.75V14.25ZM12.5 34.25C12.5 32.8025 12.8025 32.5 14.25 32.5H35.75C37.1975 32.5 37.5 32.8025 37.5 34.25V35.75C37.5 37.1975 37.1975 37.5 35.75 37.5H14.25C12.8025 37.5 12.5 37.1975 12.5 35.75V34.25Z" stroke="#525252" stroke-width="2" stroke-linecap="round" stroke-linejoin="round"/>
</svg>
