<svg width="346" height="260" viewBox="0 0 346 260" fill="none" xmlns="http://www.w3.org/2000/svg">
<path d="M345.154 228.902H0.84668V229.074H345.154V228.902Z" fill="#E6E6E6"/>
<path d="M54.7105 236.587H36.4141V236.759H54.7105V236.587Z" fill="#E6E6E6"/>
<path d="M61.3279 233.144H45.5586V233.316H61.3279V233.144Z" fill="#E6E6E6"/>
<path d="M224.929 233.654H182.613V233.826H224.929V233.654Z" fill="#E6E6E6"/>
<path d="M239.045 233.654H228.895V233.826H239.045V233.654Z" fill="#E6E6E6"/>
<path d="M296.758 234.831H263.25V235.003H296.758V234.831Z" fill="#E6E6E6"/>
<path d="M133.866 237.579H74.2109V237.751H133.866V237.579Z" fill="#E6E6E6"/>
<path d="M307.687 234.831H302.805V235.003H307.687V234.831Z" fill="#E6E6E6"/>
<path d="M164.049 198.19H31.0843C30.0426 198.188 29.0443 197.773 28.3084 197.036C27.5725 196.299 27.1592 195.3 27.1592 194.258V7.34751C27.1682 6.31185 27.5856 5.32159 28.3205 4.59182C29.0554 3.86206 30.0486 3.45173 31.0843 3.44995H164.049C165.092 3.44995 166.092 3.86421 166.829 4.6016C167.566 5.33899 167.981 6.33911 167.981 7.38194V194.258C167.981 195.301 167.566 196.301 166.829 197.038C166.092 197.776 165.092 198.19 164.049 198.19ZM31.0843 3.58767C30.0883 3.5895 29.1337 3.98643 28.4301 4.69133C27.7265 5.39624 27.3313 6.35153 27.3313 7.34751V194.258C27.3313 195.254 27.7265 196.209 28.4301 196.914C29.1337 197.619 30.0883 198.016 31.0843 198.018H164.049C165.045 198.016 166.001 197.619 166.705 196.915C167.41 196.21 167.807 195.255 167.809 194.258V7.34751C167.807 6.3509 167.41 5.39562 166.705 4.69091C166.001 3.9862 165.045 3.58949 164.049 3.58767H31.0843Z" fill="#E6E6E6"/>
<path d="M313.003 198.19H180.032C178.989 198.188 177.99 197.773 177.253 197.036C176.516 196.299 176.101 195.3 176.1 194.258V7.34751C176.11 6.31122 176.529 5.32097 177.265 4.59139C178.001 3.86182 178.995 3.45171 180.032 3.44995H313.003C314.037 3.45354 315.029 3.86467 315.762 4.59424C316.496 5.32381 316.912 6.31304 316.921 7.34751V194.258C316.921 195.298 316.509 196.296 315.774 197.033C315.04 197.77 314.043 198.186 313.003 198.19ZM180.032 3.58767C179.035 3.58949 178.08 3.9862 177.375 4.69091C176.67 5.39562 176.274 6.3509 176.272 7.34751V194.258C176.274 195.255 176.67 196.21 177.375 196.915C178.08 197.619 179.035 198.016 180.032 198.018H313.003C314 198.016 314.955 197.619 315.66 196.915C316.364 196.21 316.761 195.255 316.763 194.258V7.34751C316.761 6.3509 316.364 5.39562 315.66 4.69091C314.955 3.9862 314 3.58949 313.003 3.58767H180.032Z" fill="#E6E6E6"/>
<path d="M106.5 110.476C108.417 102.16 103.229 93.8644 94.9133 91.9475C86.5972 90.0306 78.3017 95.2183 76.3849 103.534C74.468 111.85 79.6556 120.146 87.9717 122.063C96.2878 123.98 104.583 118.792 106.5 110.476Z" fill="#F0F0F0"/>
<path d="M196.812 103.809C194.891 99.6769 196.42 96.6814 201.13 96.6814C204.077 96.6814 207.741 97.852 211.308 99.7457C211.714 98.6646 212.843 98.0173 214.668 98.0173C217.884 98.0173 222.312 100.021 225.782 102.838C226.854 102.121 228.116 101.744 229.405 101.756C232.483 101.633 236.201 102.783 239.438 104.656C239.628 104.476 239.851 104.335 240.096 104.243C240.341 104.151 240.602 104.108 240.863 104.118C241.889 104.153 242.896 104.402 243.82 104.849C244.744 105.296 245.564 105.931 246.227 106.715C246.303 106.804 246.365 106.9 246.434 106.99H194.423C192.777 105.523 194.595 103.884 196.812 103.809Z" fill="#F5F5F5"/>
<path d="M95.4902 135.781L138.102 126.023V228.902H95.4902V135.781Z" fill="#FAFAFA"/>
<path d="M160.213 126.023H138.102V228.902H160.213V126.023Z" fill="#EBEBEB"/>
<path d="M152.989 228.902H189.258L189.258 101.419H152.989V228.902Z" fill="#FAFAFA"/>
<path d="M208.078 101.419H189.258V228.902H208.078V101.419Z" fill="#EBEBEB"/>
<path d="M157.871 101.419H189.258V91.9437H157.871V101.419Z" fill="#FAFAFA"/>
<path d="M157.871 101.419H189.258V99.2912H157.871V101.419Z" fill="#EBEBEB"/>
<path d="M203.202 91.9437H189.258V101.419H203.202V91.9437Z" fill="#EBEBEB"/>
<path d="M162.747 91.9437H189.252V82.4684H162.747V91.9437Z" fill="#FAFAFA"/>
<path d="M162.747 91.9437H189.252V89.8159H162.747V91.9437Z" fill="#EBEBEB"/>
<path d="M198.32 82.4752H189.258V91.9506H198.32V82.4752Z" fill="#EBEBEB"/>
<path d="M181.415 69.2401H179.652V82.4753H181.415V69.2401Z" fill="#EBEBEB"/>
<path d="M202.067 228.902H228.551V117.987H202.067V228.902Z" fill="#FAFAFA"/>
<path d="M242.303 117.987H228.559V228.902H242.303V117.987Z" fill="#EBEBEB"/>
<path d="M235.43 140.484L255.51 157.699V228.902H235.43V140.484Z" fill="#FAFAFA"/>
<path d="M265.935 157.699H255.51V228.902H265.935V157.699Z" fill="#EBEBEB"/>
<path d="M265.935 157.699H255.51L235.43 140.484H245.848L265.935 157.699Z" fill="#EBEBEB"/>
<path d="M303.768 228.902C304.063 227.248 304.766 225.693 305.813 224.379C306.861 223.065 308.219 222.033 309.765 221.375C308.408 223.639 307.791 226.271 308.003 228.902H303.768Z" fill="#EBEBEB"/>
<path d="M129.137 228.902C128.841 227.248 128.138 225.693 127.091 224.379C126.044 223.065 124.685 222.033 123.139 221.375C124.496 223.639 125.113 226.271 124.902 228.902H129.137Z" fill="#EBEBEB"/>
<path d="M41.3867 228.902C41.3867 228.902 41.0493 220.088 37.3652 217.526C38.8733 221.128 38.5497 228.902 38.5497 228.902H41.3867Z" fill="#EBEBEB"/>
<path d="M40.002 228.902C40.002 228.902 40.3463 223.841 44.0303 222.374C42.5154 224.44 42.8459 228.902 42.8459 228.902H40.002Z" fill="#EBEBEB"/>
<path d="M132.29 228.902C132.29 228.902 131.918 220.556 125.238 217.526C128.227 221.81 128.055 228.902 128.055 228.902H132.29Z" fill="#EBEBEB"/>
<path d="M65.3555 172.718L70.2171 207.011L70.6991 210.441H73.8185L73.3296 207.011L68.468 172.718H65.3555Z" fill="#E0E0E0"/>
<path d="M198.941 172.718L203.803 207.011L204.285 210.441H207.404L206.916 207.011L202.054 172.718H198.941Z" fill="#E0E0E0"/>
<path d="M85.3184 207.011L85.8073 210.441L88.4309 228.93H91.5503L88.9267 210.441L88.4447 207.011H85.3184Z" fill="#E6E6E6"/>
<path d="M218.91 207.011L219.399 210.441L222.016 228.93H225.128L222.512 210.441L222.03 207.011H218.91Z" fill="#E6E6E6"/>
<path d="M203.167 207.011L202.679 210.441L200.055 228.93H196.936L199.559 210.441L200.041 207.011H203.167Z" fill="#E6E6E6"/>
<path d="M69.5776 207.011L69.0886 210.441L66.4719 228.93H63.3594L65.9761 210.441L66.465 207.011H69.5776Z" fill="#E6E6E6"/>
<path d="M60.8738 177.49H203.644L200.993 167.939H58.2227L60.8738 177.49Z" fill="#F5F5F5"/>
<path d="M64.1297 177.49H206.907L204.256 167.939H61.4785L64.1297 177.49Z" fill="#E6E6E6"/>
<path d="M62.8631 189.396H205.633L202.982 179.852H60.2051L62.8631 189.396Z" fill="#F5F5F5"/>
<path d="M66.1219 189.396H208.892L206.241 179.852H63.4707L66.1219 189.396Z" fill="#E6E6E6"/>
<path d="M64.8465 201.323H207.624L204.973 191.779H62.1953L64.8465 201.323Z" fill="#F5F5F5"/>
<path d="M68.1101 201.323H210.88L208.229 191.779H65.459L68.1101 201.323Z" fill="#E6E6E6"/>
<path d="M223.874 207.011H81.7305V210.441H223.874V207.011Z" fill="#E6E6E6"/>
<path d="M81.7313 207.011H62.1953V210.441H81.7313V207.011Z" fill="#F5F5F5"/>
<path d="M51.46 67.126C48.7951 61.3692 50.916 57.272 57.4303 57.272C61.5138 57.272 66.5751 58.8833 71.5125 61.5069C72.0703 60.0127 73.6403 59.1175 76.1606 59.1175C80.6091 59.1175 86.7309 61.8719 91.5374 65.8039C93.0168 64.8113 94.7622 64.2903 96.5436 64.3096C100.799 64.1306 105.95 65.7281 110.426 68.3173C110.958 67.8185 111.666 67.551 112.396 67.5736C114.847 67.4703 118.166 69.0817 119.812 71.1613C119.915 71.2922 120.005 71.4161 120.094 71.5469H48.1547C45.8823 69.5018 48.3957 67.2293 51.46 67.126Z" fill="#F5F5F5"/>
<path d="M240.423 78.9977C240.605 78.9873 240.786 78.9873 240.967 78.9977C240.802 77.1178 241.773 75.9127 243.86 75.9127C245.714 76.0381 247.509 76.6175 249.086 77.5998C248.549 73.9502 250.277 71.5745 254.175 71.5745C257.322 71.5745 261.309 73.117 265.248 75.6373C265.592 74.205 266.749 73.3442 268.691 73.3442C272.134 73.3442 276.954 76.0023 280.879 79.7483C281.911 78.8107 283.259 78.2988 284.653 78.316C287.91 78.1438 291.959 79.6932 295.547 82.1585C295.72 81.9324 295.944 81.7516 296.202 81.6316C296.46 81.5117 296.743 81.4561 297.027 81.4699C298.811 81.3803 301.262 82.7507 302.695 84.5824H237.559C236.023 81.7453 237.242 79.3145 240.423 78.9977Z" fill="#F5F5F5"/>
<path d="M130.844 37.3504C131.023 37.34 131.202 37.34 131.381 37.3504C131.216 35.4636 132.194 34.2654 134.273 34.2654C136.13 34.3897 137.927 34.9691 139.507 35.9525C138.969 32.296 140.691 29.9203 144.589 29.9203C147.742 29.9203 151.723 31.4697 155.662 33.99C156.006 32.5577 157.163 31.6969 159.105 31.6969C162.548 31.6969 167.368 34.3481 171.293 38.101C172.327 37.1662 173.673 36.6527 175.067 36.6618C178.324 36.4966 182.373 38.039 185.961 40.5043C186.133 40.2786 186.358 40.0981 186.616 39.9782C186.874 39.8583 187.157 39.8025 187.441 39.8157C189.225 39.7193 191.683 41.0896 193.108 42.9282H127.972C126.444 40.098 127.662 37.6672 130.844 37.3504Z" fill="#F5F5F5"/>
<path d="M293.349 216.989L281.112 204.752H271.582L282.159 215.33H279.253V228.902H290.443V216.989H293.349Z" fill="#EBEBEB"/>
<path d="M283.819 216.989L271.582 204.752L259.346 216.989H263.911V228.902H279.254V216.989H283.819Z" fill="#FAFAFA"/>
<path d="M173.002 260C246.74 260 306.517 256.51 306.517 252.205C306.517 247.9 246.74 244.41 173.002 244.41C99.2632 244.41 39.4863 247.9 39.4863 252.205C39.4863 256.51 99.2632 260 173.002 260Z" fill="#F5F5F5"/>
<path d="M277.094 39.7537L258.743 21.4021H244.447L260.313 37.2678H255.947V57.6163H272.729V39.7537H277.094Z" fill="#008ECC"/>
<path opacity="0.4" d="M277.094 39.7537L258.743 21.4021H244.447L260.313 37.2678H255.947V57.6163H272.729V39.7537H277.094Z" fill="white"/>
<path d="M262.799 39.7537L244.447 21.4021L226.096 39.7537H232.947V57.6163H255.947V39.7537H262.799Z" fill="#008ECC"/>
<path opacity="0.7" d="M262.799 39.7537L244.447 21.4021L226.096 39.7537H232.947V57.6163H255.947V39.7537H262.799Z" fill="white"/>
<path d="M288.911 113.008L270.559 94.65H256.264L272.129 110.516H267.764V130.864H284.545V113.008H288.911Z" fill="#008ECC"/>
<path opacity="0.4" d="M288.911 113.008L270.559 94.65H256.264L272.129 110.516H267.764V130.864H284.545V113.008H288.911Z" fill="white"/>
<path d="M274.615 113.008L256.264 94.65L237.912 113.008H244.757V130.864H267.764V113.008H274.615Z" fill="#008ECC"/>
<path opacity="0.7" d="M274.615 113.008L256.264 94.65L237.912 113.008H244.757V130.864H267.764V113.008H274.615Z" fill="white"/>
<path d="M206.317 132.09L187.959 113.738H173.67L189.536 129.597H185.17V149.953H201.951V132.09H206.317Z" fill="#008ECC"/>
<path opacity="0.4" d="M206.317 132.09L187.959 113.738H173.67L189.536 129.597H185.17V149.953H201.951V132.09H206.317Z" fill="white"/>
<path d="M192.021 132.09L173.67 113.738L155.318 132.09H162.163V149.946H185.17V132.09H192.021Z" fill="#008ECC"/>
<path opacity="0.7" d="M192.021 132.09L173.67 113.738L155.318 132.09H162.163V149.946H185.17V132.09H192.021Z" fill="white"/>
<path d="M205.223 70.4245H195.348L193.936 69.0198L182.471 47.6727L205.223 70.4245Z" fill="#065E86"/>
<path d="M195.314 91.1587H216.117V65.9279H195.314V91.1587Z" fill="#008ECC"/>
<path opacity="0.3" d="M195.314 91.1587H216.117V65.9279H195.314V91.1587Z" fill="#171717"/>
<path d="M203.812 69.0198H221.537L198.779 46.2611H181.061L203.812 69.0198Z" fill="#008ECC"/>
<path opacity="0.3" d="M203.812 69.0198H221.537L198.779 46.2611H181.061L203.812 69.0198Z" fill="#171717"/>
<path d="M195.314 62.6364V91.1587H166.799V62.6364L181.06 48.7883L181.205 48.9329L182.472 50.1587L195.314 62.6364Z" fill="#008ECC"/>
<path opacity="0.3" d="M182.472 47.6727V57.5475L169.588 70.4245H166.799V63.3456L181.205 48.9329L182.472 47.6727Z" fill="#171717"/>
<path d="M203.812 69.0198H193.938L181.061 56.1358V46.2611L203.812 69.0198Z" fill="#008ECC"/>
<path d="M158.301 69.0198H168.176L181.059 56.1358V46.2611L158.301 69.0198Z" fill="#008ECC"/>
<path d="M155.098 98.0518C149.224 102.817 143.164 107.3 137.07 111.707C130.976 116.114 124.799 120.397 118.601 124.646C112.404 128.895 106.103 132.985 99.7746 137.041C96.6276 139.107 93.4325 141.063 90.2579 143.073C88.6922 144.153 86.962 144.971 85.1347 145.497C84.144 145.764 83.1289 145.931 82.1048 145.993C80.954 146.088 79.7956 146.026 78.6617 145.807C77.774 145.627 76.9306 145.273 76.1799 144.766C75.4293 144.258 74.786 143.608 74.2871 142.852C73.7881 142.096 73.4433 141.249 73.2722 140.359C73.1012 139.47 73.1074 138.555 73.2905 137.668C73.2905 137.564 73.3387 137.434 73.3662 137.323C73.6752 136.209 74.1388 135.142 74.7435 134.156C75.2522 133.277 75.8499 132.454 76.527 131.698C77.8026 130.287 79.2978 129.092 80.9548 128.158C84.1568 126.189 87.3313 124.185 90.5472 122.257C96.9582 118.338 103.431 114.53 109.939 110.771C116.446 107.011 123.022 103.368 129.654 99.8147C136.285 96.2614 142.971 92.7977 149.83 89.6025C150.937 89.1227 152.179 89.0561 153.33 89.4149C154.482 89.7737 155.466 90.5341 156.104 91.5576C156.742 92.5811 156.992 93.7997 156.807 94.9916C156.622 96.1835 156.016 97.2694 155.098 98.0518Z" fill="#008ECC"/>
<path d="M155.098 98.0518C149.224 102.817 143.164 107.3 137.07 111.707C130.976 116.114 124.799 120.397 118.601 124.646C112.404 128.895 106.103 132.985 99.7746 137.041C96.6276 139.107 93.4325 141.063 90.2579 143.073C88.6922 144.153 86.962 144.971 85.1347 145.497C84.144 145.764 83.1289 145.931 82.1048 145.993C80.954 146.088 79.7956 146.026 78.6617 145.807C77.774 145.627 76.9306 145.273 76.1799 144.766C75.4293 144.258 74.786 143.608 74.2871 142.852C73.7881 142.096 73.4433 141.249 73.2722 140.359C73.1012 139.47 73.1074 138.555 73.2905 137.668C73.2905 137.564 73.3387 137.434 73.3662 137.323C73.6752 136.209 74.1388 135.142 74.7435 134.156C75.2522 133.277 75.8499 132.454 76.527 131.698C77.8026 130.287 79.2978 129.092 80.9548 128.158C84.1568 126.189 87.3313 124.185 90.5472 122.257C96.9582 118.338 103.431 114.53 109.939 110.771C116.446 107.011 123.022 103.368 129.654 99.8147C136.285 96.2614 142.971 92.7977 149.83 89.6025C150.937 89.1227 152.179 89.0561 153.33 89.4149C154.482 89.7737 155.466 90.5341 156.104 91.5576C156.742 92.5811 156.992 93.7997 156.807 94.9916C156.622 96.1835 156.016 97.2694 155.098 98.0518Z" fill="#008ECC"/>
<path opacity="0.5" d="M155.098 98.0518C149.224 102.817 143.164 107.3 137.07 111.707C130.976 116.114 124.799 120.397 118.601 124.646C112.404 128.895 106.103 132.985 99.7746 137.041C96.6276 139.107 93.4325 141.063 90.2579 143.073C88.6922 144.153 86.962 144.971 85.1347 145.497C84.144 145.764 83.1289 145.931 82.1048 145.993C80.954 146.088 79.7956 146.026 78.6617 145.807C77.774 145.627 76.9306 145.273 76.1799 144.766C75.4293 144.258 74.786 143.608 74.2871 142.852C73.7881 142.096 73.4433 141.249 73.2722 140.359C73.1012 139.47 73.1074 138.555 73.2905 137.668C73.2905 137.564 73.3387 137.434 73.3662 137.323C73.6752 136.209 74.1388 135.142 74.7435 134.156C75.2522 133.277 75.8499 132.454 76.527 131.698C77.8026 130.287 79.2978 129.092 80.9548 128.158C84.1568 126.189 87.3313 124.185 90.5472 122.257C96.9582 118.338 103.431 114.53 109.939 110.771C116.446 107.011 123.022 103.368 129.654 99.8147C136.285 96.2614 142.971 92.7977 149.83 89.6025C150.937 89.1227 152.179 89.0561 153.33 89.4149C154.482 89.7737 155.466 90.5341 156.104 91.5576C156.742 92.5811 156.992 93.7997 156.807 94.9916C156.622 96.1835 156.016 97.2694 155.098 98.0518Z" fill="white"/>
<path d="M233.883 44.9459C228.631 36.5352 221.002 29.8709 211.963 25.7956C202.923 21.7203 192.877 20.4171 183.097 22.0507C173.316 23.6843 164.24 28.1814 157.015 34.9732C149.79 41.7651 144.742 50.5468 142.508 60.2079C140.274 69.869 140.955 79.9756 144.464 89.2497C147.974 98.5238 154.155 106.549 162.225 112.31C170.296 118.072 179.894 121.311 189.805 121.618C199.716 121.924 209.496 119.286 217.907 114.035C223.493 110.547 228.337 105.994 232.163 100.635C235.989 95.2755 238.722 89.2149 240.206 82.7993C241.689 76.3837 241.895 69.7387 240.81 63.2437C239.725 56.7488 237.371 50.5312 233.883 44.9459ZM157.798 92.4603C153.655 85.823 151.573 78.1063 151.815 70.2858C152.058 62.4653 154.614 54.8922 159.16 48.5244C163.707 42.1565 170.039 37.2797 177.357 34.5108C184.675 31.7418 192.65 31.205 200.273 32.9682C207.896 34.7315 214.825 38.7155 220.183 44.4167C225.542 50.1178 229.09 57.2799 230.378 64.9974C231.667 72.7148 230.638 80.641 227.421 87.7736C224.205 94.9063 218.946 100.925 212.309 105.069C207.902 107.82 202.995 109.676 197.87 110.531C192.746 111.386 187.503 111.223 182.441 110.052C177.379 108.88 172.597 106.723 168.369 103.704C164.141 100.684 160.549 96.8612 157.798 92.4534V92.4603Z" fill="#008ECC"/>
<path d="M233.883 44.9459C228.631 36.5352 221.002 29.8709 211.963 25.7956C202.923 21.7203 192.877 20.4171 183.097 22.0507C173.316 23.6843 164.24 28.1814 157.015 34.9732C149.79 41.7651 144.742 50.5468 142.508 60.2079C140.274 69.869 140.955 79.9756 144.464 89.2497C147.974 98.5238 154.155 106.549 162.225 112.31C170.296 118.072 179.894 121.311 189.805 121.618C199.716 121.924 209.496 119.286 217.907 114.035C223.493 110.547 228.337 105.994 232.163 100.635C235.989 95.2755 238.722 89.2149 240.206 82.7993C241.689 76.3837 241.895 69.7387 240.81 63.2437C239.725 56.7488 237.371 50.5312 233.883 44.9459ZM157.798 92.4603C153.655 85.823 151.573 78.1063 151.815 70.2858C152.058 62.4653 154.614 54.8922 159.16 48.5244C163.707 42.1565 170.039 37.2797 177.357 34.5108C184.675 31.7418 192.65 31.205 200.273 32.9682C207.896 34.7315 214.825 38.7155 220.183 44.4167C225.542 50.1178 229.09 57.2799 230.378 64.9974C231.667 72.7148 230.638 80.641 227.421 87.7736C224.205 94.9063 218.946 100.925 212.309 105.069C207.902 107.82 202.995 109.676 197.87 110.531C192.746 111.386 187.503 111.223 182.441 110.052C177.379 108.88 172.597 106.723 168.369 103.704C164.141 100.684 160.549 96.8612 157.798 92.4534V92.4603Z" fill="#008ECC"/>
<path opacity="0.5" d="M233.883 44.9459C228.631 36.5352 221.002 29.8709 211.963 25.7956C202.923 21.7203 192.877 20.4171 183.097 22.0507C173.316 23.6843 164.24 28.1814 157.015 34.9732C149.79 41.7651 144.742 50.5468 142.508 60.2079C140.274 69.869 140.955 79.9756 144.464 89.2497C147.974 98.5238 154.155 106.549 162.225 112.31C170.296 118.072 179.894 121.311 189.805 121.618C199.716 121.924 209.496 119.286 217.907 114.035C223.493 110.547 228.337 105.994 232.163 100.635C235.989 95.2755 238.722 89.2149 240.206 82.7993C241.689 76.3837 241.895 69.7387 240.81 63.2437C239.725 56.7488 237.371 50.5312 233.883 44.9459ZM157.798 92.4603C153.655 85.823 151.573 78.1063 151.815 70.2858C152.058 62.4653 154.614 54.8922 159.16 48.5244C163.707 42.1565 170.039 37.2797 177.357 34.5108C184.675 31.7418 192.65 31.205 200.273 32.9682C207.896 34.7315 214.825 38.7155 220.183 44.4167C225.542 50.1178 229.09 57.2799 230.378 64.9974C231.667 72.7148 230.638 80.641 227.421 87.7736C224.205 94.9063 218.946 100.925 212.309 105.069C207.902 107.82 202.995 109.676 197.87 110.531C192.746 111.386 187.503 111.223 182.441 110.052C177.379 108.88 172.597 106.723 168.369 103.704C164.141 100.684 160.549 96.8612 157.798 92.4534V92.4603Z" fill="white"/>
<path opacity="0.2" d="M228.229 48.4785C232.78 55.772 235.067 64.2514 234.8 72.8445C234.533 81.4377 231.724 89.7587 226.729 96.7555C221.733 103.752 214.775 109.111 206.734 112.153C198.693 115.196 189.93 115.786 181.554 113.849C173.178 111.912 165.564 107.534 159.676 101.27C153.787 95.0065 149.888 87.1371 148.471 78.6573C147.055 70.1776 148.184 61.4681 151.717 53.6303C155.25 45.7924 161.028 39.1781 168.319 34.6236C173.162 31.5985 178.554 29.5573 184.186 28.6164C189.818 27.6755 195.581 27.8535 201.144 29.1401C206.708 30.4267 211.963 32.7968 216.61 36.1149C221.258 39.4331 225.206 43.6342 228.229 48.4785Z" fill="#FAFAFA"/>
<path opacity="0.1" d="M234.407 65.3495L166.923 107.479C161.42 103.745 156.847 98.7975 153.557 93.018L227.238 47.0117C230.998 52.496 233.451 58.7693 234.407 65.3495Z" fill="#E6E6E6"/>
</svg>
