<svg width="50" height="50" viewBox="0 0 50 50" fill="none" xmlns="http://www.w3.org/2000/svg">
<rect width="50" height="50" rx="25" fill="#F5F5F5"/>
<path d="M32.5 26.2476H26.25V32.4976C26.25 32.8291 26.1183 33.147 25.8839 33.3814C25.6495 33.6159 25.3315 33.7476 25 33.7476C24.6685 33.7476 24.3505 33.6159 24.1161 33.3814C23.8817 33.147 23.75 32.8291 23.75 32.4976V26.2476H17.5C17.1685 26.2476 16.8505 26.1159 16.6161 25.8814C16.3817 25.647 16.25 25.3291 16.25 24.9976C16.25 24.666 16.3817 24.3481 16.6161 24.1137C16.8505 23.8793 17.1685 23.7476 17.5 23.7476H23.75V17.4976C23.75 17.166 23.8817 16.8481 24.1161 16.6137C24.3505 16.3793 24.6685 16.2476 25 16.2476C25.3315 16.2476 25.6495 16.3793 25.8839 16.6137C26.1183 16.8481 26.25 17.166 26.25 17.4976V23.7476H32.5C32.8315 23.7476 33.1495 23.8793 33.3839 24.1137C33.6183 24.3481 33.75 24.666 33.75 24.9976C33.75 25.3291 33.6183 25.647 33.3839 25.8814C33.1495 26.1159 32.8315 26.2476 32.5 26.2476Z" fill="#525252"/>
</svg>
