<svg width="284" height="260" viewBox="0 0 284 260" fill="none" xmlns="http://www.w3.org/2000/svg">
<path d="M234.04 26.1255H166.484C166.484 26.1255 173.184 7.82275 183.497 7.82275C193.81 7.82275 197.041 20.4585 197.041 20.4585C197.041 20.4585 203.968 13.5853 209.682 13.5853C215.397 13.5853 220.371 22.656 220.371 22.656C220.371 22.656 228.445 17.8012 234.04 26.1255Z" fill="#EBEBEB"/>
<path d="M91.6439 45.963H60.0605C60.0605 45.963 67.1189 35.7397 72.6784 35.7397C78.2379 35.7397 79.8979 42.5533 79.8979 42.5533C79.8979 42.5533 83.8272 39.3764 87.4579 39.9437C91.0886 40.511 91.6439 45.963 91.6439 45.963Z" fill="#EBEBEB"/>
<path d="M271.339 70.9656H239.756C239.756 70.9656 246.814 60.7603 252.374 60.7603C257.933 60.7603 259.575 67.5797 259.575 67.5797C259.575 67.5797 263.505 64.3969 267.135 64.9642C270.766 65.5315 271.339 70.9656 271.339 70.9656Z" fill="#EBEBEB"/>
<path d="M74.1824 71.5865H12.6758C12.6758 71.5865 21.1016 52.7762 30.1126 51.5998C39.1236 50.4234 43.4351 65.5732 43.4351 65.5732C43.4351 65.5732 49.2454 60.1988 53.8196 60.1988C58.3937 60.1988 61.9169 67.2511 61.9169 67.2511C61.9169 67.2511 71.0474 62.4381 74.1824 71.5865Z" fill="#EBEBEB"/>
<path d="M34.9376 120.929C34.9376 120.929 47.4778 148.828 26.9716 148.828C6.46538 148.828 19.758 119.98 19.758 119.98C19.758 119.98 15.0106 117.89 20.5164 102.328C26.0221 86.7661 28.4824 86.7661 30.7635 86.7661C33.6537 86.7661 36.3409 93.502 34.3464 103.845C34.3703 103.845 41.5839 116.749 34.9376 120.929Z" fill="#EBEBEB"/>
<path d="M25.1504 167.328L27.127 125.3L29.1035 167.328H25.1504Z" fill="#A3A3A3"/>
<path d="M26.3223 142.923L33.7747 134.222L27.9286 144.075L26.3223 142.923Z" fill="#A3A3A3"/>
<path d="M246.503 123.927C246.503 123.927 240.656 121.61 236.017 129.678C231.239 137.96 237.211 143.412 241.958 140.164C241.958 140.164 245.667 147.927 253.089 146.105C260.512 144.284 261.718 138.306 261.718 138.306C261.718 138.306 268.287 138.772 268.49 133.858C268.693 128.943 263.82 124.578 263.82 124.578C263.82 124.578 263.545 112.33 255.567 112.42C247.589 112.509 246.503 123.927 246.503 123.927Z" fill="#E5E5E5"/>
<path d="M251.914 167.328L253.586 130.89L255.252 167.328H251.914Z" fill="#A3A3A3"/>
<path d="M252.869 144.141L247.967 134.359L254.297 143.281L252.869 144.141Z" fill="#A3A3A3"/>
<path d="M183.956 260C207.127 260 225.912 255.177 225.912 249.227C225.912 243.278 207.127 238.455 183.956 238.455C160.784 238.455 142 243.278 142 249.227C142 255.177 160.784 260 183.956 260Z" fill="#EBEBEB"/>
<path d="M283.932 217.465H0.0693359V222.983H283.932V217.465Z" fill="#D4D4D4"/>
<path d="M19.9733 217.465C20.4192 219.277 20.4192 221.17 19.9733 222.983C19.5193 221.171 19.5193 219.276 19.9733 217.465Z" fill="#262626"/>
<path d="M42.1567 217.465C42.6107 219.276 42.6107 221.171 42.1567 222.983C41.9163 222.083 41.8037 221.154 41.8223 220.224C41.8096 219.293 41.9221 218.365 42.1567 217.465Z" fill="#262626"/>
<path d="M64.3698 217.465C64.6044 218.365 64.7169 219.293 64.7042 220.224C64.7198 221.154 64.6072 222.083 64.3698 222.983C63.9158 221.171 63.9158 219.276 64.3698 217.465Z" fill="#262626"/>
<path d="M86.5317 217.465C86.9857 219.276 86.9857 221.171 86.5317 222.983C86.2913 222.083 86.1787 221.154 86.1973 220.224C86.1846 219.293 86.2971 218.365 86.5317 217.465Z" fill="#262626"/>
<path d="M108.721 217.465C108.956 218.365 109.068 219.293 109.056 220.224C109.074 221.154 108.962 222.083 108.721 222.983C108.267 221.171 108.267 219.276 108.721 217.465Z" fill="#262626"/>
<path d="M130.905 217.465C131.359 219.276 131.359 221.171 130.905 222.983C130.664 222.083 130.552 221.154 130.57 220.224C130.558 219.293 130.67 218.365 130.905 217.465Z" fill="#262626"/>
<path d="M153.096 217.465C153.331 218.365 153.443 219.293 153.431 220.224C153.449 221.154 153.337 222.083 153.096 222.983C152.642 221.171 152.642 219.276 153.096 217.465Z" fill="#262626"/>
<path d="M175.28 217.465C175.734 219.276 175.734 221.171 175.28 222.983C175.039 222.083 174.927 221.154 174.945 220.224C174.933 219.293 175.045 218.365 175.28 217.465Z" fill="#262626"/>
<path d="M197.469 217.465C197.704 218.365 197.816 219.293 197.804 220.224C197.822 221.154 197.71 222.083 197.469 222.983C197.015 221.171 197.015 219.276 197.469 217.465Z" fill="#262626"/>
<path d="M219.631 217.465C220.085 219.276 220.085 221.171 219.631 222.983C219.393 222.083 219.281 221.154 219.296 220.224C219.284 219.293 219.396 218.365 219.631 217.465Z" fill="#262626"/>
<path d="M241.844 217.465C242.079 218.365 242.191 219.293 242.179 220.224C242.197 221.154 242.085 222.083 241.844 222.983C241.39 221.171 241.39 219.276 241.844 217.465Z" fill="#262626"/>
<path d="M264.028 217.465C264.482 219.276 264.482 221.171 264.028 222.983C263.582 221.17 263.582 219.277 264.028 217.465Z" fill="#262626"/>
<path d="M0.0693359 217.465L25.2333 207.851H264.817L283.932 217.465H0.0693359Z" fill="#E5E5E5"/>
<path d="M110.054 167.227H131.939L156.25 207.851H85.0332L110.054 167.227Z" fill="#E5E5E5"/>
<path d="M85.0332 207.851L93.9367 207.743L102.84 207.684L120.641 207.63L138.442 207.684L147.346 207.743L156.25 207.851L147.346 207.964L138.442 208.024L120.641 208.078L102.84 208.024L93.9367 207.964L85.0332 207.851Z" fill="#D4D4D4"/>
<path d="M150.199 197.747L142.83 197.854L135.461 197.92L120.729 197.968L105.992 197.92L98.6228 197.854L91.2539 197.747L98.6228 197.639L105.992 197.574L120.729 197.52L135.461 197.574L142.83 197.639L150.199 197.747Z" fill="#D4D4D4"/>
<path d="M144.873 188.838L138.859 188.945L132.84 189.011L120.807 189.065L108.775 189.011L102.756 188.945L96.7422 188.838L102.756 188.73L108.775 188.664L120.807 188.617L132.84 188.664L138.859 188.73L144.873 188.838Z" fill="#D4D4D4"/>
<path d="M139.892 180.519C136.721 180.609 133.556 180.657 130.385 180.692L120.879 180.74L111.372 180.692C108.201 180.657 105.036 180.615 101.865 180.519C105.036 180.424 108.201 180.382 111.372 180.346L120.879 180.298L130.385 180.346C133.556 180.382 136.721 180.43 139.892 180.519Z" fill="#D4D4D4"/>
<path d="M136.178 174.315C133.634 174.404 131.096 174.452 128.558 174.488L120.932 174.536L113.337 174.488C110.793 174.452 108.255 174.41 105.711 174.315C108.255 174.219 110.793 174.177 113.337 174.142L120.956 174.094L128.582 174.142C131.096 174.177 133.64 174.219 136.178 174.315Z" fill="#D4D4D4"/>
<path d="M133.329 169.549C131.269 169.639 129.209 169.687 127.149 169.723C125.089 169.758 123.034 169.723 120.974 169.77C118.914 169.818 116.854 169.77 114.8 169.723C112.745 169.675 110.679 169.645 108.619 169.549C110.679 169.454 112.739 169.412 114.8 169.376C116.86 169.34 118.914 169.34 120.974 169.329C123.034 169.317 125.095 169.329 127.149 169.376C129.203 169.424 131.251 169.442 133.329 169.549Z" fill="#D4D4D4"/>
<path d="M81.7182 207.851H49.5078C49.5078 207.851 49.5795 203.073 52.7503 201.79C53.6071 201.414 54.5627 201.328 55.4729 201.543C56.3831 201.759 57.1986 202.264 57.7963 202.984C57.7963 202.984 59.0861 194.17 64.992 194.17C70.8978 194.17 73.7164 201.778 73.7164 201.778C73.7164 201.778 75.0361 199.479 78.3144 199.903C81.5928 200.327 81.7182 207.851 81.7182 207.851Z" fill="#008ECC"/>
<path d="M264.579 207.851C264.579 207.851 263.594 203.247 261.623 202.536C259.653 201.825 258.446 203.891 258.446 203.891C258.446 203.891 257.987 199.49 255.186 198.177C252.385 196.863 250.295 199.556 250.295 199.556C250.295 199.556 248.146 193.967 244.324 193.967C240.502 193.967 238.555 202.142 238.555 202.142C238.555 202.142 236.298 199.705 233.975 201.079C231.652 202.452 231.658 207.851 231.658 207.851H264.579Z" fill="#008ECC"/>
<path d="M55.2829 207.851H25.5566C25.5566 207.851 26.53 203.671 28.5006 203.372C30.4712 203.074 31.3908 205.014 31.3908 205.014C31.3908 205.014 31.3012 199.174 34.9737 198.177C38.6462 197.18 41.7335 202.357 41.7335 202.357C41.7335 202.357 44.0445 199.413 47.1855 199.604C50.3265 199.795 51.1267 204.65 51.1267 204.65C51.1267 204.65 54.0169 202.954 55.2829 207.851Z" fill="#A3A3A3"/>
<path d="M233.772 207.851H215.523C215.523 207.851 215.565 205.139 217.363 204.417C217.849 204.205 218.392 204.157 218.908 204.281C219.424 204.405 219.886 204.694 220.223 205.104C220.223 205.104 220.952 200.105 224.296 200.105C227.64 200.105 229.24 204.417 229.24 204.417C229.524 204.006 229.922 203.687 230.384 203.498C230.846 203.31 231.353 203.259 231.844 203.354C233.701 203.599 233.772 207.851 233.772 207.851Z" fill="#A3A3A3"/>
<path d="M124.098 83.3921L127.006 105.642L134.082 105.051V85.8942L124.098 83.3921Z" fill="#D4D4D4"/>
<path d="M109.395 113.184V159.69H36.1367V119.305L109.395 113.184Z" fill="#E5E5E5"/>
<path d="M134.081 111.124V159.69H109.395V113.184L134.081 111.124Z" fill="#D4D4D4"/>
<path d="M109.395 112.951C111.455 112.897 113.509 112.856 115.569 112.838L121.738 112.802L127.912 112.838C129.966 112.838 132.027 112.897 134.081 112.951C132.027 113.011 129.966 113.047 127.912 113.07L121.738 113.1L115.569 113.065C113.509 113.047 111.455 113.005 109.395 112.951Z" fill="#E5E5E5"/>
<path d="M109.395 115.597C111.455 115.543 113.509 115.501 115.569 115.483L121.738 115.447H127.912C129.966 115.447 132.027 115.507 134.081 115.567C132.027 115.62 129.966 115.662 127.912 115.68L121.738 115.716L115.569 115.698C113.509 115.698 111.455 115.65 109.395 115.597Z" fill="#E5E5E5"/>
<path d="M109.395 118.236C111.455 118.182 113.509 118.14 115.569 118.122L121.738 118.086L127.912 118.122C129.966 118.122 132.027 118.182 134.081 118.236C132.027 118.289 129.966 118.331 127.912 118.349L121.738 118.385L115.569 118.349C113.509 118.331 111.455 118.289 109.395 118.236Z" fill="#E5E5E5"/>
<path d="M109.395 120.875C111.455 120.821 113.509 120.786 115.569 120.762H121.738H127.912C129.966 120.762 132.027 120.821 134.081 120.875C132.027 120.935 129.966 120.971 127.912 120.995H121.738H115.569C113.509 120.971 111.455 120.935 109.395 120.875Z" fill="#E5E5E5"/>
<path d="M109.395 123.521C111.455 123.467 113.509 123.425 115.569 123.407L121.738 123.372L127.912 123.407C129.966 123.407 132.027 123.467 134.081 123.521C132.027 123.575 129.966 123.616 127.912 123.634L121.738 123.67L115.569 123.634C113.509 123.616 111.455 123.575 109.395 123.521Z" fill="#E5E5E5"/>
<path d="M109.395 126.16C111.455 126.106 113.509 126.064 115.569 126.047L121.738 126.011L127.912 126.047C129.966 126.047 132.027 126.106 134.081 126.16C132.027 126.22 129.966 126.256 127.912 126.273L121.738 126.309L115.569 126.273C113.509 126.256 111.455 126.214 109.395 126.16Z" fill="#E5E5E5"/>
<path d="M109.395 128.835C111.455 128.776 113.509 128.74 115.569 128.722L121.738 128.686L127.912 128.716C129.966 128.716 132.027 128.776 134.081 128.835C132.027 128.889 129.966 128.931 127.912 128.949L121.738 128.985L115.569 128.949C113.509 128.895 111.455 128.835 109.395 128.835Z" fill="#E5E5E5"/>
<path d="M109.395 131.445C111.455 131.391 113.509 131.349 115.569 131.331L121.738 131.295L127.912 131.331C129.966 131.331 132.027 131.391 134.081 131.445C132.027 131.498 129.966 131.54 127.912 131.558L121.738 131.594L115.569 131.558C113.509 131.54 111.455 131.498 109.395 131.445Z" fill="#E5E5E5"/>
<path d="M109.395 134.084C111.455 134.031 113.509 133.995 115.569 133.971L121.738 133.935L127.912 133.971C129.966 133.971 132.027 134.031 134.081 134.084C132.027 134.144 129.966 134.18 127.912 134.204H121.738H115.569C113.509 134.21 111.455 134.144 109.395 134.084Z" fill="#E5E5E5"/>
<path d="M109.395 136.73C111.455 136.676 113.509 136.634 115.569 136.616L121.738 136.581L127.912 136.616C129.966 136.616 132.027 136.676 134.081 136.73C132.027 136.784 129.966 136.825 127.912 136.843L121.738 136.879L115.569 136.843C113.509 136.825 111.455 136.784 109.395 136.73Z" fill="#E5E5E5"/>
<path d="M109.395 139.369C111.455 139.315 113.509 139.273 115.569 139.256L121.738 139.22L127.912 139.256C129.966 139.256 132.027 139.315 134.081 139.369C132.027 139.423 129.966 139.465 127.912 139.482L121.738 139.518L115.569 139.482C113.509 139.465 111.455 139.423 109.395 139.369Z" fill="#E5E5E5"/>
<path d="M109.395 142.015C111.455 141.955 113.509 141.919 115.569 141.895L121.738 141.865L127.912 141.895C129.966 141.895 132.027 141.955 134.081 142.015C132.027 142.068 129.966 142.104 127.912 142.128L121.738 142.164L115.569 142.128C113.509 142.104 111.455 142.068 109.395 142.015Z" fill="#E5E5E5"/>
<path d="M109.395 144.654C111.455 144.6 113.509 144.559 115.569 144.541L121.738 144.505L127.912 144.541C129.966 144.541 132.027 144.6 134.081 144.654C132.027 144.708 129.966 144.75 127.912 144.768L121.738 144.803L115.569 144.768C113.509 144.75 111.455 144.708 109.395 144.654Z" fill="#E5E5E5"/>
<path d="M109.395 147.293C111.455 147.24 113.509 147.204 115.569 147.18L121.738 147.144L127.912 147.18C129.966 147.18 132.027 147.24 134.081 147.293C132.027 147.353 129.966 147.389 127.912 147.413L121.738 147.443L115.569 147.413C113.509 147.389 111.455 147.347 109.395 147.293Z" fill="#E5E5E5"/>
<path d="M109.395 149.939C111.455 149.885 113.509 149.843 115.569 149.825L121.738 149.79L127.912 149.825C129.966 149.825 132.027 149.885 134.081 149.939C132.027 149.993 129.966 150.034 127.912 150.052L121.738 150.088L115.569 150.052C113.509 150.034 111.455 149.993 109.395 149.939Z" fill="#E5E5E5"/>
<path d="M109.395 152.578C111.455 152.524 113.509 152.482 115.569 152.465L121.738 152.429L127.912 152.465C129.966 152.465 132.027 152.524 134.081 152.578C132.027 152.632 129.966 152.674 127.912 152.691L121.738 152.727L115.569 152.721C113.509 152.674 111.455 152.632 109.395 152.578Z" fill="#E5E5E5"/>
<path d="M109.395 155.224C111.455 155.164 113.509 155.128 115.569 155.104L121.738 155.074L127.912 155.104C129.966 155.104 132.027 155.164 134.081 155.224C132.027 155.277 129.966 155.313 127.912 155.337L121.738 155.373L115.569 155.337C113.509 155.313 111.455 155.277 109.395 155.224Z" fill="#E5E5E5"/>
<path d="M109.395 157.863C111.455 157.809 113.509 157.768 115.569 157.75L121.738 157.714L127.912 157.75C129.966 157.75 132.027 157.809 134.081 157.863C132.027 157.917 129.966 157.959 127.912 157.977L121.738 158.012L115.569 157.977C113.509 157.959 111.455 157.917 109.395 157.863Z" fill="#E5E5E5"/>
<path d="M24.2402 120.302V114.229L134.08 105.051V111.124L24.2402 120.302Z" fill="#008ECC"/>
<path d="M36.1355 122.613V119.305L24.2402 120.302L36.1355 122.613Z" fill="#E5E5E5"/>
<path d="M96.2452 124.136H49.2852V145.603H96.2452V124.136Z" fill="#008ECC"/>
<path d="M64.3583 125.963H51.1016V143.782H64.3583V125.963Z" fill="#D4D4D4"/>
<path d="M79.3935 125.963H66.1367V143.782H79.3935V125.963Z" fill="#D4D4D4"/>
<path d="M94.4365 125.963H81.1797V143.782H94.4365V125.963Z" fill="#D4D4D4"/>
<g opacity="0.1">
<path d="M61.8861 125.963L51.1016 136.747V130.848L55.9863 125.963H61.8861Z" fill="white"/>
<path d="M94.4308 136.753V142.647L93.3022 143.776H87.4023L94.4308 136.753Z" fill="white"/>
<path d="M54.1055 143.776L64.3526 133.529V136.479L57.0554 143.776H54.1055Z" fill="white"/>
<path d="M74.8671 125.963L66.1367 134.693V131.743L71.9172 125.963H74.8671Z" fill="white"/>
<path d="M94.4305 130.4V133.35L84.0042 143.776H81.1797V143.651L94.4305 130.4Z" fill="white"/>
<path d="M70.377 143.776L79.394 134.759V135.499L71.1174 143.776H70.377Z" fill="white"/>
<path d="M88.9307 125.963L81.1797 133.714V132.973L88.1903 125.963H88.9307Z" fill="white"/>
<path d="M51.2559 143.776L64.3514 130.68V131.415L51.9904 143.776H51.2559Z" fill="white"/>
<path d="M69.8032 125.963L66.1367 129.629V128.895L69.0687 125.963H69.8032Z" fill="white"/>
</g>
<path d="M129.574 124.136H113.904V159.69H129.574V124.136Z" fill="#008ECC"/>
<path d="M117.535 143.364H114.627V144.17H117.535V143.364Z" fill="#E5E5E5"/>
<path d="M127.53 125.963H115.945V142.564H127.53V125.963Z" fill="#E5E5E5"/>
<path d="M127.327 144.702H115.742V157.588H127.327V144.702Z" fill="#E5E5E5"/>
<g opacity="0.1">
<path d="M127.53 126.673V132.573L117.54 142.564H115.945V138.258L127.53 126.673Z" fill="white"/>
<path d="M127.19 144.702L115.742 156.149V153.199L124.24 144.702H127.19Z" fill="white"/>
<path d="M127.529 141.411V142.564H126.377L127.529 141.411Z" fill="white"/>
<path d="M122.747 125.963L115.945 132.764V129.815L119.797 125.963H122.747Z" fill="white"/>
<path d="M127.328 146.881V147.622L117.362 157.588H116.621L127.328 146.881Z" fill="white"/>
</g>
<path d="M134.082 159.69V85.894L225.99 108.974V159.69H134.082Z" fill="#008ECC"/>
<path d="M238.249 112.055L124.098 83.3921V77.1519L238.249 105.815V112.055Z" fill="#008ECC"/>
<path d="M225.988 108.974V114.641L238.248 112.055L225.988 108.974Z" fill="#D4D4D4"/>
<path d="M155.835 94.5826V124.136H137.078V89.8711L155.835 94.5826Z" fill="#D4D4D4"/>
<path d="M155.829 127.223H137.078V156.609H155.829V127.223Z" fill="#D4D4D4"/>
<path d="M177.971 100.142V124.136H159.209V95.4307L177.971 100.142Z" fill="#D4D4D4"/>
<path d="M177.966 127.223H159.209V156.609H177.966V127.223Z" fill="#D4D4D4"/>
<path d="M200.102 105.696V124.136H181.346V100.99L200.102 105.696Z" fill="#D4D4D4"/>
<path d="M200.096 127.223H181.346V156.609H200.096V127.223Z" fill="#D4D4D4"/>
<path d="M222.233 111.255V124.136H203.477V106.543L222.233 111.255Z" fill="#D4D4D4"/>
<path d="M222.233 127.223H203.477V156.609H222.233V127.223Z" fill="#D4D4D4"/>
<g opacity="0.1">
<path d="M145.57 92.0032L137.078 100.495V94.5948L140.852 90.8208L145.57 92.0032Z" fill="white"/>
<path d="M222.233 143.394V149.294L214.917 156.609H209.018L222.233 143.394Z" fill="white"/>
<path d="M170.572 156.609L177.965 149.216V155.116L176.472 156.609H170.572Z" fill="white"/>
<path d="M200.096 127.223V132.98L181.346 151.736V145.836L199.953 127.223H200.096Z" fill="white"/>
<path d="M203.477 127.223H205.853L203.477 129.6V127.223Z" fill="white"/>
<path d="M221.911 111.166L208.941 124.136H203.477V123.7L217.193 109.983L221.911 111.166Z" fill="white"/>
<path d="M137.078 148.404L155.835 129.647V132.597L137.078 151.354V148.404Z" fill="white"/>
<path d="M159.209 127.223H161.209L159.209 129.224V127.223Z" fill="white"/>
<path d="M161.348 124.136L177.966 107.517V110.467L164.298 124.136H161.348Z" fill="white"/>
<path d="M186.218 102.214L181.346 107.087V104.137L183.86 101.623L186.218 102.214Z" fill="white"/>
<path d="M155.835 94.5827V96.5891L137.078 115.346V112.402L155.088 94.3916L155.835 94.5827Z" fill="white"/>
<path d="M162.971 156.609L177.965 141.621V144.565L165.921 156.609H162.971Z" fill="white"/>
<path d="M195.307 127.223L181.346 141.185V138.241L192.363 127.223H195.307Z" fill="white"/>
<path d="M195.451 124.136L200.097 119.49V122.434L198.395 124.136H195.451Z" fill="white"/>
<path d="M213.479 109.052L203.477 119.054V116.11L211.126 108.46L213.479 109.052Z" fill="white"/>
<path d="M190.279 156.609L200.096 146.792V147.532L191.02 156.609H190.279Z" fill="white"/>
<path d="M220.406 127.223L203.477 144.152V143.412L219.665 127.223H220.406Z" fill="white"/>
<path d="M150.962 127.223H151.702L137.078 141.841V141.113L150.962 127.223Z" fill="white"/>
<path d="M154.049 124.136L155.834 122.351V123.091L154.789 124.136H154.049Z" fill="white"/>
<path d="M177.966 100.22V100.96L159.209 119.717V118.976L177.966 100.22Z" fill="white"/>
</g>
<path d="M239.766 163.512H22.7188V167.334H239.766V163.512Z" fill="#D4D4D4"/>
<path d="M234.731 159.69H27.7578V163.512H234.731V159.69Z" fill="#D4D4D4"/>
<path d="M27.7578 163.512V162.557L234.731 161.601V163.512H27.7578Z" fill="#A3A3A3"/>
<path d="M188.21 103.039H182.25V248.857H188.21V103.039Z" fill="#E5E5E5"/>
<path d="M188.21 105.421V142.552L182.25 142.331V105.2L188.21 105.421Z" fill="#D4D4D4"/>
<path d="M213.522 107.063H156.93V140.044H213.522V107.063Z" fill="#EBEBEB"/>
<path d="M210.817 109.852H159.635V137.249H210.817V109.852Z" fill="#008ECC"/>
<path opacity="0.1" d="M210.817 109.852H159.635V137.249H210.817V109.852Z" fill="#171717"/>
<path d="M175.239 127.384C175.281 128.428 174.968 129.456 174.349 130.298C173.934 130.873 173.34 131.294 172.659 131.493C172.215 131.619 171.754 131.679 171.292 131.672C170.439 131.703 169.599 131.451 168.903 130.955C168.353 130.543 167.92 129.993 167.649 129.361C167.318 128.631 167.125 127.845 167.082 127.044L169.429 126.871C169.453 127.624 169.717 128.35 170.181 128.943C170.306 129.091 170.462 129.209 170.639 129.288C170.816 129.367 171.009 129.404 171.202 129.397C171.468 129.389 171.727 129.312 171.954 129.172C172.18 129.033 172.366 128.836 172.492 128.602C172.674 128.273 172.759 127.898 172.737 127.522C172.699 126.755 172.368 126.032 171.811 125.503L169.626 123.425C168.945 122.806 168.359 122.09 167.888 121.299C167.523 120.591 167.337 119.803 167.345 119.006C167.303 118.365 167.417 117.722 167.678 117.135C167.939 116.547 168.339 116.031 168.844 115.632C169.511 115.155 170.317 114.912 171.137 114.94C171.929 114.921 172.709 115.128 173.388 115.537C173.891 115.851 174.303 116.291 174.582 116.815C174.896 117.398 175.081 118.041 175.126 118.702L172.767 119.132C172.729 118.562 172.521 118.017 172.17 117.567C172.049 117.431 171.898 117.323 171.73 117.254C171.561 117.185 171.378 117.155 171.196 117.167C170.985 117.159 170.777 117.211 170.594 117.317C170.411 117.423 170.262 117.578 170.163 117.764C169.962 118.129 169.863 118.542 169.877 118.958C169.918 119.81 170.261 120.618 170.844 121.24C171.174 121.62 171.54 121.968 171.937 122.279C172.534 122.756 172.886 123.091 173.071 123.282C173.618 123.813 174.09 124.416 174.475 125.073C174.613 125.325 174.737 125.584 174.845 125.85C175.067 126.334 175.2 126.853 175.239 127.384Z" fill="white"/>
<path d="M181.138 114.916C181.651 114.916 182.159 115.017 182.633 115.213C183.106 115.41 183.537 115.697 183.9 116.06C184.262 116.423 184.55 116.853 184.746 117.327C184.942 117.801 185.043 118.309 185.043 118.821V127.737C185.044 128.51 184.814 129.265 184.385 129.908C183.955 130.55 183.345 131.051 182.631 131.346C181.916 131.642 181.131 131.719 180.373 131.567C179.615 131.416 178.919 131.043 178.373 130.496C178.008 130.136 177.719 129.706 177.524 129.232C177.329 128.758 177.232 128.249 177.239 127.737V118.821C177.239 117.787 177.649 116.794 178.38 116.062C179.111 115.33 180.103 114.918 181.138 114.916ZM182.476 118.774C182.48 118.588 182.446 118.404 182.376 118.233C182.307 118.061 182.202 117.906 182.07 117.776C181.803 117.513 181.444 117.365 181.069 117.365C180.695 117.365 180.335 117.513 180.069 117.776C179.934 117.904 179.827 118.059 179.755 118.231C179.683 118.403 179.648 118.587 179.651 118.774V127.731C179.648 127.917 179.683 128.102 179.755 128.274C179.827 128.445 179.934 128.6 180.069 128.728C180.335 128.992 180.695 129.14 181.069 129.14C181.444 129.14 181.803 128.992 182.07 128.728C182.202 128.599 182.307 128.443 182.376 128.272C182.446 128.1 182.48 127.916 182.476 127.731V118.774Z" fill="white"/>
<path d="M193.955 131.445H187.225V115.101H189.685V128.973H193.955V131.445Z" fill="white"/>
<path d="M203.358 127.54C203.366 128.052 203.27 128.561 203.076 129.035C202.882 129.509 202.594 129.939 202.23 130.299C201.877 130.667 201.452 130.959 200.981 131.156C200.511 131.353 200.005 131.452 199.495 131.445H195.625V115.101H199.495C200.006 115.093 200.513 115.19 200.985 115.387C201.457 115.585 201.883 115.878 202.235 116.248C202.599 116.606 202.886 117.034 203.079 117.506C203.272 117.978 203.367 118.485 203.358 118.995V127.54ZM198.085 129.009H199.572C199.757 129.013 199.941 128.977 200.111 128.904C200.281 128.83 200.433 128.722 200.557 128.585C200.688 128.455 200.79 128.3 200.86 128.13C200.93 127.96 200.965 127.777 200.964 127.594V119.042C200.966 118.857 200.931 118.673 200.861 118.501C200.79 118.33 200.685 118.174 200.552 118.045C200.426 117.911 200.275 117.804 200.106 117.732C199.937 117.66 199.756 117.625 199.572 117.627H198.085V129.009Z" fill="white"/>
</svg>
