<svg width="308" height="257" viewBox="0 0 308 257" fill="none" xmlns="http://www.w3.org/2000/svg">
<path d="M304.709 98.5263C301.88 96.959 300.587 98.2677 299.56 96.959C298.534 95.6503 302.389 92.3276 294.67 88.9815C294.67 88.9815 294.153 81.7797 283.605 81.5211C273.057 81.2625 275.886 88.7229 273.057 90.5252C270.228 92.3276 269.453 89.4987 266.624 91.3089C263.795 93.1191 265.056 96.7082 262.768 97.2254C260.652 97.6956 257.902 95.3917 255.284 96.3477C254.411 93.4351 253.201 90.6343 251.68 88.0019C242.127 71.6002 221.298 64.038 204.99 59.4223C153.089 44.7446 140.535 80.7845 108.366 100.634C76.1974 120.484 38.3864 102.202 20.0177 116.456C1.64903 130.711 -4.47909 166.124 4.48584 182.455C13.4508 198.786 33.277 204.107 36.3411 211.936C39.4052 219.764 38.4491 222.327 38.4491 222.327H279.029C280.91 222.327 285.878 212.257 286.865 210.298C292.414 199.162 293.087 188.113 283.347 179.555C273.943 171.296 257.682 166.1 256.538 150.749C255.394 135.397 259.328 117.945 256.671 102.374H306.746C306.746 102.374 307.538 100.07 304.709 98.5263ZM106.72 187.792H41.6229C41.6229 187.792 43.4253 186.506 44.9691 185.441C46.5128 184.375 49.0832 185.441 50.3684 185.441C51.6536 185.441 51.6536 183.873 54.4904 182.102C57.3272 180.331 60.4069 183.129 62.7187 182.612C65.0304 182.094 63.7531 178.498 66.5821 176.695C69.411 174.893 70.1868 177.722 73.0158 175.911C75.8448 174.101 73.0158 166.641 83.5637 166.9C94.1116 167.158 94.6288 174.368 94.6288 174.368C102.348 177.706 98.4843 181.052 99.5188 182.337C100.553 183.623 101.831 182.337 104.667 183.905C107.504 185.472 106.72 187.792 106.72 187.792ZM212.301 73.1988H170.525C170.525 73.1988 171.677 72.4151 172.672 71.7177C173.667 71.0203 175.313 71.7177 176.136 71.7177C176.959 71.7177 176.967 70.7225 178.777 69.5705C180.587 68.4186 182.578 70.2288 184.066 69.8996C185.555 69.5705 184.725 67.2588 186.543 66.099C188.361 64.9392 188.855 66.7572 190.673 65.6053C192.491 64.4533 190.673 59.6574 197.443 59.8219C204.214 59.9865 204.543 64.61 204.543 64.61C209.496 66.7572 207.02 68.9044 207.678 69.7351C208.336 70.5657 209.167 69.7351 210.985 70.7225C212.803 71.7099 212.301 73.1988 212.301 73.1988Z" fill="#F5F5F5"/>
<path d="M135.441 33.178C132.604 31.6107 131.319 32.9194 130.292 31.6107C129.266 30.302 133.121 26.9793 125.402 23.6331C125.402 23.6331 124.885 16.4314 114.337 16.1728C103.789 15.9142 106.618 23.3745 103.789 25.1769C100.96 26.9793 100.185 24.1504 97.3556 25.9606C94.5267 27.7708 95.7884 31.3599 93.4923 31.8771C91.1962 32.3943 88.0929 29.5262 85.264 31.3599C82.435 33.1936 82.4272 34.7061 81.142 34.7061C79.8568 34.7061 77.2864 33.6795 75.7427 34.7061C74.1989 35.7327 72.3965 37.057 72.3965 37.057H137.494C137.494 37.057 138.27 34.7453 135.441 33.178Z" fill="#F5F5F5"/>
<g opacity="0.7">
<path d="M304.71 98.5263C301.881 96.959 300.588 98.2677 299.561 96.959C298.535 95.6503 302.39 92.3276 294.671 88.9815C294.671 88.9815 294.154 81.7797 283.606 81.5211C273.058 81.2625 275.887 88.7229 273.058 90.5252C270.229 92.3276 269.454 89.4987 266.625 91.3089C263.796 93.1191 265.057 96.7082 262.769 97.2254C260.653 97.6956 257.903 95.3917 255.285 96.3477C254.412 93.4351 253.202 90.6343 251.681 88.0019C242.128 71.6002 221.299 64.038 204.991 59.4223C153.09 44.7446 140.536 80.7845 108.367 100.634C76.1984 120.484 38.3874 102.202 20.0187 116.456C1.65001 130.711 -4.47811 166.124 4.48681 182.455C13.4517 198.786 33.278 204.107 36.3421 211.936C39.4061 219.764 38.4501 222.327 38.4501 222.327H279.03C280.911 222.327 285.879 212.257 286.866 210.298C292.415 199.162 293.088 188.113 283.348 179.555C273.944 171.296 257.683 166.1 256.539 150.749C255.395 135.397 259.329 117.945 256.672 102.374H306.747C306.747 102.374 307.539 100.07 304.71 98.5263ZM106.721 187.792H41.6239C41.6239 187.792 43.4263 186.506 44.97 185.441C46.5138 184.375 49.0842 185.441 50.3694 185.441C51.6545 185.441 51.6545 183.873 54.4914 182.102C57.3282 180.331 60.4079 183.129 62.7197 182.612C65.0314 182.094 63.7541 178.498 66.583 176.695C69.412 174.893 70.1878 177.722 73.0168 175.911C75.8457 174.101 73.0168 166.641 83.5647 166.9C94.1126 167.158 94.6298 174.368 94.6298 174.368C102.349 177.706 98.4853 181.052 99.5197 182.337C100.554 183.623 101.831 182.337 104.668 183.905C107.505 185.472 106.721 187.792 106.721 187.792ZM212.302 73.1988H170.526C170.526 73.1988 171.678 72.4151 172.673 71.7177C173.668 71.0203 175.314 71.7177 176.137 71.7177C176.96 71.7177 176.968 70.7225 178.778 69.5705C180.588 68.4186 182.579 70.2288 184.067 69.8996C185.556 69.5705 184.726 67.2588 186.544 66.099C188.362 64.9392 188.856 66.7572 190.674 65.6053C192.492 64.4533 190.674 59.6574 197.444 59.8219C204.215 59.9865 204.544 64.61 204.544 64.61C209.497 66.7572 207.02 68.9044 207.679 69.7351C208.337 70.5657 209.168 69.7351 210.986 70.7225C212.804 71.7099 212.302 73.1988 212.302 73.1988Z" fill="#F0F0F0"/>
<path d="M135.441 33.178C132.604 31.6107 131.319 32.9194 130.292 31.6107C129.266 30.302 133.121 26.9793 125.402 23.6331C125.402 23.6331 124.885 16.4314 114.337 16.1728C103.789 15.9142 106.618 23.3745 103.789 25.1769C100.96 26.9793 100.185 24.1504 97.3556 25.9606C94.5267 27.7708 95.7884 31.3599 93.4923 31.8771C91.1962 32.3943 88.0929 29.5262 85.264 31.3599C82.435 33.1936 82.4272 34.7061 81.142 34.7061C79.8568 34.7061 77.2864 33.6795 75.7427 34.7061C74.1989 35.7327 72.3965 37.057 72.3965 37.057H137.494C137.494 37.057 138.27 34.7453 135.441 33.178Z" fill="#F0F0F0"/>
</g>
<path d="M299.936 171.742L307.585 192.235H302.373L297.162 176.256L299.936 171.742Z" fill="white" stroke="#016FA3" stroke-width="0.186432" stroke-linecap="round" stroke-linejoin="round"/>
<path d="M304.103 222.342H235.213V187.141L299.174 177.369L304.103 190.957V222.342Z" fill="#016FA3"/>
<path d="M244.705 115.813H154.852V222.343H244.705V115.813Z" fill="#016FA3"/>
<path d="M149.318 124.426L145.494 119.473L200.279 77.1797L254.061 118.705L250.244 123.658L200.279 85.0789L149.318 124.426Z" fill="#016FA3"/>
<path d="M228.263 115.813H138.41V222.343H228.263V115.813Z" fill="white" stroke="#016FA3" stroke-width="0.186432" stroke-linecap="round" stroke-linejoin="round"/>
<path d="M183.337 81.1292L138.41 115.813H228.263L183.337 81.1292Z" fill="white" stroke="#016FA3" stroke-width="0.186432" stroke-linejoin="round"/>
<g style="mix-blend-mode:multiply">
<path d="M183.337 81.1292L138.41 115.813V123.713L148.645 115.813L183.337 89.0283L218.037 115.813L228.263 123.713V115.813L183.337 81.1292Z" fill="#008ECC"/>
</g>
<path d="M297.16 187.141H228.262V222.343H297.16V187.141Z" fill="white" stroke="#016FA3" stroke-width="0.186432" stroke-linecap="round" stroke-linejoin="round"/>
<path d="M290.217 187.141H235.213V222.343H290.217V187.141Z" fill="#36C5FA" stroke="#016FA3" stroke-width="0.186432" stroke-linecap="round" stroke-linejoin="round"/>
<g style="mix-blend-mode:multiply">
<path d="M297.16 187.141H228.262V194.688H297.16V187.141Z" fill="#008ECC"/>
</g>
<path d="M235.213 197.446H290.209" stroke="#016FA3" stroke-width="0.186432" stroke-linecap="round" stroke-linejoin="round"/>
<path d="M235.213 202.657H290.209" stroke="#016FA3" stroke-width="0.186432" stroke-linecap="round" stroke-linejoin="round"/>
<path d="M235.213 207.868H290.209" stroke="#016FA3" stroke-width="0.186432" stroke-linecap="round" stroke-linejoin="round"/>
<path d="M235.213 213.08H290.209" stroke="#016FA3" stroke-width="0.186432" stroke-linecap="round" stroke-linejoin="round"/>
<path d="M235.213 218.291H290.209" stroke="#016FA3" stroke-width="0.186432" stroke-linecap="round" stroke-linejoin="round"/>
<path d="M163.885 182.972H145.822V222.342H163.885V182.972Z" fill="#36C5FA"/>
<path d="M191.44 182.972H173.377V210.298H191.44V182.972Z" fill="white" stroke="#016FA3" stroke-width="0.186432" stroke-linecap="round" stroke-linejoin="round"/>
<path d="M191.44 195.479H173.377V197.799H191.44V195.479Z" fill="#36C5FA"/>
<path d="M183.572 182.972H181.252V210.298H183.572V182.972Z" fill="#36C5FA"/>
<path d="M224.555 182.972H206.492V210.298H224.555V182.972Z" fill="white" stroke="#016FA3" stroke-width="0.186432" stroke-linecap="round" stroke-linejoin="round"/>
<path d="M224.555 195.479H206.492V197.799H224.555V195.479Z" fill="#36C5FA"/>
<path d="M216.689 182.972H214.369V210.298H216.689V182.972Z" fill="#36C5FA"/>
<path d="M201.282 182.972H197.818V222.342H201.282V182.972Z" fill="white" stroke="#016FA3" stroke-width="0.186432" stroke-linecap="round" stroke-linejoin="round"/>
<path d="M171.001 182.972H167.537V222.342H171.001V182.972Z" fill="white" stroke="#016FA3" stroke-width="0.186432" stroke-linecap="round" stroke-linejoin="round"/>
<path d="M224.555 184.594H142.578V189.688H224.555V184.594Z" fill="#016FA3"/>
<path d="M224.555 182.047H142.578V187.141H224.555V182.047Z" fill="#008ECC" stroke="#016FA3" stroke-width="0.186432" stroke-linecap="round" stroke-linejoin="round"/>
<path d="M132.375 124.426L128.551 119.473L183.336 77.1797L237.117 118.705L233.301 123.658L183.336 85.0789L132.375 124.426Z" fill="white" stroke="#016FA3" stroke-width="0.186432" stroke-linejoin="round"/>
<path d="M297.161 192.235H221.414L228.365 171.742H299.936L297.161 192.235Z" fill="#016FA3"/>
<path d="M237.118 118.705H252.634L200.278 77.1797H183.336L237.118 118.705Z" fill="#016FA3"/>
<path d="M233.301 123.658H250.243L254.06 118.705H237.117L233.301 123.658Z" fill="#016FA3"/>
<path d="M155.547 131.565H145.822V147.316H155.547V131.565Z" fill="white" stroke="#016FA3" stroke-width="0.186432" stroke-linecap="round" stroke-linejoin="round"/>
<path d="M155.547 139.44H145.822V147.316H155.547V139.44Z" fill="#36C5FA"/>
<path d="M155.547 138.563H145.822V140.318H155.547V138.563Z" fill="white" stroke="#016FA3" stroke-width="0.186432" stroke-linecap="round" stroke-linejoin="round"/>
<path d="M155.547 154.259H145.822V170.011H155.547V154.259Z" fill="white" stroke="#016FA3" stroke-width="0.186432" stroke-linecap="round" stroke-linejoin="round"/>
<path d="M155.547 162.056H145.822V170.003H155.547V162.056Z" fill="#36C5FA"/>
<path d="M221.311 131.565H211.586V147.316H221.311V131.565Z" fill="white" stroke="#016FA3" stroke-width="0.186432" stroke-linecap="round" stroke-linejoin="round"/>
<path d="M221.311 139.44H211.586V147.316H221.311V139.44Z" fill="#36C5FA"/>
<path d="M221.311 154.259H211.586V170.011H221.311V154.259Z" fill="white" stroke="#016FA3" stroke-width="0.186432" stroke-linecap="round" stroke-linejoin="round"/>
<path d="M221.311 161.179H211.586V170.003H221.311V161.179Z" fill="#36C5FA"/>
<path d="M187.27 131.565H177.545V147.316H187.27V131.565Z" fill="white" stroke="#016FA3" stroke-width="0.186432" stroke-linecap="round" stroke-linejoin="round"/>
<path d="M187.27 139.44H177.545V147.316H187.27V139.44Z" fill="#36C5FA"/>
<path d="M187.27 154.259H177.545V170.011H187.27V154.259Z" fill="white" stroke="#016FA3" stroke-width="0.186432" stroke-linecap="round" stroke-linejoin="round"/>
<path d="M187.27 161.179H177.545V170.003H187.27V161.179Z" fill="#36C5FA"/>
<path d="M187.27 138.563H177.545V140.318H187.27V138.563Z" fill="white" stroke="#016FA3" stroke-width="0.186432" stroke-linecap="round" stroke-linejoin="round"/>
<path d="M221.311 138.563H211.586V140.318H221.311V138.563Z" fill="white" stroke="#016FA3" stroke-width="0.186432" stroke-linecap="round" stroke-linejoin="round"/>
<path d="M155.547 160.301H145.822V162.056H155.547V160.301Z" fill="white" stroke="#016FA3" stroke-width="0.186432" stroke-linecap="round" stroke-linejoin="round"/>
<path d="M187.27 160.301H177.545V162.056H187.27V160.301Z" fill="white" stroke="#016FA3" stroke-width="0.186432" stroke-linecap="round" stroke-linejoin="round"/>
<path d="M221.311 160.301H211.586V162.056H221.311V160.301Z" fill="white" stroke="#016FA3" stroke-width="0.186432" stroke-linecap="round" stroke-linejoin="round"/>
<path d="M146.332 120.562V124.426" stroke="#016FA3" stroke-width="0.186432" stroke-linecap="round" stroke-linejoin="round"/>
<path d="M153.283 120.562V124.426" stroke="#016FA3" stroke-width="0.186432" stroke-linecap="round" stroke-linejoin="round"/>
<path d="M149.318 124.426V128.289" stroke="#016FA3" stroke-width="0.186432" stroke-linecap="round" stroke-linejoin="round"/>
<path d="M157.256 124.426V128.289" stroke="#016FA3" stroke-width="0.186432" stroke-linecap="round" stroke-linejoin="round"/>
<path d="M143.252 124.426H159.129" stroke="#016FA3" stroke-width="0.186432" stroke-linecap="round" stroke-linejoin="round"/>
<path d="M146.332 172.166V176.029" stroke="#016FA3" stroke-width="0.186432" stroke-linecap="round" stroke-linejoin="round"/>
<path d="M153.283 172.166V176.029" stroke="#016FA3" stroke-width="0.186432" stroke-linecap="round" stroke-linejoin="round"/>
<path d="M149.318 176.029V179.892" stroke="#016FA3" stroke-width="0.186432" stroke-linecap="round" stroke-linejoin="round"/>
<path d="M157.256 176.029V179.892" stroke="#016FA3" stroke-width="0.186432" stroke-linecap="round" stroke-linejoin="round"/>
<path d="M143.252 176.029H159.129" stroke="#016FA3" stroke-width="0.186432" stroke-linecap="round" stroke-linejoin="round"/>
<path d="M160.414 135.569V139.44" stroke="#016FA3" stroke-width="0.186432" stroke-linecap="round" stroke-linejoin="round"/>
<path d="M167.365 135.569V139.44" stroke="#016FA3" stroke-width="0.186432" stroke-linecap="round" stroke-linejoin="round"/>
<path d="M163.4 139.44V143.304" stroke="#016FA3" stroke-width="0.186432" stroke-linecap="round" stroke-linejoin="round"/>
<path d="M171.338 139.44V143.304" stroke="#016FA3" stroke-width="0.186432" stroke-linecap="round" stroke-linejoin="round"/>
<path d="M157.334 139.44H173.211" stroke="#016FA3" stroke-width="0.186432" stroke-linecap="round" stroke-linejoin="round"/>
<path d="M160.414 143.304H173.211" stroke="#016FA3" stroke-width="0.186432" stroke-linecap="round" stroke-linejoin="round"/>
<path d="M160.414 143.445V147.308" stroke="#016FA3" stroke-width="0.186432" stroke-linecap="round" stroke-linejoin="round"/>
<path d="M167.365 143.445V147.308" stroke="#016FA3" stroke-width="0.186432" stroke-linecap="round" stroke-linejoin="round"/>
<path d="M163.4 147.308V151.171" stroke="#016FA3" stroke-width="0.186432" stroke-linecap="round" stroke-linejoin="round"/>
<path d="M171.338 147.308V151.171" stroke="#016FA3" stroke-width="0.186432" stroke-linecap="round" stroke-linejoin="round"/>
<path d="M157.334 147.308H173.211" stroke="#016FA3" stroke-width="0.186432" stroke-linecap="round" stroke-linejoin="round"/>
<path d="M195.035 161.351V165.214" stroke="#016FA3" stroke-width="0.186432" stroke-linecap="round" stroke-linejoin="round"/>
<path d="M201.986 161.351V165.214" stroke="#016FA3" stroke-width="0.186432" stroke-linecap="round" stroke-linejoin="round"/>
<path d="M198.021 165.215V169.078" stroke="#016FA3" stroke-width="0.186432" stroke-linecap="round" stroke-linejoin="round"/>
<path d="M205.961 165.215V169.078" stroke="#016FA3" stroke-width="0.186432" stroke-linecap="round" stroke-linejoin="round"/>
<path d="M191.957 165.215H207.834" stroke="#016FA3" stroke-width="0.186432" stroke-linecap="round" stroke-linejoin="round"/>
<path d="M195.035 169.078H207.832" stroke="#016FA3" stroke-width="0.186432" stroke-linecap="round" stroke-linejoin="round"/>
<path d="M195.035 169.227V173.09" stroke="#016FA3" stroke-width="0.186432" stroke-linecap="round" stroke-linejoin="round"/>
<path d="M201.986 169.227V173.09" stroke="#016FA3" stroke-width="0.186432" stroke-linecap="round" stroke-linejoin="round"/>
<path d="M198.021 173.09V176.954" stroke="#016FA3" stroke-width="0.186432" stroke-linecap="round" stroke-linejoin="round"/>
<path d="M205.961 173.09V176.954" stroke="#016FA3" stroke-width="0.186432" stroke-linecap="round" stroke-linejoin="round"/>
<path d="M191.957 173.09H207.834" stroke="#016FA3" stroke-width="0.186432" stroke-linecap="round" stroke-linejoin="round"/>
<path d="M59.0176 70.5408V133.75H150.963V70.5408H59.0176ZM67.5593 78.3067C67.0572 78.3067 66.5663 78.1578 66.1487 77.8788C65.7312 77.5998 65.4058 77.2033 65.2136 76.7393C65.0214 76.2754 64.9711 75.7649 65.0691 75.2724C65.1671 74.7798 65.4089 74.3274 65.764 73.9723C66.1191 73.6173 66.5715 73.3754 67.064 73.2775C67.5565 73.1795 68.067 73.2298 68.531 73.422C68.9949 73.6141 69.3915 73.9396 69.6705 74.3571C69.9494 74.7746 70.0984 75.2655 70.0984 75.7677C70.0984 76.4411 69.8308 77.0869 69.3547 77.5631C68.8785 78.0392 68.2327 78.3067 67.5593 78.3067ZM142.335 78.3067C141.833 78.3067 141.342 78.1578 140.924 77.8788C140.507 77.5998 140.181 77.2033 139.989 76.7393C139.797 76.2754 139.747 75.7649 139.845 75.2724C139.943 74.7798 140.185 74.3274 140.54 73.9723C140.895 73.6173 141.347 73.3754 141.84 73.2775C142.332 73.1795 142.843 73.2298 143.307 73.422C143.771 73.6141 144.167 73.9396 144.446 74.3571C144.725 74.7746 144.874 75.2655 144.874 75.7677C144.872 76.4405 144.604 77.0851 144.128 77.5608C143.652 78.0365 143.008 78.3047 142.335 78.3067Z" fill="#008ECC" stroke="#A3A3A3" stroke-width="0.210055" stroke-miterlimit="10"/>
<path d="M144.876 75.7678C144.876 76.2699 144.727 76.7608 144.448 77.1784C144.169 77.5959 143.772 77.9214 143.308 78.1135C142.844 78.3057 142.334 78.356 141.841 78.258C141.349 78.16 140.896 77.9182 140.541 77.5631C140.186 77.208 139.944 76.7556 139.846 76.2631C139.748 75.7706 139.799 75.2601 139.991 74.7961C140.183 74.3322 140.508 73.9357 140.926 73.6567C141.344 73.3777 141.834 73.2288 142.337 73.2288H67.561C68.0632 73.2288 68.5541 73.3777 68.9716 73.6567C69.3891 73.9357 69.7146 74.3322 69.9067 74.7961C70.0989 75.2601 70.1492 75.7706 70.0512 76.2631C69.9533 76.7556 69.7114 77.208 69.3563 77.5631C69.0013 77.9182 68.5488 78.16 68.0563 78.258C67.5638 78.356 67.0533 78.3057 66.5894 78.1135C66.1254 77.9214 65.7289 77.5959 65.4499 77.1784C65.1709 76.7608 65.022 76.2699 65.022 75.7678C65.022 75.0944 65.2895 74.4486 65.7656 73.9724C66.2418 73.4963 66.8876 73.2288 67.561 73.2288H61.668V130.263H147.446V73.2288H142.337C143.01 73.2288 143.656 73.4963 144.132 73.9724C144.608 74.4486 144.876 75.0944 144.876 75.7678Z" fill="#A3A3A3"/>
<path d="M67.5601 46.0911C66.8304 46.0926 66.1176 46.3104 65.5116 46.7169C64.9057 47.1234 64.4338 47.7004 64.1557 48.375C63.8775 49.0496 63.8055 49.7915 63.9488 50.5069C64.0921 51.2224 64.4443 51.8793 64.9608 52.3947C65.4773 52.9101 66.135 53.2609 66.8507 53.4027C67.5665 53.5445 68.3082 53.4709 68.9822 53.1913C69.6562 52.9117 70.2322 52.4386 70.6374 51.8318C71.0426 51.225 71.2589 50.5117 71.2589 49.7821C71.2589 49.2967 71.1632 48.8161 70.9772 48.3678C70.7912 47.9194 70.5186 47.5122 70.1751 47.1694C69.8315 46.8265 69.4237 46.5548 68.975 46.3698C68.5263 46.1848 68.0455 46.09 67.5601 46.0911ZM67.5601 52.2427C67.0738 52.2412 66.5988 52.0955 66.1952 51.8242C65.7916 51.5529 65.4774 51.168 65.2923 50.7183C65.1073 50.2685 65.0597 49.774 65.1555 49.2972C65.2513 48.8204 65.4863 48.3827 65.8308 48.0394C66.1752 47.696 66.6137 47.4624 67.0908 47.3681C67.5679 47.2738 68.0622 47.323 68.5114 47.5095C68.9605 47.6959 69.3444 48.0113 69.6144 48.4158C69.8845 48.8203 70.0286 49.2957 70.0286 49.7821C70.0307 50.1075 69.9683 50.4302 69.8452 50.7315C69.7221 51.0328 69.5406 51.3068 69.3111 51.5377C69.0817 51.7686 68.8089 51.9518 68.5084 52.0768C68.2079 52.2019 67.8856 52.2662 67.5601 52.2662V52.2427Z" fill="white" stroke="#A3A3A3" stroke-width="0.192546" stroke-linecap="round" stroke-linejoin="round"/>
<path d="M67.5601 54.9541C66.8283 54.9541 66.1128 55.1713 65.5044 55.578C64.8959 55.9848 64.4219 56.5629 64.1421 57.2393C63.8624 57.9156 63.7896 58.6597 63.933 59.3774C64.0763 60.0951 64.4294 60.7542 64.9475 61.2712C65.4655 61.7881 66.1253 62.1398 66.8433 62.2816C67.5614 62.4235 68.3053 62.3491 68.9811 62.0679C69.6568 61.7868 70.2339 61.3115 70.6394 60.7022C71.0449 60.0929 71.2605 59.377 71.2589 58.6451C71.2589 58.1597 71.1632 57.6791 70.9772 57.2308C70.7913 56.7825 70.5187 56.3752 70.1751 56.0324C69.8315 55.6896 69.4237 55.4178 68.975 55.2328C68.5263 55.0478 68.0455 54.9531 67.5601 54.9541ZM67.5601 61.1136C67.0719 61.1136 66.5947 60.9688 66.1887 60.6976C65.7828 60.4263 65.4664 60.0408 65.2795 59.5897C65.0927 59.1387 65.0438 58.6424 65.1391 58.1635C65.2343 57.6847 65.4694 57.2448 65.8147 56.8996C66.1599 56.5544 66.5997 56.3193 67.0786 56.224C67.5574 56.1288 68.0537 56.1777 68.5048 56.3645C68.9558 56.5513 69.3414 56.8677 69.6126 57.2737C69.8839 57.6796 70.0286 58.1569 70.0286 58.6451C70.0286 59.2998 69.7686 59.9276 69.3056 60.3906C68.8427 60.8535 68.2148 61.1136 67.5601 61.1136Z" fill="white" stroke="#A3A3A3" stroke-width="0.192546" stroke-linecap="round" stroke-linejoin="round"/>
<path d="M67.5601 62.7671C66.8304 62.7686 66.1176 62.9864 65.5116 63.3929C64.9057 63.7995 64.4338 64.3764 64.1557 65.051C63.8775 65.7256 63.8055 66.4675 63.9488 67.1829C64.0921 67.8984 64.4443 68.5553 64.9608 69.0708C65.4773 69.5862 66.135 69.9369 66.8507 70.0787C67.5665 70.2205 68.3082 70.1469 68.9822 69.8673C69.6562 69.5878 70.2322 69.1147 70.6374 68.5079C71.0426 67.9011 71.2589 67.1878 71.2589 66.4581C71.2589 65.9727 71.1632 65.4921 70.9772 65.0438C70.7912 64.5955 70.5186 64.1882 70.1751 63.8454C69.8315 63.5025 69.4237 63.2308 68.975 63.0458C68.5263 62.8608 68.0455 62.7661 67.5601 62.7671ZM67.5601 68.9187C67.0738 68.9172 66.5988 68.7716 66.1952 68.5002C65.7916 68.2289 65.4774 67.8441 65.2923 67.3943C65.1073 66.9445 65.0597 66.45 65.1555 65.9732C65.2513 65.4964 65.4863 65.0587 65.8308 64.7154C66.1752 64.372 66.6137 64.1385 67.0908 64.0441C67.5679 63.9498 68.0622 63.999 68.5114 64.1855C68.9605 64.372 69.3444 64.6873 69.6144 65.0918C69.8845 65.4963 70.0286 65.9717 70.0286 66.4581C70.0265 67.1114 69.7655 67.7373 69.3028 68.1985C68.8401 68.6597 68.2134 68.9187 67.5601 68.9187Z" fill="white" stroke="#A3A3A3" stroke-width="0.192546" stroke-linecap="round" stroke-linejoin="round"/>
<path d="M67.5606 58.2453C67.3881 58.2453 67.2226 58.1767 67.1007 58.0548C66.9787 57.9328 66.9102 57.7673 66.9102 57.5948V51.5059C66.9102 51.3334 66.9787 51.168 67.1007 51.046C67.2226 50.924 67.3881 50.8555 67.5606 50.8555C67.7338 50.8555 67.9001 50.9237 68.0233 51.0455C68.1465 51.1672 68.2168 51.3327 68.2188 51.5059V57.5948C68.2168 57.768 68.1465 57.9335 68.0233 58.0552C67.9001 58.177 67.7338 58.2453 67.5606 58.2453Z" fill="white" stroke="#A3A3A3" stroke-width="0.192546" stroke-linecap="round" stroke-linejoin="round"/>
<path d="M67.5606 66.6225C67.3881 66.6225 67.2226 66.5539 67.1007 66.4319C66.9787 66.31 66.9102 66.1445 66.9102 65.972V59.8831C66.9102 59.7106 66.9787 59.5452 67.1007 59.4232C67.2226 59.3012 67.3881 59.2327 67.5606 59.2327C67.7338 59.2327 67.9001 59.3009 68.0233 59.4227C68.1465 59.5444 68.2168 59.7099 68.2188 59.8831V65.972C68.2168 66.1452 68.1465 66.3107 68.0233 66.4324C67.9001 66.5542 67.7338 66.6225 67.5606 66.6225Z" fill="white" stroke="#A3A3A3" stroke-width="0.192546" stroke-linecap="round" stroke-linejoin="round"/>
<path d="M67.5606 75.0153C67.3881 75.0153 67.2226 74.9468 67.1007 74.8248C66.9787 74.7028 66.9102 74.5374 66.9102 74.3649V68.2759C66.9102 68.1905 66.927 68.1059 66.9597 68.027C66.9923 67.9481 67.0403 67.8764 67.1007 67.816C67.1611 67.7556 67.2328 67.7077 67.3117 67.675C67.3906 67.6423 67.4752 67.6255 67.5606 67.6255C67.7338 67.6255 67.9001 67.6938 68.0233 67.8155C68.1465 67.9373 68.2168 68.1027 68.2188 68.2759V74.3649C68.2168 74.5381 68.1465 74.7035 68.0233 74.8253C67.9001 74.947 67.7338 75.0153 67.5606 75.0153Z" fill="white" stroke="#A3A3A3" stroke-width="0.192546" stroke-linecap="round" stroke-linejoin="round"/>
<path d="M142.335 46.0911C141.606 46.0926 140.893 46.3104 140.287 46.7169C139.681 47.1234 139.209 47.7004 138.931 48.375C138.653 49.0496 138.581 49.7915 138.724 50.5069C138.868 51.2224 139.22 51.8793 139.736 52.3947C140.253 52.9101 140.91 53.2609 141.626 53.4027C142.342 53.5445 143.084 53.4709 143.758 53.1913C144.432 52.9117 145.008 52.4386 145.413 51.8318C145.818 51.225 146.034 50.5117 146.034 49.7821C146.034 49.2967 145.939 48.8161 145.753 48.3678C145.567 47.9194 145.294 47.5122 144.95 47.1694C144.607 46.8265 144.199 46.5548 143.75 46.3698C143.302 46.1848 142.821 46.09 142.335 46.0911ZM142.335 52.2427C141.849 52.2412 141.374 52.0955 140.971 51.8242C140.567 51.5529 140.253 51.168 140.068 50.7183C139.883 50.2685 139.835 49.774 139.931 49.2972C140.027 48.8204 140.262 48.3827 140.606 48.0394C140.951 47.696 141.389 47.4624 141.866 47.3681C142.343 47.2738 142.838 47.323 143.287 47.5095C143.736 47.6959 144.12 48.0113 144.39 48.4158C144.66 48.8203 144.804 49.2957 144.804 49.7821C144.806 50.1075 144.744 50.4302 144.621 50.7315C144.497 51.0328 144.316 51.3068 144.087 51.5377C143.857 51.7686 143.584 51.9518 143.284 52.0768C142.983 52.2019 142.661 52.2662 142.335 52.2662V52.2427Z" fill="white" stroke="#A3A3A3" stroke-width="0.192546" stroke-linecap="round" stroke-linejoin="round"/>
<path d="M142.336 54.9541C141.604 54.9541 140.888 55.1713 140.28 55.578C139.671 55.9848 139.197 56.5629 138.918 57.2393C138.638 57.9156 138.565 58.6597 138.708 59.3774C138.852 60.0951 139.205 60.7542 139.723 61.2712C140.241 61.7881 140.901 62.1398 141.619 62.2816C142.337 62.4235 143.081 62.3491 143.756 62.0679C144.432 61.7868 145.009 61.3115 145.415 60.7022C145.82 60.0929 146.036 59.377 146.034 58.6451C146.034 58.1597 145.939 57.6791 145.753 57.2308C145.567 56.7825 145.294 56.3752 144.951 56.0324C144.607 55.6896 144.199 55.4178 143.75 55.2328C143.302 55.0478 142.821 54.9531 142.336 54.9541ZM142.336 61.1136C141.847 61.1136 141.37 60.9688 140.964 60.6976C140.558 60.4263 140.242 60.0408 140.055 59.5897C139.868 59.1387 139.819 58.6424 139.914 58.1635C140.01 57.6847 140.245 57.2448 140.59 56.8996C140.935 56.5544 141.375 56.3193 141.854 56.224C142.333 56.1288 142.829 56.1777 143.28 56.3645C143.731 56.5513 144.117 56.8677 144.388 57.2737C144.659 57.6796 144.804 58.1569 144.804 58.6451C144.804 58.9693 144.74 59.2902 144.616 59.5897C144.492 59.8892 144.31 60.1614 144.081 60.3906C143.852 60.6198 143.58 60.8016 143.28 60.9257C142.981 61.0497 142.66 61.1136 142.336 61.1136Z" fill="white" stroke="#A3A3A3" stroke-width="0.192546" stroke-linecap="round" stroke-linejoin="round"/>
<path d="M142.335 62.7671C141.606 62.7686 140.893 62.9864 140.287 63.3929C139.681 63.7995 139.209 64.3764 138.931 65.051C138.653 65.7256 138.581 66.4675 138.724 67.1829C138.868 67.8984 139.22 68.5553 139.736 69.0708C140.253 69.5862 140.91 69.9369 141.626 70.0787C142.342 70.2205 143.084 70.1469 143.758 69.8673C144.432 69.5878 145.008 69.1147 145.413 68.5079C145.818 67.9011 146.034 67.1878 146.034 66.4581C146.034 65.9727 145.939 65.4921 145.753 65.0438C145.567 64.5955 145.294 64.1882 144.95 63.8454C144.607 63.5025 144.199 63.2308 143.75 63.0458C143.302 62.8608 142.821 62.7661 142.335 62.7671ZM142.335 68.9187C141.849 68.9172 141.374 68.7716 140.971 68.5002C140.567 68.2289 140.253 67.8441 140.068 67.3943C139.883 66.9445 139.835 66.45 139.931 65.9732C140.027 65.4964 140.262 65.0587 140.606 64.7154C140.951 64.372 141.389 64.1385 141.866 64.0441C142.343 63.9498 142.838 63.999 143.287 64.1855C143.736 64.372 144.12 64.6873 144.39 65.0918C144.66 65.4963 144.804 65.9717 144.804 66.4581C144.802 67.1114 144.541 67.7373 144.078 68.1985C143.615 68.6597 142.989 68.9187 142.335 68.9187Z" fill="white" stroke="#A3A3A3" stroke-width="0.192546" stroke-linecap="round" stroke-linejoin="round"/>
<path d="M142.336 58.2453C142.163 58.2453 141.998 58.1767 141.876 58.0548C141.754 57.9328 141.686 57.7673 141.686 57.5948V51.5059C141.686 51.3334 141.754 51.168 141.876 51.046C141.998 50.924 142.163 50.8555 142.336 50.8555C142.509 50.8555 142.675 50.9237 142.799 51.0455C142.922 51.1672 142.992 51.3327 142.994 51.5059V57.5948C142.992 57.768 142.922 57.9335 142.799 58.0552C142.675 58.177 142.509 58.2453 142.336 58.2453Z" fill="white" stroke="#A3A3A3" stroke-width="0.192546" stroke-linecap="round" stroke-linejoin="round"/>
<path d="M142.336 66.6225C142.163 66.6225 141.998 66.5539 141.876 66.4319C141.754 66.31 141.686 66.1445 141.686 65.972V59.8831C141.686 59.7106 141.754 59.5452 141.876 59.4232C141.998 59.3012 142.163 59.2327 142.336 59.2327C142.509 59.2327 142.675 59.3009 142.799 59.4227C142.922 59.5444 142.992 59.7099 142.994 59.8831V65.972C142.992 66.1452 142.922 66.3107 142.799 66.4324C142.675 66.5542 142.509 66.6225 142.336 66.6225Z" fill="white" stroke="#A3A3A3" stroke-width="0.192546" stroke-linecap="round" stroke-linejoin="round"/>
<path d="M142.336 75.0153C142.163 75.0153 141.998 74.9468 141.876 74.8248C141.754 74.7028 141.686 74.5374 141.686 74.3649V68.2759C141.686 68.1905 141.702 68.1059 141.735 68.027C141.768 67.9481 141.816 67.8764 141.876 67.816C141.936 67.7556 142.008 67.7077 142.087 67.675C142.166 67.6423 142.251 67.6255 142.336 67.6255C142.509 67.6255 142.675 67.6938 142.799 67.8155C142.922 67.9373 142.992 68.1027 142.994 68.2759V74.3649C142.992 74.5381 142.922 74.7035 142.799 74.8253C142.675 74.947 142.509 75.0153 142.336 75.0153Z" fill="white" stroke="#A3A3A3" stroke-width="0.192546" stroke-linecap="round" stroke-linejoin="round"/>
<path d="M161.426 48.0423H17.8302L13.3164 35.5667H171.339L161.426 48.0423Z" fill="#A3A3A3" stroke="#A3A3A3" stroke-width="0.186432" stroke-linecap="round" stroke-linejoin="round"/>
<path d="M157.766 48.0423H14.1701L9.65625 35.5667H167.687L157.766 48.0423Z" fill="white" stroke="#A3A3A3" stroke-width="0.186432" stroke-linecap="round" stroke-linejoin="round"/>
<path d="M40.823 246.211H29.0762L32.6261 1H34.7106L40.823 9.67498V246.211Z" fill="#A3A3A3" stroke="#A3A3A3" stroke-width="0.186432" stroke-linecap="round" stroke-linejoin="round"/>
<path d="M38.7293 246.211H26.9824V9.67498L32.6247 1L38.7293 9.67498V246.211Z" fill="white" stroke="#A3A3A3" stroke-width="0.186432" stroke-linecap="round" stroke-linejoin="round"/>
<path d="M85.4569 97.6931C85.8074 97.6666 86.1153 97.5846 86.3806 97.447C86.6504 97.3091 86.8717 97.1274 87.0445 96.902C87.2173 96.6765 87.3418 96.4094 87.4179 96.1009C87.4985 95.792 87.5247 95.451 87.4965 95.078L87.0555 89.2403L88.8688 89.1033L89.3099 94.941C89.3537 95.5207 89.2999 96.0649 89.1485 96.5735C89.0012 97.0773 88.7659 97.5222 88.4425 97.9082C88.1233 98.2893 87.7219 98.5999 87.2384 98.8398C86.7545 99.0752 86.2002 99.2165 85.5755 99.2637C84.9464 99.3113 84.3749 99.255 83.8611 99.095C83.347 98.9304 82.9013 98.6839 82.5239 98.3553C82.1507 98.0219 81.8512 97.6175 81.6255 97.1419C81.4039 96.6615 81.2712 96.1314 81.2274 95.5516L80.7863 89.7139L82.5997 89.5769L83.0402 95.4079C83.0684 95.7809 83.1433 96.1142 83.2649 96.4079C83.391 96.7012 83.5566 96.9485 83.7616 97.15C83.9708 97.3466 84.2169 97.493 84.4999 97.5891C84.7873 97.6849 85.1063 97.7196 85.4569 97.6931ZM99.1312 88.328L99.8676 98.0755L98.9374 98.1458C98.7936 98.1566 98.6705 98.1433 98.5683 98.1059C98.4702 98.0636 98.3719 97.9896 98.2735 97.8841L92.6931 91.7702C92.7425 92.0648 92.7767 92.3379 92.7957 92.5896L93.2479 98.5756L91.6503 98.6963L90.9139 88.9488L91.8644 88.877C91.9408 88.8712 92.0063 88.8708 92.0609 88.8757C92.1196 88.8758 92.1701 88.8855 92.2122 88.9049C92.2585 88.9195 92.3034 88.9455 92.3469 88.9829C92.3901 89.0158 92.4388 89.0618 92.493 89.121L98.0957 95.2603C98.0703 95.104 98.0473 94.9498 98.0268 94.7977C98.0063 94.6456 97.9911 94.5043 97.9812 94.374L97.5336 88.4487L99.1312 88.328ZM110.326 92.3838C110.38 93.0983 110.31 93.7635 110.117 94.3792C109.924 94.9949 109.628 95.5347 109.229 95.9988C108.83 96.4628 108.337 96.8368 107.748 97.1208C107.159 97.4048 106.494 97.5748 105.753 97.6309L102.038 97.9115L101.302 88.164L105.016 87.8833C105.758 87.8273 106.441 87.8977 107.066 88.0946C107.691 88.2869 108.235 88.5825 108.699 88.9813C109.163 89.3757 109.536 89.8627 109.82 90.4424C110.103 91.0221 110.272 91.6692 110.326 92.3838ZM108.465 92.5244C108.425 91.9896 108.317 91.5164 108.141 91.1048C107.969 90.6884 107.738 90.3443 107.446 90.0726C107.158 89.796 106.818 89.5935 106.424 89.4651C106.034 89.3363 105.602 89.2899 105.125 89.3259L103.231 89.469L103.749 96.3314L105.644 96.1883C106.12 96.1523 106.541 96.0414 106.907 95.8556C107.277 95.6694 107.583 95.4203 107.826 95.1081C108.074 94.7912 108.251 94.4162 108.358 93.9832C108.47 93.5454 108.505 93.0591 108.465 92.5244ZM113.487 88.6942L113.692 91.3973L117.103 91.1396L117.208 92.535L113.797 92.7927L114.005 95.5498L118.333 95.2228L118.443 96.6721L112.295 97.1366L111.558 87.3891L117.706 86.9246L117.815 88.3672L113.487 88.6942ZM122.609 91.2185C122.951 91.1927 123.244 91.1276 123.489 91.0232C123.739 90.9184 123.939 90.7858 124.09 90.6253C124.245 90.4599 124.355 90.2708 124.42 90.058C124.485 89.8451 124.508 89.6151 124.49 89.368C124.452 88.8736 124.26 88.5063 123.912 88.2659C123.568 88.0252 123.061 87.9302 122.392 87.9807L121.232 88.0683L121.477 91.304L122.609 91.2185ZM127.66 95.9758L126.022 96.0995C125.712 96.1229 125.478 96.0186 125.32 95.7864L123.035 92.8201C122.95 92.7091 122.859 92.6324 122.76 92.5901C122.667 92.5474 122.53 92.5329 122.35 92.5465L121.575 92.6051L121.863 96.4137L120.05 96.5507L119.313 86.8032L122.286 86.5786C122.947 86.5287 123.518 86.5556 124 86.6592C124.487 86.7581 124.89 86.9197 125.21 87.1441C125.534 87.3682 125.781 87.6478 125.951 87.983C126.121 88.3137 126.221 88.6858 126.253 89.0992C126.277 89.4273 126.251 89.7411 126.175 90.0407C126.102 90.3399 125.983 90.6156 125.817 90.8677C125.655 91.1195 125.446 91.3454 125.19 91.5455C124.938 91.7453 124.646 91.9098 124.312 92.039C124.434 92.0976 124.548 92.1703 124.654 92.2572C124.76 92.3396 124.858 92.4407 124.948 92.5604L127.66 95.9758ZM81.1961 110.393C81.5377 110.367 81.831 110.302 82.0762 110.198C82.326 110.093 82.5261 109.96 82.6767 109.8C82.8314 109.634 82.9414 109.445 83.0067 109.232C83.072 109.02 83.0953 108.79 83.0766 108.542C83.0392 108.048 82.8465 107.681 82.4984 107.44C82.1548 107.2 81.6482 107.105 80.9786 107.155L79.8192 107.243L80.0636 110.478L81.1961 110.393ZM86.2469 115.15L84.6089 115.274C84.2988 115.297 84.0649 115.193 83.9073 114.961L81.6222 111.995C81.537 111.883 81.4453 111.807 81.3472 111.764C81.2536 111.722 81.1169 111.707 80.9371 111.721L80.1619 111.779L80.4497 115.588L78.6363 115.725L77.8999 105.978L80.8727 105.753C81.5333 105.703 82.1048 105.73 82.5872 105.834C83.0738 105.932 83.4769 106.094 83.7967 106.319C84.121 106.543 84.3681 106.822 84.538 107.157C84.7076 107.488 84.8081 107.86 84.8393 108.274C84.8641 108.602 84.8381 108.915 84.7613 109.215C84.689 109.514 84.5697 109.79 84.4034 110.042C84.2417 110.294 84.0328 110.52 83.7767 110.72C83.5251 110.92 83.2325 111.084 82.8987 111.213C83.0207 111.272 83.1346 111.345 83.2406 111.432C83.3463 111.514 83.4443 111.615 83.5347 111.735L86.2469 115.15ZM88.4922 106.628L88.6965 109.331L92.1074 109.074L92.2128 110.469L88.8019 110.727L89.0102 113.484L93.3379 113.157L93.4474 114.606L87.2996 115.071L86.5632 105.323L92.711 104.859L92.82 106.301L88.4922 106.628ZM102.67 104.106L99.4698 114.151L97.8317 114.275L93.1585 104.825L94.6146 104.715C94.7719 104.703 94.9029 104.731 95.0075 104.8C95.1121 104.869 95.1938 104.963 95.2524 105.08L98.0002 110.852C98.0912 111.04 98.1793 111.248 98.2643 111.476C98.3536 111.7 98.4391 111.935 98.5211 112.182C98.556 111.926 98.5962 111.682 98.6418 111.448C98.6871 111.209 98.7406 110.99 98.8024 110.791L100.638 104.673C100.667 104.567 100.729 104.468 100.826 104.374C100.927 104.281 101.055 104.228 101.207 104.217L102.67 104.106ZM106.236 113.64L104.416 113.777L103.679 104.03L105.499 103.892L106.236 113.64ZM109.611 105.033L109.815 107.736L113.226 107.478L113.331 108.873L109.92 109.131L110.129 111.888L114.456 111.561L114.566 113.011L108.418 113.475L107.682 103.728L113.829 103.263L113.938 104.706L109.611 105.033ZM128.406 102.162L126.116 112.138L124.478 112.262L121.844 105.763C121.774 105.605 121.705 105.412 121.638 105.182C121.619 105.296 121.6 105.404 121.581 105.505C121.561 105.605 121.539 105.7 121.514 105.788L119.867 112.61L118.222 112.734L114.466 103.215L115.982 103.1C116.14 103.089 116.273 103.117 116.382 103.185C116.495 103.249 116.575 103.343 116.62 103.466L118.719 109.172C118.766 109.313 118.811 109.467 118.856 109.636C118.904 109.799 118.953 109.972 119.003 110.153C119.025 109.962 119.05 109.782 119.078 109.612C119.11 109.443 119.146 109.284 119.184 109.136L120.658 103.161C120.686 103.055 120.749 102.955 120.846 102.862C120.947 102.768 121.074 102.716 121.227 102.704L121.759 102.664C121.917 102.652 122.048 102.681 122.152 102.75C122.257 102.818 122.339 102.912 122.397 103.029L124.745 108.716C124.861 108.988 124.971 109.303 125.074 109.661C125.106 109.301 125.147 108.975 125.197 108.682L126.415 102.726C126.433 102.611 126.493 102.51 126.595 102.421C126.701 102.331 126.831 102.281 126.984 102.269L128.406 102.162ZM131.201 101.951L131.492 105.807C131.523 106.216 131.533 106.619 131.523 107.018C131.512 107.412 131.491 107.831 131.462 108.277L130.329 108.362C130.233 107.926 130.15 107.515 130.08 107.127C130.01 106.734 129.959 106.334 129.928 105.925L129.637 102.069L131.201 101.951ZM130.041 110.919C130.031 110.78 130.045 110.646 130.085 110.516C130.13 110.386 130.193 110.273 130.276 110.176C130.364 110.079 130.469 109.999 130.59 109.936C130.712 109.872 130.845 109.835 130.989 109.824C131.128 109.814 131.263 109.831 131.393 109.875C131.523 109.919 131.636 109.983 131.732 110.066C131.834 110.149 131.916 110.251 131.979 110.373C132.043 110.495 132.08 110.625 132.09 110.765C132.101 110.908 132.084 111.045 132.04 111.175C131.995 111.301 131.929 111.412 131.841 111.509C131.758 111.606 131.656 111.683 131.534 111.742C131.412 111.806 131.281 111.843 131.142 111.853C130.998 111.864 130.861 111.847 130.732 111.803C130.602 111.763 130.487 111.702 130.385 111.619C130.289 111.536 130.209 111.436 130.146 111.318C130.087 111.196 130.052 111.063 130.041 110.919Z" fill="white"/>
<path d="M86.3806 97.447L86.3634 97.4133L86.3632 97.4134L86.3806 97.447ZM87.0445 96.902L87.0746 96.925L87.0445 96.902ZM87.4179 96.1009L87.3812 96.0913L87.3811 96.0918L87.4179 96.1009ZM87.0555 89.2403L87.0526 89.2025L87.0149 89.2054L87.0177 89.2431L87.0555 89.2403ZM88.8688 89.1033L88.9066 89.1004L88.9037 89.0627L88.866 89.0655L88.8688 89.1033ZM89.1485 96.5735L89.1122 96.5627L89.1121 96.5629L89.1485 96.5735ZM88.4425 97.9082L88.4135 97.8839L88.4135 97.8839L88.4425 97.9082ZM87.2384 98.8398L87.2549 98.8739L87.2552 98.8737L87.2384 98.8398ZM83.8611 99.095L83.8496 99.131L83.8499 99.1311L83.8611 99.095ZM82.5239 98.3553L82.4987 98.3836L82.499 98.3839L82.5239 98.3553ZM81.6255 97.1419L81.5911 97.1577L81.5913 97.1581L81.6255 97.1419ZM80.7863 89.7139L80.7835 89.6762L80.7457 89.679L80.7486 89.7168L80.7863 89.7139ZM82.5997 89.5769L82.6374 89.5741L82.6346 89.5363L82.5968 89.5392L82.5997 89.5769ZM83.2649 96.4079L83.2299 96.4224L83.2301 96.4228L83.2649 96.4079ZM83.7616 97.15L83.7351 97.177L83.7357 97.1776L83.7616 97.15ZM84.4999 97.5891L84.4877 97.625L84.4879 97.625L84.4999 97.5891ZM85.4569 97.6931L85.4597 97.7308C85.8144 97.704 86.1275 97.6209 86.3981 97.4806L86.3806 97.447L86.3632 97.4134C86.1031 97.5482 85.8003 97.6291 85.454 97.6553L85.4569 97.6931ZM86.3806 97.447L86.3979 97.4807C86.6723 97.3404 86.8981 97.1552 87.0746 96.925L87.0445 96.902L87.0145 96.8789C86.8453 97.0996 86.6285 97.2778 86.3634 97.4133L86.3806 97.447ZM87.0445 96.902L87.0746 96.925C87.2509 96.6949 87.3774 96.423 87.4546 96.11L87.4179 96.1009L87.3811 96.0918C87.3061 96.3959 87.1837 96.658 87.0145 96.8789L87.0445 96.902ZM87.4179 96.1009L87.4545 96.1104C87.5364 95.7969 87.5627 95.4516 87.5343 95.0752L87.4965 95.078L87.4588 95.0809C87.4867 95.4504 87.4606 95.7871 87.3812 96.0913L87.4179 96.1009ZM87.4965 95.078L87.5343 95.0752L87.0932 89.2374L87.0555 89.2403L87.0177 89.2431L87.4588 95.0809L87.4965 95.078ZM87.0555 89.2403L87.0583 89.278L88.8717 89.141L88.8688 89.1033L88.866 89.0655L87.0526 89.2025L87.0555 89.2403ZM88.8688 89.1033L88.8311 89.1061L89.2721 94.9439L89.3099 94.941L89.3476 94.9382L88.9066 89.1004L88.8688 89.1033ZM89.3099 94.941L89.2721 94.9439C89.3156 95.5194 89.2621 96.0589 89.1122 96.5627L89.1485 96.5735L89.1848 96.5843C89.3376 96.0709 89.3917 95.5221 89.3476 94.9382L89.3099 94.941ZM89.1485 96.5735L89.1121 96.5629C88.9663 97.0619 88.7334 97.502 88.4135 97.8839L88.4425 97.9082L88.4716 97.9325C88.7984 97.5423 89.0362 97.0927 89.1848 96.5841L89.1485 96.5735ZM88.4425 97.9082L88.4135 97.8839C88.0979 98.2607 87.7008 98.5681 87.2215 98.8059L87.2384 98.8398L87.2552 98.8737C87.743 98.6317 88.1487 98.318 88.4716 97.9325L88.4425 97.9082ZM87.2384 98.8398L87.2218 98.8058C86.7428 99.0388 86.1933 99.1791 85.5727 99.226L85.5755 99.2637L85.5784 99.3015C86.207 99.254 86.7661 99.1117 87.2549 98.8739L87.2384 98.8398ZM85.5755 99.2637L85.5727 99.226C84.9475 99.2732 84.3809 99.2172 83.8724 99.0588L83.8611 99.095L83.8499 99.1311C84.3689 99.2928 84.9453 99.3493 85.5784 99.3015L85.5755 99.2637ZM83.8611 99.095L83.8727 99.0589C83.3631 98.8958 82.9219 98.6517 82.5488 98.3268L82.5239 98.3553L82.499 98.3839C82.8806 98.7161 83.3309 98.965 83.8496 99.131L83.8611 99.095ZM82.5239 98.3553L82.5491 98.3271C82.1799 97.9972 81.8834 97.5969 81.6597 97.1256L81.6255 97.1419L81.5913 97.1581C81.8191 97.638 82.1215 98.0467 82.4987 98.3836L82.5239 98.3553ZM81.6255 97.1419L81.6599 97.126C81.4403 96.6501 81.3086 96.1245 81.2651 95.5488L81.2274 95.5516L81.1896 95.5545C81.2337 96.1383 81.3674 96.6728 81.5911 97.1577L81.6255 97.1419ZM81.2274 95.5516L81.2651 95.5488L80.8241 89.7111L80.7863 89.7139L80.7486 89.7168L81.1896 95.5545L81.2274 95.5516ZM80.7863 89.7139L80.7892 89.7517L82.6025 89.6147L82.5997 89.5769L82.5968 89.5392L80.7835 89.6762L80.7863 89.7139ZM82.5997 89.5769L82.5619 89.5798L83.0024 95.4108L83.0402 95.4079L83.078 95.4051L82.6374 89.5741L82.5997 89.5769ZM83.0402 95.4079L83.0024 95.4108C83.0309 95.7871 83.1065 96.1244 83.2299 96.4224L83.2649 96.4079L83.2999 96.3934C83.18 96.104 83.1059 95.7747 83.078 95.4051L83.0402 95.4079ZM83.2649 96.4079L83.2301 96.4228C83.3579 96.7201 83.5262 96.9717 83.7351 97.177L83.7616 97.15L83.7882 97.123C83.587 96.9253 83.4241 96.6822 83.2997 96.3929L83.2649 96.4079ZM83.7616 97.15L83.7357 97.1776C83.949 97.378 84.1998 97.5272 84.4877 97.625L84.4999 97.5891L84.5121 97.5533C84.234 97.4588 83.9927 97.3151 83.7876 97.1224L83.7616 97.15ZM84.4999 97.5891L84.4879 97.625C84.7808 97.7226 85.105 97.7576 85.4597 97.7308L85.4569 97.6931L85.454 97.6553C85.1077 97.6815 84.7938 97.6472 84.5118 97.5532L84.4999 97.5891ZM99.1312 88.328L99.169 88.3251L99.1661 88.2873L99.1283 88.2902L99.1312 88.328ZM99.8676 98.0755L99.8705 98.1132L99.9082 98.1104L99.9054 98.0726L99.8676 98.0755ZM98.5683 98.1059L98.5532 98.1407L98.5552 98.1414L98.5683 98.1059ZM98.2735 97.8841L98.2456 97.9096L98.2458 97.9099L98.2735 97.8841ZM92.6931 91.7702L92.7211 91.7447L92.6345 91.6499L92.6558 91.7765L92.6931 91.7702ZM93.2479 98.5756L93.2508 98.6134L93.2886 98.6105L93.2857 98.5728L93.2479 98.5756ZM91.6503 98.6963L91.6126 98.6992L91.6154 98.7369L91.6532 98.7341L91.6503 98.6963ZM90.9139 88.9488L90.911 88.911L90.8733 88.9139L90.8761 88.9516L90.9139 88.9488ZM92.0609 88.8757L92.0575 88.9135L92.0608 88.9135L92.0609 88.8757ZM92.2122 88.9049L92.1963 88.9396L92.2009 88.941L92.2122 88.9049ZM92.3469 88.9829L92.3222 89.0116L92.324 89.013L92.3469 88.9829ZM92.493 89.121L92.5209 89.0955L92.5209 89.0954L92.493 89.121ZM98.0957 95.2603L98.0677 95.2858L98.1534 95.3797L98.133 95.2542L98.0957 95.2603ZM98.0268 94.7977L98.0643 94.7926L98.0268 94.7977ZM97.5336 88.4487L97.5307 88.4109L97.493 88.4137L97.4958 88.4515L97.5336 88.4487ZM99.1312 88.328L99.0934 88.3308L99.8299 98.0783L99.8676 98.0755L99.9054 98.0726L99.169 88.3251L99.1312 88.328ZM99.8676 98.0755L99.8648 98.0377L98.9345 98.108L98.9374 98.1458L98.9402 98.1835L99.8705 98.1132L99.8676 98.0755ZM98.9374 98.1458L98.9345 98.108C98.7944 98.1186 98.6771 98.1054 98.5813 98.0703L98.5683 98.1059L98.5552 98.1414C98.6639 98.1812 98.7927 98.1947 98.9402 98.1835L98.9374 98.1458ZM98.5683 98.1059L98.5833 98.0711C98.4913 98.0314 98.3972 97.9612 98.3012 97.8582L98.2735 97.8841L98.2458 97.9099C98.3466 98.018 98.449 98.0957 98.5533 98.1406L98.5683 98.1059ZM98.2735 97.8841L98.3015 97.8585L92.7211 91.7447L92.6931 91.7702L92.6651 91.7957L98.2456 97.9096L98.2735 97.8841ZM92.6931 91.7702L92.6558 91.7765C92.705 92.0701 92.739 92.3421 92.7579 92.5924L92.7957 92.5896L92.8335 92.5867C92.8143 92.3337 92.78 92.0595 92.7305 91.764L92.6931 91.7702ZM92.7957 92.5896L92.7579 92.5924L93.2102 98.5785L93.2479 98.5756L93.2857 98.5728L92.8335 92.5867L92.7957 92.5896ZM93.2479 98.5756L93.2451 98.5378L91.6475 98.6585L91.6503 98.6963L91.6532 98.7341L93.2508 98.6134L93.2479 98.5756ZM91.6503 98.6963L91.6881 98.6935L90.9516 88.9459L90.9139 88.9488L90.8761 88.9516L91.6126 98.6992L91.6503 98.6963ZM90.9139 88.9488L90.9167 88.9865L91.8672 88.9147L91.8644 88.877L91.8615 88.8392L90.911 88.911L90.9139 88.9488ZM91.8644 88.877L91.8672 88.9147C91.9423 88.9091 92.0056 88.9087 92.0575 88.9134L92.0609 88.8757L92.0643 88.838C92.007 88.8328 91.9392 88.8333 91.8615 88.8392L91.8644 88.877ZM92.0609 88.8757L92.0608 88.9135C92.1155 88.9136 92.1603 88.9227 92.1964 88.9393L92.2122 88.9049L92.2281 88.8705C92.1798 88.8483 92.1237 88.8379 92.0609 88.8378L92.0609 88.8757ZM92.2122 88.9049L92.2009 88.941C92.2415 88.9538 92.2819 88.9769 92.3223 89.0116L92.3469 88.9829L92.3716 88.9542C92.3249 88.914 92.2756 88.8852 92.2236 88.8688L92.2122 88.9049ZM92.3469 88.9829L92.324 89.013C92.3647 89.044 92.4117 89.0883 92.465 89.1466L92.493 89.121L92.5209 89.0954C92.4658 89.0353 92.4155 88.9875 92.3699 88.9528L92.3469 88.9829ZM92.493 89.121L92.465 89.1465L98.0677 95.2858L98.0957 95.2603L98.1236 95.2347L92.5209 89.0955L92.493 89.121ZM98.0957 95.2603L98.133 95.2542C98.1077 95.0983 98.0848 94.9444 98.0643 94.7926L98.0268 94.7977L97.9893 94.8028C98.0099 94.9552 98.0329 95.1097 98.0583 95.2663L98.0957 95.2603ZM98.0268 94.7977L98.0643 94.7926C98.0439 94.6411 98.0288 94.5006 98.019 94.3712L97.9812 94.374L97.9435 94.3769C97.9534 94.5081 97.9687 94.65 97.9893 94.8028L98.0268 94.7977ZM97.9812 94.374L98.019 94.3712L97.5713 88.4458L97.5336 88.4487L97.4958 88.4515L97.9435 94.3769L97.9812 94.374ZM97.5336 88.4487L97.5364 88.4864L99.1341 88.3657L99.1312 88.328L99.1283 88.2902L97.5307 88.4109L97.5336 88.4487ZM110.117 94.3792L110.081 94.3678L110.117 94.3792ZM109.229 95.9988L109.201 95.9741L109.229 95.9988ZM107.748 97.1208L107.764 97.1549L107.748 97.1208ZM102.038 97.9115L102.001 97.9143L102.003 97.9521L102.041 97.9492L102.038 97.9115ZM101.302 88.164L101.299 88.1262L101.261 88.129L101.264 88.1668L101.302 88.164ZM107.066 88.0946L107.055 88.1307L107.055 88.1308L107.066 88.0946ZM108.699 88.9813L108.674 89.0101L108.675 89.0102L108.699 88.9813ZM109.82 90.4424L109.854 90.4258L109.82 90.4424ZM108.141 91.1048L108.106 91.1192L108.106 91.1197L108.141 91.1048ZM107.446 90.0726L107.42 90.0999L107.42 90.1003L107.446 90.0726ZM106.424 89.4651L106.412 89.501L106.412 89.5011L106.424 89.4651ZM103.231 89.469L103.228 89.4313L103.19 89.4341L103.193 89.4719L103.231 89.469ZM103.749 96.3314L103.712 96.3343L103.715 96.372L103.752 96.3692L103.749 96.3314ZM106.907 95.8556L106.89 95.8218L106.889 95.8218L106.907 95.8556ZM107.826 95.1081L107.797 95.0849L107.797 95.0849L107.826 95.1081ZM108.358 93.9832L108.322 93.9739L108.322 93.9741L108.358 93.9832ZM110.326 92.3838L110.288 92.3866C110.342 93.0969 110.272 93.7572 110.081 94.3678L110.117 94.3792L110.153 94.3905C110.348 93.7697 110.418 93.0998 110.363 92.3809L110.326 92.3838ZM110.117 94.3792L110.081 94.3678C109.889 94.9789 109.596 95.5142 109.201 95.9741L109.229 95.9988L109.258 96.0234C109.66 95.5553 109.959 95.0108 110.153 94.3905L110.117 94.3792ZM109.229 95.9988L109.201 95.9741C108.805 96.4339 108.316 96.8048 107.732 97.0867L107.748 97.1208L107.764 97.1549C108.357 96.8688 108.856 96.4917 109.258 96.0234L109.229 95.9988ZM107.748 97.1208L107.732 97.0867C107.148 97.3684 106.487 97.5374 105.75 97.5931L105.753 97.6309L105.756 97.6686C106.501 97.6123 107.171 97.4413 107.764 97.1549L107.748 97.1208ZM105.753 97.6309L105.75 97.5931L102.035 97.8737L102.038 97.9115L102.041 97.9492L105.756 97.6686L105.753 97.6309ZM102.038 97.9115L102.076 97.9086L101.34 88.1611L101.302 88.164L101.264 88.1668L102.001 97.9143L102.038 97.9115ZM101.302 88.164L101.305 88.2017L105.019 87.9211L105.016 87.8833L105.013 87.8456L101.299 88.1262L101.302 88.164ZM105.016 87.8833L105.019 87.9211C105.756 87.8654 106.435 87.9355 107.055 88.1307L107.066 88.0946L107.077 88.0584C106.447 87.86 105.759 87.7892 105.013 87.8456L105.016 87.8833ZM107.066 88.0946L107.055 88.1308C107.675 88.3217 108.215 88.6148 108.674 89.0101L108.699 88.9813L108.724 88.9526C108.256 88.5502 107.707 88.2522 107.077 88.0584L107.066 88.0946ZM108.699 88.9813L108.675 89.0102C109.134 89.4009 109.504 89.8837 109.786 90.459L109.82 90.4424L109.854 90.4258C109.568 89.8417 109.192 89.3504 108.724 88.9525L108.699 88.9813ZM109.82 90.4424L109.786 90.459C110.067 91.034 110.234 91.6764 110.288 92.3866L110.326 92.3838L110.363 92.3809C110.309 91.6621 110.139 91.0103 109.854 90.4258L109.82 90.4424ZM108.465 92.5244L108.503 92.5215C108.462 91.9834 108.353 91.506 108.176 91.0899L108.141 91.1048L108.106 91.1197C108.28 91.5268 108.387 91.9958 108.427 92.5272L108.465 92.5244ZM108.141 91.1048L108.176 91.0904C108.003 90.6696 107.768 90.3208 107.472 90.0449L107.446 90.0726L107.42 90.1003C107.707 90.3679 107.936 90.7072 108.106 91.1192L108.141 91.1048ZM107.446 90.0726L107.472 90.0453C107.18 89.7646 106.835 89.5592 106.436 89.4291L106.424 89.4651L106.412 89.5011C106.801 89.6278 107.136 89.8274 107.42 90.0999L107.446 90.0726ZM106.424 89.4651L106.436 89.4291C106.041 89.2986 105.603 89.2519 105.122 89.2882L105.125 89.3259L105.128 89.3637C105.6 89.328 106.028 89.3741 106.412 89.501L106.424 89.4651ZM105.125 89.3259L105.122 89.2882L103.228 89.4313L103.231 89.469L103.234 89.5068L105.128 89.3637L105.125 89.3259ZM103.231 89.469L103.193 89.4719L103.712 96.3343L103.749 96.3314L103.787 96.3285L103.269 89.4662L103.231 89.469ZM103.749 96.3314L103.752 96.3692L105.647 96.226L105.644 96.1883L105.641 96.1505L103.747 96.2936L103.749 96.3314ZM105.644 96.1883L105.647 96.226C106.127 96.1897 106.553 96.0778 106.924 95.8893L106.907 95.8556L106.889 95.8218C106.529 96.005 106.113 96.1149 105.641 96.1505L105.644 96.1883ZM106.907 95.8556L106.924 95.8894C107.299 95.7009 107.61 95.4482 107.856 95.1314L107.826 95.1081L107.797 95.0849C107.557 95.3924 107.255 95.638 106.89 95.8218L106.907 95.8556ZM107.826 95.1081L107.856 95.1314C108.107 94.8098 108.287 94.4299 108.395 93.9924L108.358 93.9832L108.322 93.9741C108.215 94.4025 108.04 94.7725 107.797 95.0849L107.826 95.1081ZM108.358 93.9832L108.395 93.9926C108.508 93.5501 108.544 93.0596 108.503 92.5215L108.465 92.5244L108.427 92.5272C108.467 93.0586 108.432 93.5407 108.322 93.9739L108.358 93.9832ZM113.487 88.6942L113.485 88.6564L113.447 88.6592L113.45 88.697L113.487 88.6942ZM113.692 91.3973L113.654 91.4002L113.657 91.4379L113.694 91.4351L113.692 91.3973ZM117.103 91.1396L117.14 91.1368L117.137 91.099L117.1 91.1019L117.103 91.1396ZM117.208 92.535L117.211 92.5728L117.249 92.5699L117.246 92.5322L117.208 92.535ZM113.797 92.7927L113.794 92.7549L113.756 92.7578L113.759 92.7956L113.797 92.7927ZM114.005 95.5498L113.968 95.5526L113.97 95.5904L114.008 95.5875L114.005 95.5498ZM118.333 95.2228L118.371 95.22L118.368 95.1822L118.33 95.1851L118.333 95.2228ZM118.443 96.6721L118.445 96.7099L118.483 96.7071L118.48 96.6693L118.443 96.6721ZM112.295 97.1366L112.257 97.1395L112.26 97.1772L112.298 97.1744L112.295 97.1366ZM111.558 87.3891L111.555 87.3513L111.518 87.3542L111.521 87.3919L111.558 87.3891ZM117.706 86.9246L117.744 86.9218L117.741 86.884L117.703 86.8869L117.706 86.9246ZM117.815 88.3672L117.818 88.405L117.856 88.4021L117.853 88.3643L117.815 88.3672ZM113.487 88.6942L113.45 88.697L113.654 91.4002L113.692 91.3973L113.729 91.3945L113.525 88.6913L113.487 88.6942ZM113.692 91.3973L113.694 91.4351L117.105 91.1774L117.103 91.1396L117.1 91.1019L113.689 91.3596L113.692 91.3973ZM117.103 91.1396L117.065 91.1425L117.17 92.5379L117.208 92.535L117.246 92.5322L117.14 91.1368L117.103 91.1396ZM117.208 92.535L117.205 92.4972L113.794 92.7549L113.797 92.7927L113.8 92.8305L117.211 92.5728L117.208 92.535ZM113.797 92.7927L113.759 92.7956L113.968 95.5526L114.005 95.5498L114.043 95.5469L113.835 92.7899L113.797 92.7927ZM114.005 95.5498L114.008 95.5875L118.336 95.2606L118.333 95.2228L118.33 95.1851L114.002 95.512L114.005 95.5498ZM118.333 95.2228L118.295 95.2257L118.405 96.675L118.443 96.6721L118.48 96.6693L118.371 95.22L118.333 95.2228ZM118.443 96.6721L118.44 96.6344L112.292 97.0989L112.295 97.1366L112.298 97.1744L118.445 96.7099L118.443 96.6721ZM112.295 97.1366L112.332 97.1338L111.596 87.3862L111.558 87.3891L111.521 87.3919L112.257 97.1395L112.295 97.1366ZM111.558 87.3891L111.561 87.4268L117.709 86.9624L117.706 86.9246L117.703 86.8869L111.555 87.3513L111.558 87.3891ZM117.706 86.9246L117.668 86.9275L117.777 88.37L117.815 88.3672L117.853 88.3643L117.744 86.9218L117.706 86.9246ZM117.815 88.3672L117.812 88.3294L113.485 88.6564L113.487 88.6942L113.49 88.7319L117.818 88.405L117.815 88.3672ZM123.489 91.0232L123.475 90.9882L123.475 90.9883L123.489 91.0232ZM124.09 90.6253L124.118 90.6512L124.118 90.6511L124.09 90.6253ZM123.912 88.2659L123.89 88.2969L123.89 88.2971L123.912 88.2659ZM121.232 88.0683L121.23 88.0306L121.192 88.0334L121.195 88.0712L121.232 88.0683ZM121.477 91.304L121.439 91.3069L121.442 91.3446L121.48 91.3418L121.477 91.304ZM127.66 95.9758L127.663 96.0135L127.734 96.0081L127.69 95.9522L127.66 95.9758ZM125.32 95.7864L125.352 95.7651L125.35 95.7633L125.32 95.7864ZM123.035 92.8201L123.005 92.8432L123.005 92.8433L123.035 92.8201ZM122.76 92.5901L122.745 92.6245L122.745 92.6249L122.76 92.5901ZM121.575 92.6051L121.572 92.5673L121.535 92.5701L121.537 92.6079L121.575 92.6051ZM121.863 96.4137L121.866 96.4515L121.903 96.4486L121.901 96.4109L121.863 96.4137ZM120.05 96.5507L120.012 96.5536L120.015 96.5913L120.052 96.5885L120.05 96.5507ZM119.313 86.8032L119.31 86.7654L119.273 86.7683L119.275 86.8061L119.313 86.8032ZM124 86.6592L123.992 86.6963L123.993 86.6963L124 86.6592ZM125.21 87.1441L125.188 87.1751L125.188 87.1753L125.21 87.1441ZM125.951 87.983L125.917 88.0001L125.918 88.0003L125.951 87.983ZM126.175 90.0407L126.138 90.0313L126.138 90.0318L126.175 90.0407ZM125.817 90.8677L125.785 90.8468L125.785 90.8472L125.817 90.8677ZM125.19 91.5455L125.167 91.5157L125.166 91.5159L125.19 91.5455ZM124.312 92.039L124.298 92.0037L124.217 92.0352L124.296 92.0731L124.312 92.039ZM124.654 92.2572L124.63 92.2865L124.631 92.2871L124.654 92.2572ZM124.948 92.5604L124.918 92.5832L124.918 92.584L124.948 92.5604ZM122.609 91.2185L122.612 91.2562C122.957 91.2302 123.254 91.1644 123.504 91.058L123.489 91.0232L123.475 90.9883C123.234 91.0907 122.945 91.1551 122.606 91.1807L122.609 91.2185ZM123.489 91.0232L123.504 91.0581C123.758 90.9518 123.963 90.8164 124.118 90.6512L124.09 90.6253L124.062 90.5994C123.916 90.7552 123.721 90.8851 123.475 90.9882L123.489 91.0232ZM124.09 90.6253L124.118 90.6511C124.276 90.4817 124.389 90.2875 124.456 90.0691L124.42 90.058L124.384 90.0469C124.32 90.2541 124.213 90.4382 124.062 90.5994L124.09 90.6253ZM124.42 90.058L124.456 90.0691C124.523 89.8512 124.547 89.6165 124.528 89.3651L124.49 89.368L124.452 89.3708C124.47 89.6138 124.447 89.839 124.384 90.0469L124.42 90.058ZM124.49 89.368L124.528 89.3651C124.49 88.8616 124.292 88.4828 123.933 88.2348L123.912 88.2659L123.89 88.2971C124.227 88.5298 124.415 88.8857 124.452 89.3708L124.49 89.368ZM123.912 88.2659L123.933 88.2349C123.579 87.9869 123.062 87.8921 122.389 87.943L122.392 87.9807L122.395 88.0185C123.06 87.9682 123.557 88.0635 123.89 88.2969L123.912 88.2659ZM122.392 87.9807L122.389 87.943L121.23 88.0306L121.232 88.0683L121.235 88.1061L122.395 88.0185L122.392 87.9807ZM121.232 88.0683L121.195 88.0712L121.439 91.3069L121.477 91.304L121.515 91.3012L121.27 88.0655L121.232 88.0683ZM121.477 91.304L121.48 91.3418L122.612 91.2562L122.609 91.2185L122.606 91.1807L121.474 91.2663L121.477 91.304ZM127.66 95.9758L127.657 95.938L126.019 96.0617L126.022 96.0995L126.025 96.1373L127.663 96.0135L127.66 95.9758ZM126.022 96.0995L126.019 96.0617C125.721 96.0843 125.501 95.9847 125.352 95.7651L125.32 95.7864L125.289 95.8077C125.455 96.0525 125.703 96.1616 126.025 96.1373L126.022 96.0995ZM125.32 95.7864L125.35 95.7633L123.065 92.797L123.035 92.8201L123.005 92.8433L125.29 95.8095L125.32 95.7864ZM123.035 92.8201L123.065 92.7971C122.977 92.6824 122.881 92.6008 122.775 92.5553L122.76 92.5901L122.745 92.6249C122.836 92.6639 122.923 92.7357 123.005 92.8432L123.035 92.8201ZM122.76 92.5901L122.776 92.5556C122.674 92.509 122.529 92.495 122.348 92.5087L122.35 92.5465L122.353 92.5842C122.531 92.5708 122.66 92.5858 122.745 92.6245L122.76 92.5901ZM122.35 92.5465L122.348 92.5087L121.572 92.5673L121.575 92.6051L121.578 92.6428L122.353 92.5842L122.35 92.5465ZM121.575 92.6051L121.537 92.6079L121.825 96.4166L121.863 96.4137L121.901 96.4109L121.613 92.6022L121.575 92.6051ZM121.863 96.4137L121.86 96.376L120.047 96.513L120.05 96.5507L120.052 96.5885L121.866 96.4515L121.863 96.4137ZM120.05 96.5507L120.087 96.5479L119.351 86.8004L119.313 86.8032L119.275 86.8061L120.012 96.5536L120.05 96.5507ZM119.313 86.8032L119.316 86.841L122.289 86.6164L122.286 86.5786L122.283 86.5408L119.31 86.7654L119.313 86.8032ZM122.286 86.5786L122.289 86.6164C122.947 86.5666 123.515 86.5936 123.992 86.6963L124 86.6592L124.008 86.6222C123.521 86.5176 122.946 86.4908 122.283 86.5408L122.286 86.5786ZM124 86.6592L123.993 86.6963C124.476 86.7944 124.874 86.9544 125.188 87.1751L125.21 87.1441L125.232 87.1131C124.907 86.885 124.498 86.7217 124.008 86.6221L124 86.6592ZM125.21 87.1441L125.188 87.1753C125.508 87.396 125.751 87.6709 125.917 88.0001L125.951 87.983L125.985 87.9659C125.812 87.6248 125.561 87.3405 125.231 87.113L125.21 87.1441ZM125.951 87.983L125.918 88.0003C126.085 88.326 126.184 88.6931 126.215 89.1021L126.253 89.0992L126.29 89.0964C126.259 88.6785 126.157 88.3014 125.985 87.9657L125.951 87.983ZM126.253 89.0992L126.215 89.1021C126.239 89.4263 126.214 89.7359 126.138 90.0313L126.175 90.0407L126.211 90.0501C126.289 89.7462 126.315 89.4283 126.29 89.0964L126.253 89.0992ZM126.175 90.0407L126.138 90.0318C126.066 90.3268 125.949 90.5985 125.785 90.8468L125.817 90.8677L125.848 90.8885C126.017 90.6327 126.138 90.353 126.211 90.0496L126.175 90.0407ZM125.817 90.8677L125.785 90.8472C125.626 91.0951 125.42 91.318 125.167 91.5157L125.19 91.5455L125.213 91.5754C125.472 91.3728 125.684 91.1438 125.849 90.8882L125.817 90.8677ZM125.19 91.5455L125.166 91.5159C124.918 91.713 124.629 91.8757 124.298 92.0037L124.312 92.039L124.326 92.0743C124.663 91.9439 124.959 91.7776 125.213 91.5752L125.19 91.5455ZM124.312 92.039L124.296 92.0731C124.415 92.1304 124.526 92.2015 124.63 92.2865L124.654 92.2572L124.678 92.2279C124.57 92.1391 124.453 92.0647 124.328 92.0048L124.312 92.039ZM124.654 92.2572L124.631 92.2871C124.733 92.3672 124.829 92.4658 124.918 92.5832L124.948 92.5604L124.978 92.5376C124.886 92.4155 124.786 92.312 124.677 92.2273L124.654 92.2572ZM124.948 92.5604L124.918 92.584L127.631 95.9993L127.66 95.9758L127.69 95.9522L124.978 92.5369L124.948 92.5604ZM82.0763 110.198L82.0616 110.163L82.0614 110.163L82.0763 110.198ZM82.6767 109.8L82.7043 109.826L82.7043 109.826L82.6767 109.8ZM82.4984 107.44L82.4767 107.471L82.4769 107.471L82.4984 107.44ZM79.8192 107.243L79.8163 107.205L79.7785 107.208L79.7814 107.246L79.8192 107.243ZM80.0636 110.478L80.0259 110.481L80.0287 110.519L80.0665 110.516L80.0636 110.478ZM86.2469 115.15L86.2498 115.188L86.321 115.183L86.2766 115.127L86.2469 115.15ZM83.9073 114.961L83.9387 114.939L83.9373 114.938L83.9073 114.961ZM81.6222 111.995L81.5922 112.018L81.5922 112.018L81.6222 111.995ZM81.3472 111.764L81.3315 111.799L81.3322 111.799L81.3472 111.764ZM80.1619 111.779L80.1591 111.742L80.1213 111.745L80.1241 111.782L80.1619 111.779ZM80.4497 115.588L80.4525 115.626L80.4903 115.623L80.4874 115.585L80.4497 115.588ZM78.6363 115.725L78.5986 115.728L78.6014 115.766L78.6392 115.763L78.6363 115.725ZM77.8999 105.978L77.897 105.94L77.8593 105.943L77.8621 105.98L77.8999 105.978ZM82.5872 105.834L82.5793 105.871L82.5797 105.871L82.5872 105.834ZM83.7967 106.319L83.7749 106.349L83.7752 106.35L83.7967 106.319ZM84.538 107.157L84.5043 107.175L84.5043 107.175L84.538 107.157ZM84.7613 109.215L84.7246 109.206L84.7245 109.206L84.7613 109.215ZM84.4034 110.042L84.3718 110.021L84.3716 110.022L84.4034 110.042ZM83.7767 110.72L83.7534 110.69L83.7531 110.69L83.7767 110.72ZM82.8987 111.213L82.8851 111.178L82.8035 111.21L82.8823 111.247L82.8987 111.213ZM83.2406 111.432L83.2166 111.461L83.2174 111.461L83.2406 111.432ZM83.5347 111.735L83.5045 111.758L83.5051 111.758L83.5347 111.735ZM81.1961 110.393L81.199 110.431C81.5435 110.405 81.8412 110.339 82.0911 110.232L82.0763 110.198L82.0614 110.163C81.8209 110.265 81.5318 110.33 81.1933 110.355L81.1961 110.393ZM82.0763 110.198L82.0909 110.232C82.3444 110.126 82.5493 109.991 82.7043 109.826L82.6767 109.8L82.6491 109.774C82.5029 109.93 82.3075 110.059 82.0616 110.163L82.0763 110.198ZM82.6767 109.8L82.7043 109.826C82.8629 109.656 82.9759 109.462 83.0429 109.243L83.0067 109.232L82.9705 109.221C82.9069 109.428 82.7999 109.613 82.649 109.774L82.6767 109.8ZM83.0067 109.232L83.0429 109.243C83.1097 109.026 83.1333 108.791 83.1144 108.539L83.0766 108.542L83.0388 108.545C83.0572 108.788 83.0342 109.013 82.9705 109.221L83.0067 109.232ZM83.0766 108.542L83.1144 108.539C83.0763 108.036 82.8791 107.657 82.5199 107.409L82.4984 107.44L82.4769 107.471C82.8139 107.704 83.0022 108.06 83.0388 108.545L83.0766 108.542ZM82.4984 107.44L82.5202 107.409C82.1662 107.161 81.6492 107.066 80.9758 107.117L80.9786 107.155L80.9815 107.193C81.6473 107.143 82.1435 107.238 82.4767 107.471L82.4984 107.44ZM80.9786 107.155L80.9758 107.117L79.8163 107.205L79.8192 107.243L79.822 107.28L80.9815 107.193L80.9786 107.155ZM79.8192 107.243L79.7814 107.246L80.0259 110.481L80.0636 110.478L80.1014 110.476L79.8569 107.24L79.8192 107.243ZM80.0636 110.478L80.0665 110.516L81.199 110.431L81.1961 110.393L81.1933 110.355L80.0608 110.441L80.0636 110.478ZM86.2469 115.15L86.2441 115.112L84.606 115.236L84.6089 115.274L84.6117 115.312L86.2498 115.188L86.2469 115.15ZM84.6089 115.274L84.606 115.236C84.3077 115.259 84.0877 115.159 83.9386 114.94L83.9073 114.961L83.8759 114.982C84.0422 115.227 84.2899 115.336 84.6117 115.312L84.6089 115.274ZM83.9073 114.961L83.9373 114.938L81.6522 111.971L81.6222 111.995L81.5922 112.018L83.8773 114.984L83.9073 114.961ZM81.6222 111.995L81.6522 111.971C81.5643 111.857 81.4678 111.775 81.3622 111.73L81.3472 111.764L81.3322 111.799C81.4228 111.838 81.5097 111.91 81.5922 112.018L81.6222 111.995ZM81.3472 111.764L81.3629 111.73C81.2606 111.683 81.1163 111.669 80.9343 111.683L80.9371 111.721L80.94 111.759C81.1175 111.745 81.2466 111.76 81.3315 111.799L81.3472 111.764ZM80.9371 111.721L80.9343 111.683L80.1591 111.742L80.1619 111.779L80.1648 111.817L80.94 111.759L80.9371 111.721ZM80.1619 111.779L80.1241 111.782L80.4119 115.591L80.4497 115.588L80.4874 115.585L80.1997 111.777L80.1619 111.779ZM80.4497 115.588L80.4468 115.55L78.6335 115.687L78.6363 115.725L78.6392 115.763L80.4525 115.626L80.4497 115.588ZM78.6363 115.725L78.6741 115.722L77.9376 105.975L77.8999 105.978L77.8621 105.98L78.5986 115.728L78.6363 115.725ZM77.8999 105.978L77.9027 106.015L80.8755 105.791L80.8727 105.753L80.8698 105.715L77.897 105.94L77.8999 105.978ZM80.8727 105.753L80.8755 105.791C81.5337 105.741 82.1014 105.768 82.5793 105.871L82.5872 105.834L82.5952 105.797C82.1082 105.692 81.5329 105.665 80.8698 105.715L80.8727 105.753ZM82.5872 105.834L82.5797 105.871C83.0625 105.969 83.4604 106.129 83.7749 106.349L83.7967 106.319L83.8185 106.288C83.4934 106.059 83.0851 105.896 82.5948 105.797L82.5872 105.834ZM83.7967 106.319L83.7752 106.35C84.0945 106.57 84.3373 106.845 84.5043 107.175L84.538 107.157L84.5718 107.14C84.3989 106.799 84.1474 106.515 83.8182 106.287L83.7967 106.319ZM84.538 107.157L84.5043 107.175C84.6714 107.5 84.7706 107.867 84.8015 108.276L84.8393 108.274L84.8771 108.271C84.8455 107.853 84.7439 107.476 84.5717 107.14L84.538 107.157ZM84.8393 108.274L84.8015 108.276C84.826 108.601 84.8003 108.91 84.7246 109.206L84.7613 109.215L84.798 109.224C84.8759 108.921 84.9021 108.603 84.8771 108.271L84.8393 108.274ZM84.7613 109.215L84.7245 109.206C84.6532 109.501 84.5356 109.773 84.3718 110.021L84.4034 110.042L84.435 110.063C84.6038 109.807 84.7248 109.527 84.7981 109.224L84.7613 109.215ZM84.4034 110.042L84.3716 110.022C84.2123 110.269 84.0064 110.492 83.7534 110.69L83.7767 110.72L83.8 110.75C84.0591 110.547 84.271 110.318 84.4353 110.063L84.4034 110.042ZM83.7767 110.72L83.7531 110.69C83.5049 110.887 83.2156 111.05 82.8851 111.178L82.8987 111.213L82.9124 111.249C83.2493 111.118 83.5454 110.952 83.8002 110.75L83.7767 110.72ZM82.8987 111.213L82.8823 111.247C83.0015 111.305 83.1129 111.376 83.2166 111.461L83.2406 111.432L83.2647 111.402C83.1564 111.314 83.0398 111.239 82.9151 111.179L82.8987 111.213ZM83.2406 111.432L83.2174 111.461C83.3201 111.542 83.4159 111.64 83.5045 111.758L83.5347 111.735L83.565 111.712C83.4728 111.59 83.3725 111.486 83.2639 111.402L83.2406 111.432ZM83.5347 111.735L83.5051 111.758L86.2173 115.174L86.2469 115.15L86.2766 115.127L83.5644 111.711L83.5347 111.735ZM88.4922 106.628L88.4894 106.59L88.4516 106.593L88.4545 106.631L88.4922 106.628ZM88.6965 109.331L88.6587 109.334L88.6616 109.372L88.6993 109.369L88.6965 109.331ZM92.1074 109.074L92.1452 109.071L92.1423 109.033L92.1046 109.036L92.1074 109.074ZM92.2128 110.469L92.2157 110.507L92.2535 110.504L92.2506 110.466L92.2128 110.469ZM88.8019 110.727L88.799 110.689L88.7613 110.692L88.7641 110.73L88.8019 110.727ZM89.0102 113.484L88.9724 113.487L88.9753 113.524L89.013 113.522L89.0102 113.484ZM93.3379 113.157L93.3757 113.154L93.3728 113.116L93.3351 113.119L93.3379 113.157ZM93.4474 114.606L93.4503 114.644L93.488 114.641L93.4852 114.603L93.4474 114.606ZM87.2996 115.071L87.2618 115.073L87.2647 115.111L87.3025 115.108L87.2996 115.071ZM86.5632 105.323L86.5603 105.285L86.5226 105.288L86.5254 105.326L86.5632 105.323ZM92.711 104.859L92.7488 104.856L92.7459 104.818L92.7081 104.821L92.711 104.859ZM92.82 106.301L92.8228 106.339L92.8606 106.336L92.8577 106.298L92.82 106.301ZM88.4922 106.628L88.4545 106.631L88.6587 109.334L88.6965 109.331L88.7342 109.328L88.53 106.625L88.4922 106.628ZM88.6965 109.331L88.6993 109.369L92.1103 109.111L92.1074 109.074L92.1046 109.036L88.6936 109.294L88.6965 109.331ZM92.1074 109.074L92.0697 109.076L92.1751 110.472L92.2128 110.469L92.2506 110.466L92.1452 109.071L92.1074 109.074ZM92.2128 110.469L92.21 110.431L88.799 110.689L88.8019 110.727L88.8047 110.764L92.2157 110.507L92.2128 110.469ZM88.8019 110.727L88.7641 110.73L88.9724 113.487L89.0102 113.484L89.0479 113.481L88.8396 110.724L88.8019 110.727ZM89.0102 113.484L89.013 113.522L93.3408 113.195L93.3379 113.157L93.3351 113.119L89.0073 113.446L89.0102 113.484ZM93.3379 113.157L93.3002 113.16L93.4097 114.609L93.4474 114.606L93.4852 114.603L93.3757 113.154L93.3379 113.157ZM93.4474 114.606L93.4446 114.568L87.2967 115.033L87.2996 115.071L87.3025 115.108L93.4503 114.644L93.4474 114.606ZM87.2996 115.071L87.3374 115.068L86.6009 105.32L86.5632 105.323L86.5254 105.326L87.2618 115.073L87.2996 115.071ZM86.5632 105.323L86.566 105.361L92.7138 104.896L92.711 104.859L92.7081 104.821L86.5603 105.285L86.5632 105.323ZM92.711 104.859L92.6732 104.861L92.7822 106.304L92.82 106.301L92.8577 106.298L92.7488 104.856L92.711 104.859ZM92.82 106.301L92.8171 106.263L88.4894 106.59L88.4922 106.628L88.4951 106.666L92.8228 106.339L92.82 106.301ZM102.67 104.106L102.706 104.118L102.723 104.064L102.667 104.068L102.67 104.106ZM99.4698 114.151L99.4726 114.189L99.4981 114.187L99.5059 114.163L99.4698 114.151ZM97.8317 114.275L97.7978 114.292L97.8091 114.315L97.8346 114.313L97.8317 114.275ZM93.1585 104.825L93.1557 104.787L93.0997 104.791L93.1246 104.842L93.1585 104.825ZM95.0075 104.8L94.9867 104.832L95.0075 104.8ZM95.2524 105.08L95.2865 105.064L95.2862 105.063L95.2524 105.08ZM98.0002 110.852L97.966 110.868L97.9662 110.869L98.0002 110.852ZM98.2643 111.476L98.2288 111.489L98.2292 111.49L98.2643 111.476ZM98.5211 112.182L98.4851 112.194L98.5586 112.187L98.5211 112.182ZM98.6418 111.448L98.679 111.455L98.679 111.455L98.6418 111.448ZM98.8024 110.791L98.8386 110.803L98.8387 110.802L98.8024 110.791ZM100.638 104.673L100.675 104.684L100.675 104.683L100.638 104.673ZM100.826 104.374L100.8 104.346L100.8 104.347L100.826 104.374ZM102.67 104.106L102.634 104.095L99.4337 114.14L99.4698 114.151L99.5059 114.163L102.706 104.118L102.67 104.106ZM99.4698 114.151L99.4669 114.113L97.8289 114.237L97.8317 114.275L97.8346 114.313L99.4726 114.189L99.4698 114.151ZM97.8317 114.275L97.8657 114.258L93.1925 104.808L93.1585 104.825L93.1246 104.842L97.7978 114.292L97.8317 114.275ZM93.1585 104.825L93.1614 104.863L94.6174 104.753L94.6146 104.715L94.6117 104.677L93.1557 104.787L93.1585 104.825ZM94.6146 104.715L94.6174 104.753C94.7686 104.741 94.8907 104.769 94.9867 104.832L95.0075 104.8L95.0283 104.769C94.915 104.694 94.7752 104.665 94.6117 104.677L94.6146 104.715ZM95.0075 104.8L94.9867 104.832C95.0854 104.897 95.1627 104.985 95.2185 105.097L95.2524 105.08L95.2862 105.063C95.2248 104.94 95.1388 104.842 95.0283 104.769L95.0075 104.8ZM95.2524 105.08L95.2182 105.096L97.966 110.868L98.0002 110.852L98.0344 110.836L95.2865 105.064L95.2524 105.08ZM98.0002 110.852L97.9662 110.869C98.0566 111.055 98.1441 111.262 98.2288 111.489L98.2643 111.476L98.2998 111.463C98.2144 111.233 98.1259 111.024 98.0343 110.836L98.0002 110.852ZM98.2643 111.476L98.2292 111.49C98.3181 111.713 98.4034 111.948 98.4851 112.194L98.5211 112.182L98.557 112.17C98.4749 111.923 98.389 111.687 98.2995 111.462L98.2643 111.476ZM98.5211 112.182L98.5586 112.187C98.5934 111.932 98.6335 111.688 98.679 111.455L98.6418 111.448L98.6047 111.44C98.5589 111.675 98.5185 111.921 98.4835 112.177L98.5211 112.182ZM98.6418 111.448L98.679 111.455C98.7241 111.217 98.7773 111 98.8386 110.803L98.8024 110.791L98.7663 110.78C98.704 110.981 98.6501 111.201 98.6046 111.441L98.6418 111.448ZM98.8024 110.791L98.8387 110.802L100.675 104.684L100.638 104.673L100.602 104.662L98.7662 110.781L98.8024 110.791ZM100.638 104.673L100.675 104.683C100.701 104.585 100.759 104.491 100.852 104.402L100.826 104.374L100.8 104.347C100.699 104.444 100.632 104.549 100.602 104.664L100.638 104.673ZM100.826 104.374L100.852 104.402C100.946 104.315 101.065 104.265 101.21 104.254L101.207 104.217L101.204 104.179C101.044 104.191 100.909 104.247 100.8 104.346L100.826 104.374ZM101.207 104.217L101.21 104.254L102.673 104.144L102.67 104.106L102.667 104.068L101.204 104.179L101.207 104.217ZM106.236 113.64L106.238 113.678L106.276 113.675L106.273 113.637L106.236 113.64ZM104.416 113.777L104.378 113.78L104.381 113.818L104.418 113.815L104.416 113.777ZM103.679 104.03L103.676 103.992L103.638 103.995L103.641 104.033L103.679 104.03ZM105.499 103.892L105.537 103.89L105.534 103.852L105.496 103.855L105.499 103.892ZM106.236 113.64L106.233 113.602L104.413 113.74L104.416 113.777L104.418 113.815L106.238 113.678L106.236 113.64ZM104.416 113.777L104.453 113.775L103.717 104.027L103.679 104.03L103.641 104.033L104.378 113.78L104.416 113.777ZM103.679 104.03L103.682 104.068L105.502 103.93L105.499 103.892L105.496 103.855L103.676 103.992L103.679 104.03ZM105.499 103.892L105.461 103.895L106.198 113.643L106.236 113.64L106.273 113.637L105.537 103.89L105.499 103.892ZM109.611 105.033L109.608 104.995L109.57 104.998L109.573 105.035L109.611 105.033ZM109.815 107.736L109.777 107.739L109.78 107.776L109.818 107.774L109.815 107.736ZM113.226 107.478L113.264 107.475L113.261 107.437L113.223 107.44L113.226 107.478ZM113.331 108.873L113.334 108.911L113.372 108.908L113.369 108.871L113.331 108.873ZM109.92 109.131L109.917 109.093L109.88 109.096L109.883 109.134L109.92 109.131ZM110.129 111.888L110.091 111.891L110.094 111.929L110.131 111.926L110.129 111.888ZM114.456 111.561L114.494 111.558L114.491 111.521L114.453 111.524L114.456 111.561ZM114.566 113.011L114.569 113.048L114.606 113.046L114.604 113.008L114.566 113.011ZM108.418 113.475L108.38 113.478L108.383 113.516L108.421 113.513L108.418 113.475ZM107.682 103.728L107.679 103.69L107.641 103.693L107.644 103.73L107.682 103.728ZM113.829 103.263L113.867 103.26L113.864 103.222L113.827 103.225L113.829 103.263ZM113.938 104.706L113.941 104.743L113.979 104.741L113.976 104.703L113.938 104.706ZM109.611 105.033L109.573 105.035L109.777 107.739L109.815 107.736L109.853 107.733L109.648 105.03L109.611 105.033ZM109.815 107.736L109.818 107.774L113.229 107.516L113.226 107.478L113.223 107.44L109.812 107.698L109.815 107.736ZM113.226 107.478L113.188 107.481L113.293 108.876L113.331 108.873L113.369 108.871L113.264 107.475L113.226 107.478ZM113.331 108.873L113.328 108.836L109.917 109.093L109.92 109.131L109.923 109.169L113.334 108.911L113.331 108.873ZM109.92 109.131L109.883 109.134L110.091 111.891L110.129 111.888L110.166 111.885L109.958 109.128L109.92 109.131ZM110.129 111.888L110.131 111.926L114.459 111.599L114.456 111.561L114.453 111.524L110.126 111.851L110.129 111.888ZM114.456 111.561L114.419 111.564L114.528 113.013L114.566 113.011L114.604 113.008L114.494 111.558L114.456 111.561ZM114.566 113.011L114.563 112.973L108.415 113.437L108.418 113.475L108.421 113.513L114.569 113.048L114.566 113.011ZM108.418 113.475L108.456 113.472L107.719 103.725L107.682 103.728L107.644 103.73L108.38 113.478L108.418 113.475ZM107.682 103.728L107.684 103.765L113.832 103.301L113.829 103.263L113.827 103.225L107.679 103.69L107.682 103.728ZM113.829 103.263L113.792 103.266L113.901 104.709L113.938 104.706L113.976 104.703L113.867 103.26L113.829 103.263ZM113.938 104.706L113.936 104.668L109.608 104.995L109.611 105.033L109.613 105.07L113.941 104.743L113.938 104.706ZM128.406 102.162L128.443 102.17L128.455 102.12L128.403 102.124L128.406 102.162ZM126.116 112.138L126.119 112.176L126.146 112.174L126.153 112.146L126.116 112.138ZM124.478 112.262L124.443 112.276L124.453 112.302L124.481 112.3L124.478 112.262ZM121.844 105.763L121.88 105.748L121.879 105.747L121.844 105.763ZM121.638 105.182L121.674 105.171L121.6 105.176L121.638 105.182ZM121.581 105.505L121.544 105.497L121.544 105.497L121.581 105.505ZM121.514 105.788L121.478 105.777L121.477 105.779L121.514 105.788ZM119.867 112.61L119.87 112.648L119.897 112.646L119.904 112.619L119.867 112.61ZM118.222 112.734L118.187 112.748L118.197 112.774L118.225 112.772L118.222 112.734ZM114.466 103.215L114.463 103.177L114.412 103.181L114.43 103.229L114.466 103.215ZM116.382 103.185L116.362 103.218L116.363 103.218L116.382 103.185ZM116.62 103.466L116.656 103.453L116.656 103.453L116.62 103.466ZM118.719 109.172L118.755 109.16L118.755 109.158L118.719 109.172ZM118.856 109.636L118.819 109.645L118.819 109.647L118.856 109.636ZM119.003 110.153L118.967 110.163L119.041 110.158L119.003 110.153ZM119.078 109.612L119.04 109.605L119.04 109.606L119.078 109.612ZM119.184 109.136L119.221 109.146L119.221 109.145L119.184 109.136ZM120.658 103.161L120.621 103.151L120.621 103.152L120.658 103.161ZM120.846 102.862L120.82 102.834L120.819 102.835L120.846 102.862ZM122.152 102.75L122.132 102.781L122.152 102.75ZM122.397 103.029L122.432 103.015L122.431 103.012L122.397 103.029ZM124.745 108.716L124.71 108.731L124.711 108.731L124.745 108.716ZM125.074 109.661L125.038 109.671L125.112 109.664L125.074 109.661ZM125.197 108.682L125.16 108.674L125.16 108.676L125.197 108.682ZM126.415 102.726L126.452 102.733L126.452 102.732L126.415 102.726ZM126.595 102.421L126.571 102.392L126.57 102.392L126.595 102.421ZM128.406 102.162L128.369 102.153L126.079 112.13L126.116 112.138L126.153 112.146L128.443 102.17L128.406 102.162ZM126.116 112.138L126.113 112.1L124.475 112.224L124.478 112.262L124.481 112.3L126.119 112.176L126.116 112.138ZM124.478 112.262L124.513 112.248L121.88 105.748L121.844 105.763L121.809 105.777L124.443 112.276L124.478 112.262ZM121.844 105.763L121.879 105.747C121.809 105.592 121.741 105.4 121.674 105.171L121.638 105.182L121.601 105.192C121.669 105.423 121.738 105.619 121.81 105.778L121.844 105.763ZM121.638 105.182L121.6 105.176C121.582 105.29 121.563 105.397 121.544 105.497L121.581 105.505L121.618 105.512C121.638 105.41 121.657 105.302 121.675 105.188L121.638 105.182ZM121.581 105.505L121.544 105.497C121.524 105.597 121.502 105.691 121.478 105.777L121.514 105.788L121.551 105.798C121.576 105.709 121.598 105.614 121.618 105.512L121.581 105.505ZM121.514 105.788L121.477 105.779L119.83 112.601L119.867 112.61L119.904 112.619L121.551 105.796L121.514 105.788ZM119.867 112.61L119.864 112.572L118.219 112.697L118.222 112.734L118.225 112.772L119.87 112.648L119.867 112.61ZM118.222 112.734L118.257 112.721L114.501 103.201L114.466 103.215L114.43 103.229L118.187 112.748L118.222 112.734ZM114.466 103.215L114.469 103.253L115.985 103.138L115.982 103.1L115.98 103.063L114.463 103.177L114.466 103.215ZM115.982 103.1L115.985 103.138C116.136 103.127 116.261 103.154 116.362 103.218L116.382 103.185L116.402 103.153C116.285 103.08 116.143 103.05 115.98 103.063L115.982 103.1ZM116.382 103.185L116.363 103.218C116.469 103.278 116.542 103.364 116.585 103.479L116.62 103.466L116.656 103.453C116.607 103.321 116.522 103.221 116.401 103.152L116.382 103.185ZM116.62 103.466L116.585 103.479L118.683 109.185L118.719 109.172L118.755 109.158L116.656 103.453L116.62 103.466ZM118.719 109.172L118.683 109.183C118.73 109.324 118.775 109.478 118.819 109.645L118.856 109.636L118.892 109.626C118.848 109.457 118.802 109.302 118.755 109.16L118.719 109.172ZM118.856 109.636L118.819 109.647C118.868 109.81 118.917 109.982 118.967 110.163L119.003 110.153L119.04 110.143C118.99 109.962 118.941 109.789 118.892 109.625L118.856 109.636ZM119.003 110.153L119.041 110.158C119.063 109.967 119.087 109.787 119.115 109.618L119.078 109.612L119.04 109.606C119.012 109.776 118.987 109.957 118.966 110.149L119.003 110.153ZM119.078 109.612L119.115 109.619C119.147 109.45 119.182 109.293 119.221 109.146L119.184 109.136L119.147 109.127C119.109 109.275 119.073 109.435 119.041 109.605L119.078 109.612ZM119.184 109.136L119.221 109.145L120.695 103.17L120.658 103.161L120.621 103.152L119.147 109.127L119.184 109.136ZM120.658 103.161L120.695 103.17C120.721 103.072 120.779 102.979 120.872 102.889L120.846 102.862L120.819 102.835C120.719 102.931 120.652 103.037 120.621 103.151L120.658 103.161ZM120.846 102.862L120.871 102.89C120.966 102.803 121.084 102.753 121.23 102.742L121.227 102.704L121.224 102.666C121.064 102.679 120.928 102.734 120.82 102.834L120.846 102.862ZM121.227 102.704L121.23 102.742L121.762 102.702L121.759 102.664L121.757 102.626L121.224 102.666L121.227 102.704ZM121.759 102.664L121.762 102.702C121.913 102.69 122.036 102.718 122.132 102.781L122.152 102.75L122.173 102.718C122.06 102.643 121.92 102.614 121.757 102.626L121.759 102.664ZM122.152 102.75L122.132 102.781C122.23 102.846 122.308 102.934 122.363 103.046L122.397 103.029L122.431 103.012C122.37 102.889 122.284 102.791 122.173 102.718L122.152 102.75ZM122.397 103.029L122.362 103.044L124.71 108.731L124.745 108.716L124.78 108.702L122.432 103.015L122.397 103.029ZM124.745 108.716L124.711 108.731C124.825 109.001 124.935 109.314 125.038 109.671L125.074 109.661L125.111 109.65C125.007 109.291 124.896 108.975 124.78 108.701L124.745 108.716ZM125.074 109.661L125.112 109.664C125.144 109.306 125.184 108.98 125.234 108.688L125.197 108.682L125.16 108.676C125.109 108.97 125.068 109.297 125.037 109.658L125.074 109.661ZM125.197 108.682L125.234 108.69L126.452 102.733L126.415 102.726L126.378 102.718L125.16 108.675L125.197 108.682ZM126.415 102.726L126.452 102.732C126.469 102.628 126.524 102.533 126.62 102.449L126.595 102.421L126.57 102.392C126.463 102.486 126.398 102.595 126.378 102.72L126.415 102.726ZM126.595 102.421L126.62 102.45C126.719 102.366 126.841 102.318 126.987 102.307L126.984 102.269L126.981 102.232C126.821 102.244 126.684 102.297 126.571 102.392L126.595 102.421ZM126.984 102.269L126.987 102.307L128.409 102.2L128.406 102.162L128.403 102.124L126.981 102.232L126.984 102.269ZM131.201 101.951L131.238 101.948L131.236 101.91L131.198 101.913L131.201 101.951ZM131.523 107.018L131.56 107.019L131.56 107.019L131.523 107.018ZM131.462 108.277L131.465 108.314L131.497 108.312L131.499 108.279L131.462 108.277ZM130.329 108.362L130.292 108.37L130.299 108.402L130.332 108.4L130.329 108.362ZM130.08 107.127L130.043 107.133L130.043 107.133L130.08 107.127ZM129.637 102.069L129.634 102.031L129.596 102.034L129.599 102.072L129.637 102.069ZM130.085 110.516L130.049 110.504L130.049 110.505L130.085 110.516ZM130.276 110.176L130.248 110.151L130.248 110.152L130.276 110.176ZM131.393 109.875L131.405 109.839L131.393 109.875ZM131.732 110.066L131.708 110.095L131.709 110.096L131.732 110.066ZM131.979 110.373L132.013 110.356L131.979 110.373ZM132.04 111.175L132.076 111.188L132.076 111.187L132.04 111.175ZM131.841 111.509L131.813 111.483L131.813 111.484L131.841 111.509ZM131.534 111.742L131.517 111.708L131.516 111.709L131.534 111.742ZM130.732 111.803L130.744 111.767L130.743 111.767L130.732 111.803ZM130.385 111.619L130.361 111.648L130.361 111.648L130.385 111.619ZM130.146 111.318L130.112 111.335L130.112 111.336L130.146 111.318ZM131.201 101.951L131.163 101.954L131.454 105.809L131.492 105.807L131.53 105.804L131.238 101.948L131.201 101.951ZM131.492 105.807L131.454 105.809C131.485 106.217 131.495 106.62 131.485 107.017L131.523 107.018L131.56 107.019C131.571 106.619 131.561 106.214 131.53 105.804L131.492 105.807ZM131.523 107.018L131.485 107.017C131.474 107.41 131.454 107.829 131.424 108.274L131.462 108.277L131.499 108.279C131.529 107.834 131.549 107.413 131.56 107.019L131.523 107.018ZM131.462 108.277L131.459 108.239L130.326 108.324L130.329 108.362L130.332 108.4L131.465 108.314L131.462 108.277ZM130.329 108.362L130.366 108.354C130.27 107.919 130.187 107.507 130.117 107.12L130.08 107.127L130.043 107.133C130.113 107.522 130.196 107.934 130.292 108.37L130.329 108.362ZM130.08 107.127L130.117 107.12C130.047 106.729 129.997 106.33 129.966 105.922L129.928 105.925L129.89 105.928C129.921 106.338 129.972 106.74 130.043 107.133L130.08 107.127ZM129.928 105.925L129.966 105.922L129.675 102.066L129.637 102.069L129.599 102.072L129.89 105.928L129.928 105.925ZM129.637 102.069L129.64 102.107L131.204 101.988L131.201 101.951L131.198 101.913L129.634 102.031L129.637 102.069ZM130.041 110.919L130.079 110.917C130.069 110.782 130.083 110.652 130.121 110.527L130.085 110.516L130.049 110.505C130.008 110.639 129.992 110.778 130.003 110.922L130.041 110.919ZM130.085 110.516L130.121 110.528C130.164 110.403 130.225 110.294 130.305 110.201L130.276 110.176L130.248 110.152C130.161 110.252 130.095 110.37 130.049 110.504L130.085 110.516ZM130.276 110.176L130.305 110.202C130.389 110.108 130.49 110.031 130.608 109.969L130.59 109.936L130.573 109.902C130.447 109.967 130.339 110.05 130.248 110.151L130.276 110.176ZM130.59 109.936L130.608 109.969C130.725 109.908 130.853 109.872 130.992 109.862L130.989 109.824L130.986 109.786C130.837 109.798 130.699 109.836 130.573 109.902L130.59 109.936ZM130.989 109.824L130.992 109.862C131.126 109.852 131.255 109.868 131.38 109.911L131.393 109.875L131.405 109.839C131.27 109.793 131.13 109.775 130.986 109.786L130.989 109.824ZM131.393 109.875L131.38 109.911C131.506 109.954 131.615 110.015 131.708 110.095L131.732 110.066L131.757 110.038C131.657 109.951 131.539 109.885 131.405 109.839L131.393 109.875ZM131.732 110.066L131.709 110.096C131.806 110.175 131.885 110.273 131.946 110.391L131.979 110.373L132.013 110.356C131.947 110.229 131.862 110.123 131.756 110.037L131.732 110.066ZM131.979 110.373L131.946 110.391C132.007 110.508 132.042 110.633 132.053 110.767L132.09 110.765L132.128 110.762C132.117 110.617 132.079 110.482 132.013 110.356L131.979 110.373ZM132.09 110.765L132.053 110.767C132.063 110.906 132.047 111.038 132.004 111.163L132.04 111.175L132.076 111.187C132.122 111.052 132.139 110.91 132.128 110.762L132.09 110.765ZM132.04 111.175L132.004 111.162C131.961 111.283 131.898 111.39 131.813 111.483L131.841 111.509L131.87 111.534C131.961 111.433 132.029 111.318 132.076 111.188L132.04 111.175ZM131.841 111.509L131.813 111.484C131.733 111.577 131.635 111.651 131.517 111.708L131.534 111.742L131.55 111.776C131.677 111.715 131.783 111.634 131.87 111.534L131.841 111.509ZM131.534 111.742L131.516 111.709C131.399 111.77 131.274 111.805 131.139 111.815L131.142 111.853L131.145 111.891C131.289 111.88 131.425 111.842 131.551 111.776L131.534 111.742ZM131.142 111.853L131.139 111.815C131 111.826 130.869 111.81 130.744 111.767L130.732 111.803L130.719 111.839C130.854 111.885 130.996 111.902 131.145 111.891L131.142 111.853ZM130.732 111.803L130.743 111.767C130.618 111.728 130.507 111.669 130.409 111.59L130.385 111.619L130.361 111.648C130.467 111.734 130.586 111.798 130.72 111.839L130.732 111.803ZM130.385 111.619L130.41 111.59C130.317 111.51 130.24 111.414 130.179 111.3L130.146 111.318L130.112 111.336C130.178 111.457 130.26 111.561 130.361 111.648L130.385 111.619ZM130.146 111.318L130.18 111.302C130.123 111.184 130.089 111.056 130.079 110.917L130.041 110.919L130.003 110.922C130.014 111.071 130.051 111.208 130.112 111.335L130.146 111.318Z" fill="white"/>
<path d="M29.0762 246.211V231.126" stroke="#A3A3A3" stroke-width="0.186432" stroke-linecap="round" stroke-linejoin="round"/>
<path d="M31.1289 246.211V191.113" stroke="#A3A3A3" stroke-width="0.186432" stroke-linecap="round" stroke-linejoin="round"/>
<path d="M29.0762 228.838V223.352" stroke="#A3A3A3" stroke-width="0.186432" stroke-linecap="round" stroke-linejoin="round"/>
<path d="M34.9453 149.094V143.608" stroke="#A3A3A3" stroke-width="0.186432" stroke-linecap="round" stroke-linejoin="round"/>
<path d="M29.0762 12.018V6.53247" stroke="#A3A3A3" stroke-width="0.186432" stroke-linecap="round" stroke-linejoin="round"/>
<path d="M29.0762 19.2433V13.7578" stroke="#A3A3A3" stroke-width="0.186432" stroke-linecap="round" stroke-linejoin="round"/>
<path d="M34.9453 183.872V155.253" stroke="#A3A3A3" stroke-width="0.186432" stroke-linecap="round" stroke-linejoin="round"/>
<path d="M10.8086 38.1682H14.9227" stroke="#A3A3A3" stroke-width="0.186432" stroke-linecap="round" stroke-linejoin="round"/>
<path d="M12.6348 40.2292H22.4695" stroke="#A3A3A3" stroke-width="0.186432" stroke-linecap="round" stroke-linejoin="round"/>
<path d="M49.1914 40.2292H59.0183" stroke="#A3A3A3" stroke-width="0.186432" stroke-linecap="round" stroke-linejoin="round"/>
<path d="M54.1055 42.5176H57.5614" stroke="#A3A3A3" stroke-width="0.186432" stroke-linecap="round" stroke-linejoin="round"/>
<path d="M71.5566 42.5176H92.0725" stroke="#A3A3A3" stroke-width="0.186432" stroke-linecap="round" stroke-linejoin="round"/>
<path d="M162.382 42.5176H158.949" stroke="#A3A3A3" stroke-width="0.186432" stroke-linecap="round" stroke-linejoin="round"/>
<path d="M160.776 44.1162H149.123" stroke="#A3A3A3" stroke-width="0.186432" stroke-linecap="round" stroke-linejoin="round"/>
<path d="M3.13621 249.839H10.8238C10.8238 249.839 -3.13297 237.395 3.13621 238.664C9.40539 239.934 14.8909 244.354 14.8909 244.354C14.8909 244.354 7.47761 237.379 12.6027 238.649C17.7277 239.918 17.5161 242.019 17.5161 242.019C17.5161 242.019 17.9158 226.949 22.4374 231.11C25.0624 233.405 26.6829 236.638 26.9513 240.114C26.9513 240.114 36.6136 228.164 38.706 228.822C40.7983 229.48 40.7983 236.792 40.7983 236.792C40.7983 236.792 57.0276 223.564 54.0811 231.11C51.1346 238.657 49.1677 241.493 49.1677 241.493C49.1677 241.493 56.7847 234.762 55.813 238.649C55.398 240.525 54.8185 242.36 54.0811 244.134C54.0811 244.134 65.5381 247.723 63.8454 247.716C62.1527 247.708 58.9946 249.886 58.9946 249.886C58.9946 249.886 78.3428 246.752 74.6675 249.886C70.9922 253.021 40.7826 252.496 40.7826 252.496C40.7826 252.496 55.5387 256.108 49.1912 256.108C42.8436 256.108 32.86 253.491 32.86 253.491C32.86 253.491 17.9707 256.626 12.634 256.108C7.29738 255.591 22.4688 253.491 22.4688 253.491C22.4688 253.491 -6.40078 253.522 3.13621 249.839Z" fill="#A3A3A3" stroke="#A3A3A3" stroke-width="0.192546" stroke-linecap="round" stroke-linejoin="round"/>
</svg>
